<ttFont>
          <CharString index="0">
            -51 hlineto
            -36 -1 -14 -16 -15 -17 8 9 -19 vhcurveto
            10 -23 -26 12 -26 hhcurveto
            -53 -6 -36 -76 hvcurveto
            51 hlineto
            36 2 14 16 16 18 -9 -9 19 vhcurveto
            -11 24 24 -10 25 hhcurveto
            53 5 36 76 hvcurveto
            return
          </CharString>
          <CharString index="1">
            84 389 hlineto
            238 -8 69 -156 -157 -8 -69 -238 vhcurveto
            -389 85 233 160 -18 callgsubr
            vmoveto
            -117 -160 117 vlineto
            163 4 28 76 76 4 -28 -163 vhcurveto
            return
          </CharString>
          <CharString index="2">
            -38 callgsubr
            20 2 2 40 15 vhcurveto
            10 4 rlineto
            41 16 1 20 38 vvcurveto
            54 -31 16 -70 -27 -36 -5 -56 callgsubr
            2 23 hhcurveto
            45 6 -5 -22 -24 -13 -5 -31 -10 hvcurveto
            -76 callgsubr
            return
          </CharString>
          <CharString index="3">
            rmoveto
            163 10 65 287 287 -10 65 -163 -162 -11 -65 -287 -287 11 -65 162 -10 callsubr
            -77 -11 10 265 265 11 10 77 77 11 -10 -265 -265 -27 callsubr
            hvcurveto
            return
          </CharString>
          <CharString index="4">
            -56 hlineto
            -54 -1 -31 -50 -51 0 31 54 vhcurveto
            -56 hlineto
            -79 8 -57 99 99 8 57 79 vhcurveto
            return
          </CharString>
          <CharString index="5">
            rmoveto
            -106 callsubr
            endchar
          </CharString>
          <CharString index="6">
            -163 -4 -28 -76 -76 -4 28 163 vhcurveto
            428 -85 -389 vlineto
            -238 8 -69 157 156 8 69 238 vhcurveto
            return
          </CharString>
          <CharString index="7">
            rmoveto
            120 38 52 158 55 -2 35 -8 22 hvcurveto
            -16 50 -32 11 -38 8 -81 17 rcurveline
            -40 9 -6 11 83 vvcurveto
            39 2 29 14 20 vhcurveto
            19 12 25 9 48 hhcurveto
            41 42 -5 -4 17 -18 callsubr
            5 -13 -50 10 -60 hhcurveto
            -112 -51 -48 -146 -99 7 -62 60 -12 hvcurveto
            91 -19 rlineto
            62 -12 3 -9 -101 vvcurveto
            -46 -2 -34 -16 -17 vhcurveto
            -17 -17 -23 -5 -39 hhcurveto
            -28 -48 5 5 -39 hvcurveto
            -72 vlineto
            -9 37 58 -6 44 hhcurveto
            return
          </CharString>
          <CharString index="8">
            63 hlineto
            53 137 rlineto
            -92 callsubr
            return
          </CharString>
          <CharString index="9">
            rmoveto
            148 17 78 190 hvcurveto
            442 -80 -254 vlineto
            -126 0 -60 -72 -56 -9 15 133 vhcurveto
            292 -80 -325 vlineto
            -135 14 -52 93 62 29 27 44 13 vhcurveto
            6 -29 hlineto
            -130 -7 -41 -94 -35 -40 1 1 -27 vhcurveto
            -65 vlineto
            -4 34 47 -2 37 hhcurveto
            return
          </CharString>
          <CharString index="10">
            rmoveto
            94 44 39 115 112 -28 20 -47 8 hvcurveto
            -74 13 rlineto
            -31 6 -7 6 62 vvcurveto
            62 24 14 46 33 41 -4 -7 24 vhcurveto
            66 vlineto
            8 -25 -45 6 -37 hhcurveto
            -88 -53 -33 -117 -91 18 -35 49 -9 hvcurveto
            80 -14 rlineto
            33 -6 9 -3 -70 vvcurveto
            -51 -15 -28 -60 -35 -46 4 6 -23 vhcurveto
            -65 vlineto
            -8 27 51 -6 41 hhcurveto
            return
          </CharString>
          <CharString index="11">
            -38 callgsubr
            21 2 2 40 14 vhcurveto
            10 4 rlineto
            41 17 1 20 38 vvcurveto
            54 -31 15 -70 -27 -36 -4 -56 callgsubr
            1 23 hhcurveto
            45 6 -5 -22 -23 -82 callsubr
            -8 -10 -10 -27 vvcurveto
            return
          </CharString>
          <CharString index="12">
            rmoveto
            -224 vlineto
            -4 -14 -25 -4 -23 hhcurveto
            -88 -10 38 239 267 20 8 110 23 46 -6 -7 38 -18 callsubr
            12 -36 -56 7 -42 hhcurveto
            -153 -34 -59 -293 -295 34 -57 146 45 58 8 11 39 hvcurveto
            364 -151 -76 vlineto
            return
          </CharString>
          <CharString index="13">
            rmoveto
            -5 103 -23 24 -47 16 rrcurveto
            4 vlineto
            53 18 28 40 123 vvcurveto
            123 -33 64 -113 vhcurveto
            -176 -688 85 270 70 hlineto
            71 2 -45 -71 4 hvcurveto
            10 -154 rlineto
            83 hlineto
            -162 345 rmoveto
            -78 266 78 hlineto
            69 5 -39 -94 -92 -10 -41 -64 hvcurveto
            return
          </CharString>
          <CharString index="14">
            267 77 -181 232 158 77 -158 225 181 77 -267 hlineto
            return
          </CharString>
          <CharString index="15">
            5 -81 vlineto
            -71 callgsubr
            return
          </CharString>
          <CharString index="16">
            -90 callgsubr
            endchar
          </CharString>
          <CharString index="17">
            rmoveto
            -38 vlineto
            -40 -5 -16 -42 vhcurveto
            -26 hlineto
            6 -21 -25 2 -31 19 callgsubr
            -287 11 -65 162 163 10 65 287 163 -3 91 -33 49 hvcurveto
            59 6 10 29 73 vvcurveto
            27 vlineto
            -206 -713 rmoveto
            -77 -11 10 265 265 11 10 77 77 11 -10 -265 -265 -27 callsubr
            hvcurveto
            return
          </CharString>
          <CharString index="18">
            rmoveto
            63 5 hlineto
            -35 -68 callgsubr
            -81 -5 hlineto
            return
          </CharString>
          <CharString index="19">
            rmoveto
            56 hlineto
            54 1 31 50 51 0 -31 -54 vhcurveto
            56 hlineto
            79 -8 57 -99 -99 -8 -57 -79 vhcurveto
            return
          </CharString>
          <CharString index="20">
            rmoveto
            71 vlineto
            -4 -19 -31 -4 -24 hhcurveto
            -92 -8 27 248 248 8 27 92 21 29 -4 -4 22 -18 callsubr
            8 -18 -37 6 -32 hhcurveto
            -146 -24 -65 -287 -288 22 -64 148 29 37 6 8 23 hvcurveto
            endchar
          </CharString>
          <CharString index="21">
            rmoveto
            -5 callgsubr
            14 27 96 hvcurveto
            69 -87 -81 34 -16 vlineto
            -43 -5 -13 -42 vhcurveto
            endchar
          </CharString>
          <CharString index="22">
            -84 callsubr
            endchar
          </CharString>
          <CharString index="23">
            -42 callgsubr
            -75 callsubr
            return
          </CharString>
          <CharString index="24">
            -79 285 rlineto
            60 31 6 75 86 vvcurveto
            125 -12 86 -136 vhcurveto
            -174 -688 85 266 82 hlineto
            12 hlineto
            68 -266 rlineto
            -85 341 rmoveto
            -77 270 77 hlineto
            70 5 -38 -97 -97 -6 -38 -69 hvcurveto
            endchar
          </CharString>
          <CharString index="25">
            -13 -5 -31 -10 hvcurveto
            -10 -3 rlineto
            -24 return
          </CharString>
          <CharString index="26">
            601 -100 callgsubr
            return
          </CharString>
          <CharString index="27">
            rmoveto
            90 98 -44 callgsubr
          </CharString>
          <CharString index="28">
            97 hlineto
            92 510 rlineto
            -76 hlineto
            -61 -399 rlineto
            -6 hlineto
            -67 399 5 callsubr
            -65 -399 rlineto
            -6 hlineto
            -62 399 rlineto
            -80 hlineto
            92 -510 rlineto
            98 hlineto
            61 361 rlineto
            6 hlineto
            endchar
          </CharString>
          <CharString index="29">
            79 688 -80 -460 -5 hlineto
            -163 460 rlineto
            -84 -688 81 475 4 hlineto
            return
          </CharString>
          <CharString index="30">
            304 77 -213 hlineto
            210 539 rlineto
            72 -295 -77 205 vlineto
            -211 -539 rlineto
            return
          </CharString>
          <CharString index="31">
            147 hlineto
            163 10 64 280 281 -10 63 -163 hvcurveto
            -147 hlineto
            84 -611 rmoveto
            534 63 vlineto
            78 -45 callgsubr
            -78 hvcurveto
            return
          </CharString>
          <CharString index="32">
            -888 rmoveto
            -106 callsubr
            return
          </CharString>
          <CharString index="33">
            rmoveto
            75 22 32 73 62 -18 22 -30 7 hvcurveto
            3 vlineto
            29 9 16 26 55 vvcurveto
            74 -27 24 -67 -23 -32 -3 -5 -23 vhcurveto
            -45 vlineto
            3 20 26 2 18 hhcurveto
            40 11 -7 -52 -51 -13 -9 -23 hvcurveto
            -44 -48 44 hlineto
            29 10 -13 -51 -52 -14 -8 -37 -16 -27 2 3 -25 hvcurveto
            -44 vlineto
            -6 22 33 -3 24 hhcurveto
            return
          </CharString>
          <CharString index="34">
            888 rmoveto
            -103 callsubr
            return
          </CharString>
          <CharString index="35">
            23 callsubr
            5 callgsubr
            18 62 39 20 -15 -50 9 hvcurveto
            5 -28 1 -41 -49 vvcurveto
            -64 0 -40 -6 -38 vhcurveto
            -43 -8 -21 -13 -37 hhcurveto
            return
          </CharString>
          <CharString index="36">
            63 hlineto
            32 -19 callsubr
            -80 vlineto
            -15 -137 rlineto
            return
          </CharString>
          <CharString index="37">
            743 rmoveto
            -103 callsubr
            return
          </CharString>
          <CharString index="38">
            rmoveto
            53 -87 rlineto
            57 7 hlineto
            -67 125 -1 callgsubr
            -67 -125 rlineto
            -7 57 vlineto
            return
          </CharString>
          <CharString index="39">
            33 178 -8 -100 callsubr
            return
          </CharString>
          <CharString index="40">
            rmoveto
            -56 callsubr
            63 vlineto
            return
          </CharString>
          <CharString index="41">
            rmoveto
            170 75 -170 hlineto
            return
          </CharString>
          <CharString index="42">
            750 -106 callgsubr
            return
          </CharString>
          <CharString index="43">
            107 47 hmoveto
            149 72 hlineto
            -60 18 -6 49 221 vvcurveto
            232 7 27 81 82 7 -27 -232 -221 -6 -49 -60 -18 vhcurveto
            -72 149 73 -4 vlineto
            -24 -5 -24 -6 -24 -5 rrcurveto
            6 vlineto
            61 36 16 98 172 vvcurveto
            248 -12 79 -161 -160 -12 -79 -248 -172 16 -98 61 -36 vhcurveto
            -6 vlineto
            -24 5 -23 6 -25 5 rrcurveto
            -4 hlineto
            endchar
          </CharString>
          <CharString index="44">
            -12 155 -8 -97 callsubr
            return
          </CharString>
          <CharString index="45">
            rmoveto
            -73 hlineto
            -19 -56 rlineto
            6 -22 -26 3 -33 19 callgsubr
            -160 3 -91 31 -49 hvcurveto
            -34 -99 rlineto
            74 hlineto
            19 56 rlineto
            -6 21 27 -3 32 hhcurveto
            163 10 65 287 160 -3 91 -31 49 hvcurveto
            -139 -575 -55 callsubr
          </CharString>
          <CharString index="46">
            rmoveto
            33 11 5 26 47 vvcurveto
            68 -7 29 -94 -94 -5 -29 -68 -48 2 -26 36 -11 vhcurveto
            -132 -683 rlineto
            85 hlineto
            34 179 rlineto
            147 hlineto
            35 -179 rlineto
            86 hlineto
            -194 818 rmoveto
            40 3 -11 -39 -39 -3 -10 -40 -39 -3 10 39 39 3 11 39 hvcurveto
            -64 -564 rmoveto
            61 333 rlineto
            5 hlineto
            61 -333 rlineto
            endchar
          </CharString>
          <CharString index="47">
            rmoveto
            32 0 16 4 9 vhcurveto
            2 7 5 5 7 5 21 12 21 15 19 13 rrcurveto
            23 15 19 17 72 vvcurveto
            92 -40 7 -49 -28 -35 -3 -5 -20 vhcurveto
            -45 vlineto
            3 23 30 2 18 hhcurveto
            37 8 -9 -47 -39 -7 -10 -20 -13 hvcurveto
            -19 -12 -19 -13 -19 -13 rrcurveto
            -37 -23 0 -23 -90 vvcurveto
            -43 177 49 -121 vlineto
            endchar
          </CharString>
          <CharString index="48">
            80 331 hlineto
            -41 callgsubr
            -30 -28 -39 -12 vhcurveto
            -6 292 -80 -743 80 259 hlineto
            127 0 59 71 57 9 -31 callgsubr
            return
          </CharString>
          <CharString index="49">
            84 368 173 -94 callsubr
            return
          </CharString>
          <CharString index="50">
            147 hlineto
            163 10 64 280 281 -10 63 -163 hvcurveto
            -147 hlineto
            382 -688 rmoveto
            -77 callsubr
            -298 5 rmoveto
            534 63 vlineto
            78 -45 callgsubr
            -78 hvcurveto
            endchar
          </CharString>
          <CharString index="51">
            -92 callsubr
            -5 return
          </CharString>
          <CharString index="52">
            rmoveto
            -53 callsubr
          </CharString>
          <CharString index="53">
            74 7 callsubr
            49 vvcurveto
            77 -26 24 -65 -22 -31 -4 -5 -23 vhcurveto
            -50 vlineto
            4 24 24 3 15 hhcurveto
            36 11 -8 -48 -49 -14 -9 -18 hvcurveto
            -48 -51 48 hlineto
            24 10 -15 -46 -50 -14 -7 -32 -15 -29 3 3 -24 hvcurveto
            return
          </CharString>
          <CharString index="54">
            -77 -11 10 265 265 11 10 77 77 11 -10 -265 -265 -27 callsubr
            hvcurveto
            endchar
          </CharString>
          <CharString index="55">
            rmoveto
            80 -36 callgsubr
            hlineto
            return
          </CharString>
          <CharString index="56">
            47 3 6 13 10 vhcurveto
            19 13 22 14 17 12 rrcurveto
            26 17 17 20 67 vvcurveto
            93 -39 8 -49 -24 -33 -3 -6 -25 vhcurveto
            -49 vlineto
            3 31 24 2 15 hhcurveto
            34 9 -9 -44 -31 -5 -14 -18 -12 hvcurveto
            -61 -41 rlineto
            -31 -22 -1 -23 -87 vvcurveto
            -44 173 return
          </CharString>
          <CharString index="57">
            -52 callsubr
            endchar
          </CharString>
          <CharString index="58">
            83 308 285 rmoveto
            60 31 6 75 86 vvcurveto
            125 -12 86 -136 vhcurveto
            -174 -688 85 266 82 hlineto
            12 hlineto
            68 -266 rlineto
            88 hlineto
            -173 341 rmoveto
            -77 270 77 hlineto
            70 5 -38 -97 -97 -6 -38 -69 hvcurveto
            return
          </CharString>
          <CharString index="59">
            4 vlineto
            29 14 13 24 48 vvcurveto
            78 -26 24 -64 -22 -32 -4 -5 -23 vhcurveto
            -50 vlineto
            4 24 24 2 15 hhcurveto
            36 11 -8 -48 -48 -13 -9 -19 hvcurveto
            -47 -52 47 hlineto
            24 11 -14 -47 -49 -15 -7 -32 -15 -29 2 3 -23 hvcurveto
            return
          </CharString>
          <CharString index="60">
            -75 callsubr
            endchar
          </CharString>
          <CharString index="61">
            85 688 -85 hlineto
            endchar
          </CharString>
          <CharString index="62">
            vmoveto
            -44 callsubr
          </CharString>
          <CharString index="63">
            -107 callsubr
            endchar
          </CharString>
          <CharString index="64">
            rmoveto
            94 4 34 159 159 -2 35 -96 -95 -5 -35 -159 -159 5 -34 95 hvcurveto
            48 vmoveto
            -42 -3 6 139 141 3 5 42 40 4 -5 -141 -139 -4 -6 -40 hvcurveto
            endchar
          </CharString>
          <CharString index="65">
            rmoveto
            51 0 -31 -54 hvcurveto
            56 hlineto
            79 -8 57 -99 -99 -8 -57 -79 vhcurveto
            56 hlineto
            54 1 31 50 vhcurveto
            return
          </CharString>
          <CharString index="66">
            15 -17 -24 8 -31 hhcurveto
            -123 -10 -68 -196 -207 10 -55 144 hvcurveto
            -1 69 rmoveto
            -73 0 29 164 171 0 24 73 74 0 -47 -148 -164 0 -29 -74 hvcurveto
            endchar
          </CharString>
          <CharString index="67">
            -98 callgsubr
            endchar
          </CharString>
          <CharString index="68">
            53 6 7 29 return
          </CharString>
          <CharString index="69">
            80 441 71 69 -71 148 -80 -148 -57 -69 57 hlineto
            return
          </CharString>
          <CharString index="70">
            -36 callsubr
            endchar
          </CharString>
          <CharString index="71">
            -89 callsubr
            190 -168 rmoveto
            -103 callsubr
            return
          </CharString>
          <CharString index="72">
            25 259 hmoveto
            84 hlineto
            -107 265 104 245 rlineto
            -81 hlineto
            -89 -218 rlineto
            -42 return
          </CharString>
          <CharString index="73">
            rmoveto
            58 hlineto
            35 178 rlineto
            70 -79 -70 vlineto
            return
          </CharString>
          <CharString index="74">
            84 688 -84 -300 -161 300 -85 -688 85 307 161 hlineto
            return
          </CharString>
          <CharString index="75">
            65 198 -85 rmoveto
            125 268 -89 -37 rlineto
            318 vlineto
            89 -36 -125 268 -126 -268 91 36 rlineto
            -318 vlineto
            -91 37 rlineto
            return
          </CharString>
          <CharString index="76">
            70 301 hmoveto
            89 hlineto
            -130 353 128 335 rlineto
            -87 hlineto
            -108 -299 rlineto
            -56 299 -85 -688 85 309 56 hlineto
            return
          </CharString>
          <CharString index="77">
            -28 callsubr
            -3 -688 rmoveto
            96 103 hlineto
            62 -9 162 -12 167 vhcurveto
            -53 hlineto
            -12 -167 -10 -162 -62 vvcurveto
            endchar
          </CharString>
          <CharString index="78">
            -11 callsubr
            -9 19 23 return
          </CharString>
          <CharString index="79">
            rmoveto
            -12 callgsubr
            return
          </CharString>
          <CharString index="80">
            -11 -10 -77 return
          </CharString>
          <CharString index="81">
            55 83 33 48 -33 123 -43 hlineto
            -12 -123 rlineto
            -70 hlineto
            78 248 rlineto
            -56 hlineto
            -76 -253 rlineto
            -43 124 vlineto
            endchar
          </CharString>
          <CharString index="82">
            23 27 12 hvcurveto
            6 hlineto
            -214 -11 -37 -104 -29 -43 5 6 -30 vhcurveto
            -71 vlineto
            -10 33 48 -7 36 hhcurveto
            21 356 rmoveto
            -64 return
          </CharString>
          <CharString index="83">
            67 125 rlineto
            7 -57 vlineto
            -53 -87 -53 87 rlineto
            -57 -7 hlineto
            67 return
          </CharString>
          <CharString index="84">
            49 vlineto
            -1 -8 -3 0 return
          </CharString>
          <CharString index="85">
            -60 -32 -27 -49 -13 return
          </CharString>
          <CharString index="86">
            -77 48 hmoveto
            -73 callgsubr
            return
          </CharString>
          <CharString index="87">
            hlineto
            -133 return
          </CharString>
          <CharString index="88">
            -68 callgsubr
            5 return
          </CharString>
          <CharString index="89">
            hvcurveto
            71 vlineto
            return
          </CharString>
          <CharString index="90">
            vmoveto
            -103 callsubr
            endchar
          </CharString>
          <CharString index="91">
            397 rmoveto
            97 4 37 112 113 -4 37 -97 -99 -3 -37 -113 -112 3 -37 99 hvcurveto
            return
          </CharString>
          <CharString index="92">
            rmoveto
            -40 callsubr
          </CharString>
          <CharString index="93">
            60 hlineto
            96 337 rlineto
            42 -179 -49 121 vlineto
            return
          </CharString>
          <CharString index="94">
            -743 -50 callsubr
          </CharString>
          <CharString index="95">
            -106 callgsubr
            217 return
          </CharString>
          <CharString index="96">
            -23 callsubr
            -3 hhcurveto
            -32 return
          </CharString>
          <CharString index="97">
            hvcurveto
            77 vmoveto
            return
          </CharString>
          <CharString index="98">
            32 511 rmoveto
            -5 callgsubr
            14 30 105 -6 callgsubr
            -52 -5 -16 -42 vhcurveto
            return
          </CharString>
          <CharString index="99">
            rmoveto
            -40 vlineto
            90 14 31 110 hvcurveto
            83 -91 -97 33 -16 vlineto
            -54 -3 -17 -43 vhcurveto
            endchar
          </CharString>
          <CharString index="100">
            rmoveto
            60 hlineto
            76 198 -76 198 rlineto
            -60 hlineto
            return
          </CharString>
          <CharString index="101">
            341 71 -341 hlineto
            return
          </CharString>
          <CharString index="102">
            40 472 rmoveto
            87 94 -34 15 hlineto
            52 5 16 42 vhcurveto
            39 vlineto
            -87 -13 -30 -105 hvcurveto
            return
          </CharString>
          <CharString index="103">
            36 -84 rmoveto
            -38 vlineto
            87 13 29 106 -6 callgsubr
            -53 -5 -16 -42 vhcurveto
            return
          </CharString>
          <CharString index="104">
            rmoveto
            34 -16 hlineto
            -43 -5 -13 -42 vhcurveto
            -5 callgsubr
            14 27 96 hvcurveto
            69 -87 vlineto
            endchar
          </CharString>
          <CharString index="105">
            80 743 -80 hlineto
            return
          </CharString>
          <CharString index="106">
            21 callgsubr
            1 -743 -52 callsubr
            return
          </CharString>
          <CharString index="107">
            rmoveto
            55 13 -13 -135 hvcurveto
            -12 -141 vlineto
            142 8 18 65 vhcurveto
            endchar
          </CharString>
          <CharString index="108">
            -688 rmoveto
            57 78 29 53 -29 128 -43 hlineto
            -13 -128 rlineto
            -61 hlineto
            return
          </CharString>
          <CharString index="109">
            -148 -7 -74 -190 -195 13 -67 145 46 -39 callsubr
            return
          </CharString>
          <CharString index="110">
            -44 0 18 82 83 0 18 44 43 0 -18 -83 -82 0 -18 -43 hvcurveto
            return
          </CharString>
          <CharString index="111">
            48 hmoveto
            -2 callsubr
            return
          </CharString>
          <CharString index="112">
            rlineto
            -84 hlineto
            return
          </CharString>
          <CharString index="113">
            136 71 -136 135 -70 -135 -135 -71 135 hlineto
            return
          </CharString>
          <CharString index="114">
            -10 callgsubr
            4 vlineto
            29 14 13 24 return
          </CharString>
          <CharString index="115">
            85 hlineto
            136 12 97 124 131 -13 90 -135 hvcurveto
            return
          </CharString>
          <CharString index="116">
            57 379 -43 hlineto
            -60 -35 rlineto
            -50 vlineto
            46 21 rlineto
            endchar
          </CharString>
          <CharString index="117">
            16 67 67 13 -16 -108 -104 -17 -18 -63 hvcurveto
            endchar
          </CharString>
          <CharString index="118">
            155 55 77 -55 237 -66 hlineto
            -18 -237 rlineto
            return
          </CharString>
          <CharString index="119">
            47 101 vvcurveto
            135 -46 44 -112 -39 -55 -6 -9 return
          </CharString>
          <CharString index="120">
            205 -145 143 -207 return
          </CharString>
          <CharString index="121">
            hhcurveto
            -128 -27 -55 -175 -176 38 -20 93 return
          </CharString>
          <CharString index="122">
            -211 20 280 rmoveto
            58 hlineto
            21 236 rlineto
            return
          </CharString>
          <CharString index="123">
            -184 -8 -42 -310 -310 8 -42 184 return
          </CharString>
          <CharString index="124">
            268 125 -268 126 36 -90 rlineto
            return
          </CharString>
          <CharString index="125">
            49 190 -8 rmoveto
            146 7 59 216 return
          </CharString>
          <CharString index="126">
            -5 73 vlineto
            37 182 rlineto
            return
          </CharString>
          <CharString index="127">
            242 rlineto
            -58 hlineto
            -67 -252 rlineto
            -43 return
          </CharString>
          <CharString index="128">
            -140 50 413 -28 callsubr
            return
          </CharString>
          <CharString index="129">
            -888 -43 callgsubr
          </CharString>
          <CharString index="130">
            rmoveto
            -64 -8 17 return
          </CharString>
        <CharString name=".notdef">
          170 0 vmoveto
          500 700 -500 hlineto
          450 -50 rmoveto
          -600 -400 600 vlineto
          179 -435 rmoveto
          53 53 hlineto
          33 21 18 23 19 vhcurveto
          30 26 37 36 67 vvcurveto
          12 -3 123 -140 -140 -11 -124 -23 -11 2 -13 2 -7 vhcurveto
          49 28 hlineto
          23 8 77 90 77 12 -59 -28 -51 -28 -24 -28 -23 vhcurveto
          -28 -23 -26 -23 -43 vvcurveto
          -4 -179 rmoveto
          60 70 -60 hlineto
          endchar
        </CharString>
        <CharString name="A">
          83 314 hmoveto
          -103 callgsubr
          endchar
        </CharString>
        <CharString name="A.ss01">
          95 293 hmoveto
          -106 callsubr
          endchar
        </CharString>
        <CharString name="AE">
          221 296 hmoveto
          -49 callgsubr
        </CharString>
        <CharString name="AEacute">
          221 245 746 -100 callgsubr
          51 -751 rmoveto
          -49 callgsubr
        </CharString>
        <CharString name="Aacute">
          83 170 750 -100 callgsubr
          144 -755 rmoveto
          -103 callgsubr
          endchar
        </CharString>
        <CharString name="Aacute.ss01">
          95 178 750 -100 callgsubr
          115 -755 -102 callsubr
        </CharString>
        <CharString name="Abreve">
          83 313 -73 callsubr
          1 -888 rmoveto
          -103 callgsubr
          endchar
        </CharString>
        <CharString name="Abreve.ss01">
          95 319 888 -85 callsubr
        </CharString>
        <CharString name="Acircumflex">
          83 96 -65 callsubr
          218 -757 rmoveto
          -103 callgsubr
          endchar
        </CharString>
        <CharString name="Acircumflex.ss01">
          95 106 -65 callsubr
          187 -757 -102 callsubr
        </CharString>
        <CharString name="Adieresis">
          83 86 773 -88 callgsubr
          61 -855 rmoveto
          -103 callgsubr
          endchar
        </CharString>
        <CharString name="Adieresis.ss01">
          95 96 772 -88 callgsubr
          30 -854 -102 callsubr
        </CharString>
        <CharString name="Agrave">
          83 179 750 -89 callsubr
          188 -887 rmoveto
          -103 callgsubr
          endchar
        </CharString>
        <CharString name="Agrave.ss01">
          95 189 750 -89 callsubr
          157 -887 -102 callsubr
        </CharString>
        <CharString name="Amacron">
          83 122 813 -66 callsubr
          192 -888 rmoveto
          -103 callgsubr
          endchar
        </CharString>
        <CharString name="Amacron.ss01">
          95 128 813 -66 callsubr
          165 -47 callsubr
        </CharString>
        <CharString name="Aogonek">
          83 322 -103 rmoveto
          36 28 45 22 22 vhcurveto
          28 -20 callsubr
          688 rlineto
          -121 -20 callsubr
          -688 rlineto
          85 hlineto
          34 179 rlineto
          147 hlineto
          34 -176 rlineto
          -32 -34 -24 -46 -39 vvcurveto
          -44 23 -36 62 13 4 callgsubr
          hvcurveto
          -180 357 rmoveto
          61 333 rlineto
          5 hlineto
          61 -333 rlineto
          endchar
        </CharString>
        <CharString name="Aogonek.ss01">
          95 377 hmoveto
          389 vlineto
          238 -8 69 -156 -157 -8 -69 -238 vhcurveto
          -389 85 233 160 -230 vlineto
          -32 -34 -24 -46 -39 vvcurveto
          -44 22 -36 63 13 11 1 2 11 vhcurveto
          -29 callsubr
          36 28 44 22 23 hvcurveto
          -219 311 rmoveto
          117 vlineto
          163 4 28 76 76 4 -28 -163 vhcurveto
          -117 vlineto
          endchar
        </CharString>
        <CharString name="Aring">
          83 269 684 -61 callsubr
        </CharString>
        <CharString name="Aring.ss01">
          95 216 736 -89 callgsubr
          77 -783 -102 callsubr
        </CharString>
        <CharString name="Aringacute">
          83 291 1060 -67 callsubr
          31 -239 -61 callsubr
        </CharString>
        <CharString name="Aringacute.ss01">
          95 184 951 -100 callgsubr
          28 -225 -89 callgsubr
          81 -778 -102 callsubr
        </CharString>
        <CharString name="Atilde">
          83 333 873 rmoveto
          -107 callsubr
          -19 -873 rmoveto
          -103 callgsubr
          endchar
        </CharString>
        <CharString name="Atilde.ss01">
          95 343 873 rmoveto
          -107 callsubr
          -50 -873 -102 callsubr
        </CharString>
        <CharString name="B">
          77 52 hmoveto
          167 hlineto
          123 31 78 104 93 -20 58 -73 17 hvcurveto
          4 vlineto
          61 16 27 51 95 vvcurveto
          110 -41 62 -105 vhcurveto
          -170 hlineto
          153 -302 rmoveto
          -69 225 69 hlineto
          66 15 -27 -86 -82 -27 -30 -54 hvcurveto
          1 -309 rmoveto
          -70 234 70 hlineto
          61 22 -27 -90 -88 -17 -29 -66 hvcurveto
          endchar
        </CharString>
        <CharString name="C">
          -9 298 6 -87 callsubr
        </CharString>
        <CharString name="Cacute">
          -9 130 746 -100 callgsubr
          168 -745 -87 callsubr
        </CharString>
        <CharString name="Cacute.loclPLK">
          -9 130 746 rmoveto
          -71 callsubr
          168 -745 -87 callsubr
        </CharString>
        <CharString name="Ccaron">
          -9 118 756 -97 callgsubr
          247 -875 -87 callsubr
        </CharString>
        <CharString name="Ccedilla">
          -9 224 69 rmoveto
          -92 -8 27 248 248 8 27 92 21 29 -4 -4 22 -18 callsubr
          8 -18 -37 6 -32 hhcurveto
          -146 -24 -65 -287 -229 14 -87 80 -27 hvcurveto
          -57 -185 rlineto
          19 callsubr
          -1 7 8 0 8 hhcurveto
          29 37 6 8 23 -18 callsubr
          -4 -19 -31 -4 -24 hhcurveto
          endchar
        </CharString>
        <CharString name="Ccircumflex">
          -9 51 756 -106 callgsubr
          247 -757 -87 callsubr
        </CharString>
        <CharString name="Cdotaccent">
          -9 123 -33 callgsubr
          175 -869 -87 callsubr
        </CharString>
        <CharString name="D">
          82 52 hmoveto
          -76 callsubr
          endchar
        </CharString>
        <CharString name="Dcaron">
          82 163 756 -97 callgsubr
          -44 -881 rmoveto
          -76 callsubr
          endchar
        </CharString>
        <CharString name="Dcroat">
          -48 callgsubr
        </CharString>
        <CharString name="E">
          17 52 hmoveto
          -93 callsubr
          endchar
        </CharString>
        <CharString name="Eacute">
          17 157 750 -100 callgsubr
          -105 -755 rmoveto
          -93 callsubr
          endchar
        </CharString>
        <CharString name="Ebreve">
          17 292 -73 callsubr
          -240 -888 rmoveto
          -93 callsubr
          endchar
        </CharString>
        <CharString name="Ecaron">
          17 143 756 -97 callgsubr
          -24 -881 rmoveto
          -93 callsubr
          endchar
        </CharString>
        <CharString name="Ecircumflex">
          17 76 -65 callsubr
          -24 -757 rmoveto
          -93 callsubr
          endchar
        </CharString>
        <CharString name="Edieresis">
          17 66 773 -88 callgsubr
          -181 -855 rmoveto
          -93 callsubr
          endchar
        </CharString>
        <CharString name="Edotaccent">
          17 148 -33 callgsubr
          -96 -875 rmoveto
          -93 callsubr
          endchar
        </CharString>
        <CharString name="Egrave">
          17 165 750 -89 callsubr
          -60 -887 rmoveto
          -93 callsubr
          endchar
        </CharString>
        <CharString name="Emacron">
          17 101 813 -66 callsubr
          -49 -888 rmoveto
          -93 callsubr
          endchar
        </CharString>
        <CharString name="Eng">
          107 304 688 rmoveto
          -455 -5 vlineto
          -163 455 rlineto
          -84 -688 81 475 4 hlineto
          167 -457 rlineto
          -94 vlineto
          -41 -3 -14 -53 vhcurveto
          -62 vlineto
          100 34 10 129 2 hvcurveto
          742 vlineto
          endchar
        </CharString>
        <CharString name="Eogonek">
          17 278 0 callgsubr
          19 21 41 37 45 25 19 hvcurveto
          77 -181 232 158 77 -158 225 181 77 -267 -688 205 vlineto
          -36 -32 -29 -43 -45 vvcurveto
          -39 23 -37 63 vhcurveto
          endchar
        </CharString>
        <CharString name="Eth">
          -48 callgsubr
        </CharString>
        <CharString name="Euro">
          39 245 -8 rmoveto
          29 37 6 8 23 -18 callsubr
          -4 -20 -30 -4 -24 hhcurveto
          -79 -17 20 154 -4 hvcurveto
          140 52 -140 101 140 52 -140 hlineto
          152 4 17 19 79 hhcurveto
          21 29 -4 -4 22 -18 callsubr
          8 -18 -37 6 -32 hhcurveto
          -127 -34 -49 -199 -7 hvcurveto
          -48 -52 46 -101 -46 -52 47 hlineto
          -204 7 33 -47 129 hhcurveto
          endchar
        </CharString>
        <CharString name="F">
          -4 52 hmoveto
          86 295 149 77 -149 239 168 77 -254 hlineto
          endchar
        </CharString>
        <CharString name="G">
          71 283 299 -95 callsubr
          endchar
        </CharString>
        <CharString name="G.ss01">
          82 217 -8 -94 callgsubr
          endchar
        </CharString>
        <CharString name="G_tilde.loclGUA">
          71 326 888 rmoveto
          -107 callsubr
          -43 -589 -95 callsubr
          endchar
        </CharString>
        <CharString name="Gbreve">
          71 306 -73 callsubr
          -23 -589 -95 callsubr
          endchar
        </CharString>
        <CharString name="Gbreve.ss01">
          82 312 -73 callsubr
          -95 -896 -94 callgsubr
          endchar
        </CharString>
        <CharString name="Gcaron">
          71 157 756 -97 callgsubr
          193 -582 -95 callsubr
          endchar
        </CharString>
        <CharString name="Gcaron.ss01">
          82 163 756 -97 callgsubr
          121 -889 -94 callgsubr
          endchar
        </CharString>
        <CharString name="Gcircumflex">
          71 90 756 -106 callgsubr
          193 -464 -95 callsubr
          endchar
        </CharString>
        <CharString name="Gcircumflex.ss01">
          82 96 756 -106 callgsubr
          121 -771 -94 callgsubr
          endchar
        </CharString>
        <CharString name="Gcommaaccent">
          71 283 299 -95 callsubr
          -59 -514 -86 callsubr
        </CharString>
        <CharString name="Gcommaaccent.ss01">
          82 217 -8 -94 callgsubr
          -60 -207 -86 callsubr
        </CharString>
        <CharString name="Gdotaccent">
          71 162 -33 callgsubr
          121 -576 -95 callsubr
          endchar
        </CharString>
        <CharString name="Gdotaccent.ss01">
          82 168 -33 callgsubr
          49 -883 -94 callgsubr
          endchar
        </CharString>
        <CharString name="Gtilde.loclGUA.ss01">
          82 332 888 rmoveto
          -107 callsubr
          -115 -896 -94 callgsubr
          endchar
        </CharString>
        <CharString name="H">
          105 298 hmoveto
          -33 callsubr
          endchar
        </CharString>
        <CharString name="Hbar">
          105 298 688 rmoveto
          -124 -161 124 -85 -688 85 279 161 -279 84 688 vlineto
          -245 -329 rmoveto
          126 161 -126 vlineto
          endchar
        </CharString>
        <CharString name="Hcircumflex">
          105 107 756 -106 callgsubr
          191 -763 rmoveto
          -33 callsubr
          endchar
        </CharString>
        <CharString name="I">
          -134 55 hmoveto
          -46 callsubr
        </CharString>
        <CharString name="IJ">
          82 55 hmoveto
          85 688 -85 hlineto
          149 -614 -70 callgsubr
        </CharString>
        <CharString name="Iacute">
          -134 57 750 -100 callgsubr
          -2 -755 -43 callgsubr
        </CharString>
        <CharString name="Iacute_J.loclNLD">
          82 67 746 -100 callgsubr
          224 -5 -100 callgsubr
          -236 -751 rmoveto
          85 688 -85 hlineto
          149 -614 -70 callgsubr
        </CharString>
        <CharString name="Ibreve">
          -134 204 -73 callsubr
          -149 22 callsubr
        </CharString>
        <CharString name="Icircumflex">
          -134 -12 -65 callsubr
          67 -757 -43 callgsubr
        </CharString>
        <CharString name="Idieresis">
          -134 -23 773 -88 callgsubr
          -89 -855 -43 callgsubr
        </CharString>
        <CharString name="Idotaccent">
          -134 60 -33 callgsubr
          -5 -875 -43 callgsubr
        </CharString>
        <CharString name="Igrave">
          -134 77 750 -89 callsubr
          31 -887 -43 callgsubr
        </CharString>
        <CharString name="Imacron">
          -134 13 813 -66 callsubr
          42 22 callsubr
        </CharString>
        <CharString name="Iogonek">
          -134 106 -196 rmoveto
          13 11 1 2 11 hvcurveto
          -29 callsubr
          37 32 46 22 20 hvcurveto
          688 -85 -688 24 vlineto
          -34 -33 -24 -45 -38 vvcurveto
          -44 22 -36 63 vhcurveto
          endchar
        </CharString>
        <CharString name="Itilde">
          -134 224 888 rmoveto
          -107 callsubr
          -169 22 callsubr
        </CharString>
        <CharString name="J">
          -114 8 74 -70 callgsubr
        </CharString>
        <CharString name="Jcircumflex">
          -114 16 756 -106 callgsubr
          -8 -689 -70 callgsubr
        </CharString>
        <CharString name="K">
          -31 callsubr
          endchar
        </CharString>
        <CharString name="Kcommaaccent">
          -31 callsubr
          -42 -524 -86 callsubr
        </CharString>
        <CharString name="L">
          -23 52 hmoveto
          -40 callgsubr
          endchar
        </CharString>
        <CharString name="Lacute">
          -23 64 746 -100 callgsubr
          -12 -751 rmoveto
          -40 callgsubr
          endchar
        </CharString>
        <CharString name="Lcaron">
          -23 52 hmoveto
          -40 callgsubr
          148 -248 -34 callsubr
          endchar
        </CharString>
        <CharString name="Lcommaaccent">
          -23 52 hmoveto
          -40 callgsubr
          60 -903 -86 callsubr
        </CharString>
        <CharString name="Ldot">
          0 52 hmoveto
          -40 callgsubr
          173 -370 -80 callsubr
        </CharString>
        <CharString name="Lslash">
          -23 138 79 rmoveto
          226 vlineto
          107 39 rlineto
          74 vlineto
          -107 -40 rlineto
          310 -86 -342 vlineto
          -40 -15 rlineto
          -73 vlineto
          40 15 rlineto
          -273 248 79 vlineto
          endchar
        </CharString>
        <CharString name="M">
          251 446 hmoveto
          82 688 -126 hlineto
          -107 -553 rlineto
          -6 hlineto
          -107 553 rlineto
          -130 -688 81 558 6 hlineto
          106 -558 rlineto
          88 hlineto
          108 558 rlineto
          5 hlineto
          endchar
        </CharString>
        <CharString name="N">
          107 305 hmoveto
          -78 callsubr
          endchar
        </CharString>
        <CharString name="Nacute">
          107 188 746 -100 callgsubr
          117 -751 rmoveto
          -78 callsubr
          endchar
        </CharString>
        <CharString name="Nacute.loclPLK">
          107 188 746 rmoveto
          -71 callsubr
          117 -751 rmoveto
          -78 callsubr
          endchar
        </CharString>
        <CharString name="Ncaron">
          107 176 756 -97 callgsubr
          196 -881 rmoveto
          -78 callsubr
          endchar
        </CharString>
        <CharString name="Ncommaaccent">
          107 305 hmoveto
          -78 callsubr
          33 -690 -86 callsubr
        </CharString>
        <CharString name="Ntilde">
          107 345 873 rmoveto
          -107 callsubr
          -40 -873 rmoveto
          -78 callsubr
          endchar
        </CharString>
        <CharString name="O">
          95 212 -8 -104 callsubr
          endchar
        </CharString>
        <CharString name="OE">
          269 212 hmoveto
          359 77 -170 hlineto
          -19 -22 -2 -2 -11 hvcurveto
          29 37 6 73 1 126 rrcurveto
          163 77 -163 hlineto
          -2 121 -6 71 -28 37 rrcurveto
          -2 12 23 -2 17 hhcurveto
          170 77 -359 hlineto
          -162 -11 -63 -281 -280 11 -64 162 -10 callsubr
          -77 -11 10 257 257 11 10 77 77 -45 callgsubr
          -77 hvcurveto
          endchar
        </CharString>
        <CharString name="Oacute">
          95 176 750 -100 callgsubr
          36 -763 -104 callsubr
          endchar
        </CharString>
        <CharString name="Oacute.loclPLK">
          95 181 746 rmoveto
          -71 callsubr
          31 -759 -104 callsubr
          endchar
        </CharString>
        <CharString name="Obreve">
          95 318 -73 callsubr
          -106 -896 -104 callsubr
          endchar
        </CharString>
        <CharString name="Ocircumflex">
          95 102 -65 callsubr
          110 -765 -104 callsubr
          endchar
        </CharString>
        <CharString name="Odieresis">
          95 91 773 -88 callgsubr
          -46 -863 -104 callsubr
          endchar
        </CharString>
        <CharString name="Ograve">
          95 184 750 -89 callsubr
          81 -895 -104 callsubr
          endchar
        </CharString>
        <CharString name="Ohorn">
          95 362 782 -91 callgsubr
        </CharString>
        <CharString name="Ohungarumlaut">
          95 134 756 -79 callgsubr
          -36 -769 -104 callsubr
          endchar
        </CharString>
        <CharString name="Omacron">
          95 127 813 -66 callsubr
          85 -896 -104 callsubr
          endchar
        </CharString>
        <CharString name="Oslash">
          95 385 743 -62 callsubr
        </CharString>
        <CharString name="Oslash.bold">
          95 385 743 rmoveto
          -73 hlineto
          -19 -56 rlineto
          6 -22 -26 3 -33 19 callgsubr
          -159 3 -91 31 -49 hvcurveto
          -34 -100 rlineto
          74 hlineto
          19 56 rlineto
          -6 21 27 -3 32 hhcurveto
          163 10 65 287 160 -3 90 -31 50 hvcurveto
          -227 -300 rmoveto
          265 11 10 77 24 18 0 -8 13 vhcurveto
          -141 -413 rlineto
          -2 37 0 48 61 vvcurveto
          176 hmoveto
          -265 -27 callsubr
          -24 -17 0 8 -13 vhcurveto
          141 412 rlineto
          1 -37 0 -47 -61 vvcurveto
          endchar
        </CharString>
        <CharString name="Oslashacute">
          95 281 883 -67 callsubr
          157 -3 -62 callsubr
        </CharString>
        <CharString name="Otilde">
          95 339 873 rmoveto
          -107 callsubr
          -127 -881 -104 callsubr
          endchar
        </CharString>
        <CharString name="P">
          60 52 hmoveto
          85 246 8 callsubr
          -170 hlineto
          85 -365 rmoveto
          288 73 vlineto
          69 6 -40 -104 -104 -6 -40 -69 hvcurveto
          endchar
        </CharString>
        <CharString name="Q">
          95 322 -115 rmoveto
          88 3 hlineto
          -74 139 rlineto
          44 45 5 92 180 vvcurveto
          287 -10 65 -163 -162 -11 -65 -287 -287 11 -65 162 21 18 1 4 14 vhcurveto
          -53 72 -55 callsubr
        </CharString>
        <CharString name="Q.bold">
          95 337 28 rmoveto
          43 44 5 93 179 vvcurveto
          287 -10 65 -163 -162 -11 -65 -287 -287 11 -65 162 20 18 1 3 16 vhcurveto
          56 -111 rlineto
          87 4 hlineto
          -197 180 rmoveto
          -77 -11 10 265 265 11 10 77 77 11 -10 -265 -119 -2 -67 -9 -39 hvcurveto
          -51 99 5 callsubr
          75 -149 rlineto
          endchar
        </CharString>
        <CharString name="R">
          83 387 hmoveto
          -83 callsubr
        </CharString>
        <CharString name="R.ss01">
          -58 callsubr
          endchar
        </CharString>
        <CharString name="Racute">
          83 292 883 -67 callsubr
          148 -746 rmoveto
          -83 callsubr
        </CharString>
        <CharString name="Racute.ss01">
          84 292 883 -67 callsubr
          129 -573 -94 callsubr
          endchar
        </CharString>
        <CharString name="Rcaron">
          83 -15 callgsubr
          223 -756 rmoveto
          -83 callsubr
        </CharString>
        <CharString name="Rcaron.ss01">
          84 -15 callgsubr
          204 -583 -94 callsubr
          endchar
        </CharString>
        <CharString name="Rcommaaccent">
          -49 callsubr
          -43 -484 -3 callsubr
        </CharString>
        <CharString name="Rcommaaccent.ss01">
          -58 callsubr
          -44 -488 -3 callsubr
        </CharString>
        <CharString name="S">
          -68 callsubr
          endchar
        </CharString>
        <CharString name="Sacute">
          33 151 746 -100 callgsubr
          27 -759 -100 callsubr
          endchar
        </CharString>
        <CharString name="Sacute.loclPLK">
          33 151 746 rmoveto
          -71 callsubr
          27 -759 -100 callsubr
          endchar
        </CharString>
        <CharString name="Scaron">
          33 141 750 -97 callgsubr
          104 -883 -100 callsubr
          endchar
        </CharString>
        <CharString name="Scedilla">
          33 336 202 rmoveto
          55 -2 35 -8 22 vhcurveto
          -16 50 -32 11 -38 8 -81 17 rcurveline
          -40 9 -6 11 83 vvcurveto
          39 2 29 14 20 vhcurveto
          19 12 25 9 48 hhcurveto
          41 42 -5 -4 17 -18 callsubr
          5 -13 -50 10 -60 hhcurveto
          -112 -51 -48 -146 -99 7 -62 60 -12 hvcurveto
          91 -19 rlineto
          62 -12 3 -9 -101 vvcurveto
          -46 -2 -34 -16 -17 vhcurveto
          -17 -17 -23 -5 -39 hhcurveto
          -28 -48 5 5 -39 hvcurveto
          -72 vlineto
          30 -7 43 -6 39 -1 -54 -177 rcurveline
          19 callsubr
          97 9 32 56 144 vvcurveto
          endchar
        </CharString>
        <CharString name="Scircumflex">
          33 72 756 -106 callgsubr
          106 -771 -100 callsubr
          endchar
        </CharString>
        <CharString name="Scommaaccent">
          -68 callsubr
          -45 -207 -86 callsubr
        </CharString>
        <CharString name="T">
          11 128 hmoveto
          -29 callgsubr
          endchar
        </CharString>
        <CharString name="Tbar">
          11 331 609 rmoveto
          79 -320 -79 117 -224 -89 -69 89 -316 85 316 90 69 -90 224 vlineto
          endchar
        </CharString>
        <CharString name="Tcaron">
          11 128 756 -97 callgsubr
          67 -881 rmoveto
          -29 callgsubr
          endchar
        </CharString>
        <CharString name="Thorn">
          60 52 hmoveto
          85 130 8 callsubr
          -85 116 -85 hlineto
          85 -481 rmoveto
          288 73 vlineto
          69 6 -39 -105 -104 -6 -40 -69 hvcurveto
          endchar
        </CharString>
        <CharString name="U">
          95 293 688 rmoveto
          -428 vlineto
          -101 callsubr
          389 vlineto
          endchar
        </CharString>
        <CharString name="Uacute">
          95 180 750 -100 callgsubr
          113 -67 rmoveto
          -428 vlineto
          -101 callsubr
          389 vlineto
          endchar
        </CharString>
        <CharString name="Ubreve">
          95 319 -73 callsubr
          -26 -200 rmoveto
          -428 vlineto
          -101 callsubr
          389 vlineto
          endchar
        </CharString>
        <CharString name="Ucircumflex">
          95 102 -65 callsubr
          191 -69 rmoveto
          -428 vlineto
          -101 callsubr
          389 vlineto
          endchar
        </CharString>
        <CharString name="Udieresis">
          95 92 773 -34 callgsubr
          -167 rmoveto
          -428 vlineto
          -101 callsubr
          389 vlineto
          endchar
        </CharString>
        <CharString name="Ugrave">
          95 188 750 -89 callsubr
          158 -199 rmoveto
          -428 vlineto
          -101 callsubr
          389 vlineto
          endchar
        </CharString>
        <CharString name="Uhorn">
          95 390 782 rmoveto
          -38 vlineto
          -40 -5 -16 -42 vhcurveto
          -50 -428 hlineto
          -101 callsubr
          348 vlineto
          -55 callgsubr
          endchar
        </CharString>
        <CharString name="Uhungarumlaut">
          95 135 756 -79 callgsubr
          44 -73 rmoveto
          -428 vlineto
          -101 callsubr
          389 vlineto
          endchar
        </CharString>
        <CharString name="Umacron">
          95 128 813 -66 callsubr
          165 -200 rmoveto
          -428 vlineto
          -101 callsubr
          389 vlineto
          endchar
        </CharString>
        <CharString name="Uogonek">
          95 293 688 rmoveto
          -428 vlineto
          -163 -4 -28 -76 -76 -4 28 163 vhcurveto
          428 -85 -389 vlineto
          -238 8 -69 157 9 8 0 1 9 vhcurveto
          -29 -34 -18 -40 -35 vvcurveto
          -44 22 -36 62 14 11 1 2 11 vhcurveto
          -23 callsubr
          -3 hhcurveto
          -33 -9 19 23 48 30 46 37 26 hvcurveto
          50 37 4 83 162 vvcurveto
          389 vlineto
          endchar
        </CharString>
        <CharString name="Uring">
          95 212 731 -89 callgsubr
          81 -90 rmoveto
          -428 vlineto
          -101 callsubr
          389 vlineto
          endchar
        </CharString>
        <CharString name="Utilde">
          95 339 888 rmoveto
          -107 callsubr
          -46 -200 rmoveto
          -428 vlineto
          -101 callsubr
          389 vlineto
          endchar
        </CharString>
        <CharString name="V">
          55 132 hmoveto
          121 hlineto
          125 688 rlineto
          -83 hlineto
          -97 -583 rlineto
          -7 hlineto
          -98 583 -1 callgsubr
          endchar
        </CharString>
        <CharString name="W">
          269 381 hmoveto
          -80 callgsubr
        </CharString>
        <CharString name="Wacute">
          269 269 746 -100 callgsubr
          112 -751 rmoveto
          -80 callgsubr
        </CharString>
        <CharString name="Wcircumflex">
          269 190 756 -106 callgsubr
          191 -763 rmoveto
          -80 callgsubr
        </CharString>
        <CharString name="Wdieresis">
          269 179 793 -88 callgsubr
          35 -875 rmoveto
          -80 callgsubr
        </CharString>
        <CharString name="Wgrave">
          269 270 746 -89 callsubr
          164 -883 rmoveto
          -80 callgsubr
        </CharString>
        <CharString name="X">
          76 305 hmoveto
          89 hlineto
          -131 349 129 339 rlineto
          -87 hlineto
          -98 -273 rlineto
          -6 hlineto
          -98 273 rlineto
          -89 hlineto
          129 -342 -131 -346 rlineto
          87 hlineto
          100 280 rlineto
          6 hlineto
          endchar
        </CharString>
        <CharString name="Y">
          35 140 hmoveto
          -83 callgsubr
          endchar
        </CharString>
        <CharString name="Y.loclGUA">
          36 263 688 -93 callgsubr
          endchar
        </CharString>
        <CharString name="Yacute">
          35 153 750 -100 callgsubr
          -13 -755 -74 callgsubr
        </CharString>
        <CharString name="Yacute.loclGUA">
          36 268 883 -67 callsubr
          48 -58 -93 callgsubr
          endchar
        </CharString>
        <CharString name="Ycircumflex">
          35 73 756 -106 callgsubr
          67 -763 -74 callgsubr
        </CharString>
        <CharString name="Ycircumflex.loclGUA">
          36 183 843 -69 callsubr
          133 -68 -93 callgsubr
          endchar
        </CharString>
        <CharString name="Ydieresis">
          35 64 773 -88 callgsubr
          -91 -855 -74 callgsubr
        </CharString>
        <CharString name="Ydieresis.loclGUA">
          36 137 875 -14 callgsubr
          -41 -105 -93 callgsubr
          endchar
        </CharString>
        <CharString name="Ygrave">
          35 153 746 -89 callsubr
          40 -883 -74 callgsubr
        </CharString>
        <CharString name="Ygrave.loclGUA">
          36 216 746 -64 callgsubr
          110 -58 -93 callgsubr
          endchar
        </CharString>
        <CharString name="Z">
          19 22 hmoveto
          -77 callsubr
          endchar
        </CharString>
        <CharString name="Zacute">
          19 144 746 -100 callgsubr
          -122 -751 rmoveto
          -77 callsubr
          endchar
        </CharString>
        <CharString name="Zacute.loclPLK">
          19 144 746 rmoveto
          -71 callsubr
          -122 -751 rmoveto
          -77 callsubr
          endchar
        </CharString>
        <CharString name="Zcaron">
          19 138 750 -97 callgsubr
          -49 -875 rmoveto
          -77 callsubr
          endchar
        </CharString>
        <CharString name="Zdotaccent">
          19 137 -33 callgsubr
          -115 -875 rmoveto
          -77 callsubr
          endchar
        </CharString>
        <CharString name="a">
          35 138 -8 -107 callgsubr
          endchar
        </CharString>
        <CharString name="aacute">
          35 148 -81 callsubr
          -10 -614 -107 callgsubr
          endchar
        </CharString>
        <CharString name="abreve">
          35 289 -70 callsubr
          -151 -751 -107 callgsubr
          endchar
        </CharString>
        <CharString name="acircumflex">
          35 74 611 -106 callgsubr
          64 -626 -107 callgsubr
          endchar
        </CharString>
        <CharString name="acute">
          -214 601 vmoveto
          -99 callsubr
          endchar
        </CharString>
        <CharString name="acute.case.loclPLK">
          -214 746 vmoveto
          -71 callsubr
          endchar
        </CharString>
        <CharString name="acute.loclPLK">
          -214 601 vmoveto
          -71 callsubr
          endchar
        </CharString>
        <CharString name="acutecomb">
          -116 -81 callsubr
          endchar
        </CharString>
        <CharString name="acutecomb.case">
          -116 746 -100 callgsubr
          endchar
        </CharString>
        <CharString name="adieresis">
          35 63 648 -88 callgsubr
          -92 -738 -107 callgsubr
          endchar
        </CharString>
        <CharString name="ae">
          242 537 257 -75 callgsubr
        </CharString>
        <CharString name="aeacute">
          242 368 738 -67 callsubr
          222 -344 -75 callgsubr
        </CharString>
        <CharString name="agrave">
          35 156 601 -89 callsubr
          35 -746 -107 callgsubr
          endchar
        </CharString>
        <CharString name="amacron">
          35 98 668 -66 callsubr
          40 -751 -107 callgsubr
          endchar
        </CharString>
        <CharString name="ampersand">
          114 285 384 rmoveto
          -318 vlineto
          -2 -18 -18 -1 -16 hhcurveto
          -83 -31 15 108 88 11 39 68 hvcurveto
          38 71 -38 hlineto
          -67 -6 54 65 96 14 27 113 31 47 -5 -7 34 hvcurveto
          66 vlineto
          9 -40 -59 7 -40 hhcurveto
          -135 -46 -52 -127 -101 26 -45 53 -18 hvcurveto
          -4 vlineto
          -55 -17 -29 -36 -114 vvcurveto
          -132 38 -58 143 45 61 7 10 39 vhcurveto
          304 68 71 vlineto
          endchar
        </CharString>
        <CharString name="aogonek">
          35 308 -145 rmoveto
          -31 -10 19 21 41 32 45 21 19 hvcurveto
          322 vlineto
          153 -31 43 -118 -52 -46 -7 -5 -28 vhcurveto
          -66 vlineto
          3 17 49 6 37 hhcurveto
          81 11 -13 -111 hvcurveto
          -36 vlineto
          2 -28 -47 2 -25 hhcurveto
          -89 -27 -37 -113 -113 30 -38 84 40 45 13 63 14 hvcurveto
          6 hlineto
          4 -68 rlineto
          13 hlineto
          -33 -33 -24 -43 -42 vvcurveto
          -41 22 -37 -13 callgsubr
          -4 hhcurveto
          -68 345 rmoveto
          -41 -2 -27 -7 -27 vhcurveto
          -37 -11 -28 -4 -29 hhcurveto
          -52 -10 19 65 74 13 13 46 hvcurveto
          80 hlineto
          endchar
        </CharString>
        <CharString name="approxequal">
          94 55 274 rmoveto
          52 hlineto
          36 16 callgsubr
          -11 31 hhcurveto
          67 6 36 76 hvcurveto
          -52 hlineto
          -36 -3 -13 -24 -19 -23 9 8 -24 vhcurveto
          10 -30 -33 11 -32 hhcurveto
          -67 -6 -36 -76 hvcurveto
          -165 vmoveto
          52 hlineto
          35 16 callgsubr
          -10 31 hhcurveto
          67 6 36 75 hvcurveto
          -52 hlineto
          -35 -3 -14 -24 -19 -23 10 7 -24 vhcurveto
          10 -30 -33 12 -32 hhcurveto
          -67 -6 -36 -76 hvcurveto
          endchar
        </CharString>
        <CharString name="aring">
          35 182 605 -89 callgsubr
          -44 -660 -107 callgsubr
          endchar
        </CharString>
        <CharString name="aringacute">
          35 150 839 -100 callgsubr
          32 -228 -89 callgsubr
          -44 -671 -107 callgsubr
          endchar
        </CharString>
        <CharString name="arrowboth">
          553 323 179 rmoveto
          -37 90 rlineto
          310 hlineto
          -36 -90 17 callsubr
          -310 hlineto
          37 90 -268 -126 rlineto
          endchar
        </CharString>
        <CharString name="arrowdown">
          65 198 -85 rmoveto
          125 268 -89 -37 rlineto
          542 -71 -542 vlineto
          -91 37 rlineto
          endchar
        </CharString>
        <CharString name="arrowdown.ss01">
          15 173 171 rmoveto
          142 285 rlineto
          -285 hlineto
          endchar
        </CharString>
        <CharString name="arrowleft">
          553 280 269 rmoveto
          548 71 -548 hlineto
          37 90 -262 -126 262 -125 rlineto
          endchar
        </CharString>
        <CharString name="arrowleft.ss01">
          33 315 201 rmoveto
          285 vlineto
          -285 -143 rlineto
          endchar
        </CharString>
        <CharString name="arrowright">
          553 560 179 rmoveto
          17 callsubr
          -541 -71 541 hlineto
          endchar
        </CharString>
        <CharString name="arrowright.ss01">
          33 48 201 rmoveto
          285 142 -285 143 rlineto
          endchar
        </CharString>
        <CharString name="arrowup">
          65 163 -81 rmoveto
          71 540 hlineto
          89 -36 -125 268 -126 -268 91 36 rlineto
          endchar
        </CharString>
        <CharString name="arrowup.ss01">
          15 30 231 rmoveto
          285 hlineto
          -142 285 rlineto
          endchar
        </CharString>
        <CharString name="arrowupdn">
          -32 callsubr
          endchar
        </CharString>
        <CharString name="arrowupdnbse">
          -32 callsubr
          -17 -369 rmoveto
          285 61 -285 hlineto
          endchar
        </CharString>
        <CharString name="asciicircum">
          55 277 490 rmoveto
          74 hlineto
          -120 260 rlineto
          -78 hlineto
          -119 -260 rlineto
          74 hlineto
          84 195 rlineto
          endchar
        </CharString>
        <CharString name="asciitilde">
          94 368 364 rmoveto
          -52 hlineto
          -35 -3 -14 -24 -19 -23 9 7 -23 vhcurveto
          10 -31 -33 12 -32 hhcurveto
          -67 -6 -36 -75 hvcurveto
          52 hlineto
          35 4 14 24 19 23 -9 -9 24 vhcurveto
          -10 31 32 -10 31 hhcurveto
          67 6 36 75 hvcurveto
          endchar
        </CharString>
        <CharString name="asterisk">
          58 214 497 rmoveto
          102 -67 28 49 -109 54 108 53 -27 50 -102 -68 9 120 rlineto
          -57 hlineto
          8 -120 -101 67 -29 -49 109 -54 -108 -53 28 -50 101 68 -8 -119 rlineto
          57 hlineto
          endchar
        </CharString>
        <CharString name="asterisk.ss02">
          487 178 -14 rmoveto
          231 170 231 -170 -90 276 232 174 rlineto
          -288 hlineto
          -85 269 -87 -269 rlineto
          -287 hlineto
          234 -174 rlineto
          endchar
        </CharString>
        <CharString name="at">
          252 293 -108 rmoveto
          79 16 0 2 21 hvcurveto
          45 vlineto
          -2 -18 -38 -1 -60 hhcurveto
          -30 -24 1 1 -17 hvcurveto
          -122 10 -3 56 290 vvcurveto
          291 2 56 111 9 vhcurveto
          2 28 25 0 29 hhcurveto
          38 30 0 -4 27 hvcurveto
          99 -14 1 -65 -275 vvcurveto
          -173 -8 -2 -29 vhcurveto
          -41 232 hlineto
          127 -21 40 -95 -36 -36 -4 -6 -29 vhcurveto
          -60 vlineto
          5 26 31 3 23 hhcurveto
          60 8 -11 -92 hvcurveto
          -30 vlineto
          2 -30 -33 2 -12 hhcurveto
          -70 -21 -34 -96 -96 24 -33 65 30 34 12 51 10 hvcurveto
          5 hlineto
          4 -56 rlineto
          99 hlineto
          65 24 5 214 354 -5 48 -236 -237 -5 -49 -353 -353 5 -49 237 hvcurveto
          -10 241 rmoveto
          -36 -6 14 55 62 8 10 33 hvcurveto
          58 -29 hlineto
          -90 -13 -22 -44 vhcurveto
          endchar
        </CharString>
        <CharString name="atilde">
          35 309 743 rmoveto
          -107 callsubr
          -171 -751 -107 callgsubr
          endchar
        </CharString>
        <CharString name="b">
          58 229 -8 rmoveto
          99 25 50 213 207 -22 56 -101 -53 -31 -21 -47 -12 hvcurveto
          -6 293 -80 -743 73 hlineto
          4 67 rlineto
          6 hlineto
          -63 14 43 -12 41 hhcurveto
          -29 73 rmoveto
          -37 -20 13 42 -8 hvcurveto
          -7 34 0 41 60 vvcurveto
          64 1 41 7 33 vhcurveto
          38 8 20 15 36 hhcurveto
          64 9 -18 -173 -173 -9 -17 -64 hvcurveto
          endchar
        </CharString>
        <CharString name="backslash">
          -62 169 -55 rmoveto
          74 hlineto
          -145 798 rlineto
          -73 hlineto
          endchar
        </CharString>
        <CharString name="bar">
          -126 64 -161 rmoveto
          76 904 -76 hlineto
          endchar
        </CharString>
        <CharString name="bar.ss02">
          168 -1 hmoveto
          500 696 -500 hlineto
          endchar
        </CharString>
        <CharString name="braceleft">
          -79 177 -150 rmoveto
          57 hlineto
          -45 49 -21 54 79 vvcurveto
          115 vlineto
          76 -21 54 -55 17 vhcurveto
          5 vlineto
          55 17 21 54 76 vvcurveto
          115 vlineto
          79 21 54 45 49 vhcurveto
          -57 hlineto
          -52 -32 -37 -75 -74 vvcurveto
          -122 vlineto
          -59 -14 -58 -54 -5 vhcurveto
          -43 vlineto
          55 -5 13 -58 -59 vvcurveto
          -122 vlineto
          -74 37 -75 52 -32 vhcurveto
          endchar
        </CharString>
        <CharString name="braceright">
          -79 17 -150 rmoveto
          58 hlineto
          51 32 37 75 74 vvcurveto
          122 vlineto
          59 14 58 54 5 vhcurveto
          43 vlineto
          -54 5 -14 58 59 vvcurveto
          122 vlineto
          74 -37 75 -51 32 vhcurveto
          -58 hlineto
          46 -49 21 -54 -79 vvcurveto
          -115 vlineto
          -76 21 -54 54 -17 vhcurveto
          -5 vlineto
          -54 -17 -21 -54 -76 vvcurveto
          -115 vlineto
          -79 -21 -54 -46 -49 vhcurveto
          endchar
        </CharString>
        <CharString name="bracketleft">
          -100 53 -150 rmoveto
          153 57 hlineto
          -73 4 rlineto
          771 vlineto
          73 4 rlineto
          57 -153 vlineto
          endchar
        </CharString>
        <CharString name="bracketleft.ss02">
          67 397 hmoveto
          696 vlineto
          -207 -145 -143 -205 hvcurveto
          -348 vlineto
          endchar
        </CharString>
        <CharString name="bracketright">
          -100 25 -150 rmoveto
          152 893 -152 -57 hlineto
          72 -4 rlineto
          -771 vlineto
          -72 -4 rlineto
          endchar
        </CharString>
        <CharString name="bracketright.ss02">
          67 0 vmoveto
          352 348 hlineto
          13 callsubr
          vhcurveto
          endchar
        </CharString>
        <CharString name="breve">
          -116 214 -70 callsubr
          endchar
        </CharString>
        <CharString name="brokenbar">
          -126 64 390 rmoveto
          76 353 -76 hlineto
          -904 vmoveto
          76 353 -76 hlineto
          endchar
        </CharString>
        <CharString name="bullet">
          -74 213 342 rmoveto
          74 -4 12 -83 -78 -4 -12 -74 -71 4 -12 78 83 4 12 71 vhcurveto
          endchar
        </CharString>
        <CharString name="bullet.ss02">
          453 392 421 rmoveto
          62 50 39 73 90 -76 73 -36 -37 -76 -73 -90 -73 50 -39 63 hvcurveto
          60 vmoveto
          -30 -23 18 34 57 36 46 17 17 35 -46 -57 -34 -23 -18 -29 hvcurveto
          -189 -250 rmoveto
          73 39 50 63 62 -39 50 -73 -90 -73 -76 -36 -37 73 -76 90 hvcurveto
          378 hmoveto
          89 73 76 37 36 -73 76 -89 -74 -39 -50 -62 -63 39 -50 74 hvcurveto
          -378 60 rmoveto
          -57 -46 36 17 17 46 35 57 34 18 -23 -29 -30 -18 -23 -34 hvcurveto
          378 hmoveto
          -35 -18 23 30 29 18 23 35 56 46 -35 -17 -17 -46 -36 -56 hvcurveto
          -189 -299 rmoveto
          36 76 73 90 73 -50 39 -62 -63 -50 -39 -73 -90 76 -73 37 hvcurveto
          60 vmoveto
          -17 -36 46 57 34 23 18 30 29 23 -18 -34 -57 -35 -46 -17 hvcurveto
          endchar
        </CharString>
        <CharString name="c">
          -33 273 5 -87 callgsubr
        </CharString>
        <CharString name="cacute">
          -33 114 -81 callsubr
          159 -601 -87 callgsubr
        </CharString>
        <CharString name="cacute.loclPLK">
          -33 114 601 rmoveto
          -71 callsubr
          159 -601 -87 callgsubr
        </CharString>
        <CharString name="caron">
          -110 67 611 -97 callgsubr
          endchar
        </CharString>
        <CharString name="caron.loclCSY">
          -171 26 440 -34 callsubr
          endchar
        </CharString>
        <CharString name="ccaron">
          -33 106 611 -97 callgsubr
          234 -731 -87 callgsubr
        </CharString>
        <CharString name="ccedilla">
          -33 201 61 rmoveto
          -74 -11 23 172 165 11 28 72 22 28 -4 -4 21 hvcurveto
          66 vlineto
          6 -23 -36 5 -32 hhcurveto
          -117 -26 -62 -202 -151 10 -80 74 -23 hvcurveto
          -56 -184 rlineto
          -5 73 vlineto
          37 181 rlineto
          6 hlineto
          31 35 5 8 27 hvcurveto
          65 vlineto
          -5 -20 -29 -4 -23 hhcurveto
          endchar
        </CharString>
        <CharString name="ccircumflex">
          -33 39 611 -106 callgsubr
          234 -613 -87 callgsubr
        </CharString>
        <CharString name="cdotaccent">
          -33 111 -28 callgsubr
          162 -725 -87 callgsubr
        </CharString>
        <CharString name="cedilla">
          -196 11 2 callgsubr
        </CharString>
        <CharString name="cent">
          -9 158 -8 rmoveto
          63 76 hlineto
          22 2 25 5 17 6 rrcurveto
          68 vlineto
          -5 -21 -35 -5 -19 hhcurveto
          -79 -9 31 173 172 10 30 78 25 20 -2 -6 28 hvcurveto
          69 vlineto
          -16 5 -25 4 -21 2 rrcurveto
          79 -63 -81 vlineto
          -95 -12 -23 -68 -193 vvcurveto
          -177 13 -82 105 -14 vhcurveto
          endchar
        </CharString>
        <CharString name="cent.bold">
          -9 285 149 rmoveto
          -23 -5 -18 -4 -23 -1 rrcurveto
          406 vlineto
          18 -1 21 -2 23 -5 rrcurveto
          69 vlineto
          -18 5 -21 4 -23 2 rrcurveto
          79 -63 -80 vlineto
          -97 -12 -21 -74 -188 vvcurveto
          -173 13 -89 105 -12 vhcurveto
          -76 63 76 vlineto
          24 2 17 4 23 7 rrcurveto
          -163 262 rmoveto
          124 6 50 30 18 vhcurveto
          -387 vlineto
          -30 19 -6 50 126 vvcurveto
          endchar
        </CharString>
        <CharString name="circumflex">
          -110 611 vmoveto
          57 hlineto
          53 87 53 -87 rlineto
          57 7 hlineto
          -67 125 -1 callgsubr
          -67 -125 rlineto
          endchar
        </CharString>
        <CharString name="colon">
          21 callsubr
          -510 vmoveto
          -12 callgsubr
          endchar
        </CharString>
        <CharString name="comma">
          -140 36 -87 -8 callsubr
        </CharString>
        <CharString name="copyright">
          172 251 -8 rmoveto
          17 callgsubr
          16 callsubr
          hvcurveto
          36 -19 callgsubr
          15 127 rmoveto
          16 19 3 4 13 hvcurveto
          45 vlineto
          -3 -10 -16 -1 -13 hhcurveto
          -45 -3 13 128 128 3 13 45 11 16 -1 -3 11 hvcurveto
          45 vlineto
          4 -9 -20 3 -18 hhcurveto
          -78 -12 -35 -154 -155 11 -34 79 hvcurveto
          endchar
        </CharString>
        <CharString name="currency">
          175 87 3 rmoveto
          84 84 rlineto
          -9 20 26 -4 35 hhcurveto
          36 26 4 10 20 hvcurveto
          85 -85 50 50 -84 85 rlineto
          18 40 3 64 105 vvcurveto
          102 -3 63 -19 39 vhcurveto
          85 85 -49 51 -86 -86 rlineto
          10 -20 -26 4 -36 hhcurveto
          -35 -26 -4 -9 -19 hvcurveto
          -86 85 -50 -50 84 -85 rlineto
          -18 -39 -4 -64 -102 vvcurveto
          -106 4 -65 18 -39 vhcurveto
          -84 -84 rlineto
          216 90 rmoveto
          -70 -4 24 180 175 4 24 70 70 4 -24 -175 -180 -4 -24 -70 hvcurveto
          endchar
        </CharString>
        <CharString name="d">
          58 -77 callgsubr
          29 73 -72 callsubr
          endchar
        </CharString>
        <CharString name="dagger">
          -23 122 hmoveto
          59 hlineto
          7 443 -16 callgsubr
          endchar
        </CharString>
        <CharString name="daggerdbl">
          -23 122 hmoveto
          59 hlineto
          7 172 83 8 rlineto
          57 vlineto
          -83 8 rlineto
          198 vlineto
          -16 callgsubr
          -198 vlineto
          -79 -8 rlineto
          -57 vlineto
          79 -8 rlineto
          endchar
        </CharString>
        <CharString name="dcaron">
          103 -77 callgsubr
          211 448 -34 callsubr
          -196 -553 -72 callsubr
          endchar
        </CharString>
        <CharString name="dcroat">
          58 385 688 rmoveto
          -45 55 -80 -55 -99 -69 99 -169 -6 hlineto
          47 -12 -31 21 -53 hhcurveto
          -101 -21 -56 -207 -213 24 -50 99 41 43 12 63 14 hvcurveto
          6 hlineto
          4 -67 rlineto
          73 619 45 hlineto
          -131 -498 rmoveto
          -43 -8 -21 -13 -37 hhcurveto
          -64 -8 17 5 callgsubr
          18 62 39 20 -15 -50 9 hvcurveto
          5 -28 1 -41 -49 vvcurveto
          -64 0 -40 -6 -38 vhcurveto
          endchar
        </CharString>
        <CharString name="degree">
          -48 142 -16 callsubr
          49 vmoveto
          3 callsubr
          endchar
        </CharString>
        <CharString name="dialog">
          475 306 -212 rmoveto
          213 212 rlineto
          227 688 -687 -688 247 60 -187 568 567 -568 -192 hlineto
          -188 -187 rlineto
          endchar
        </CharString>
        <CharString name="dieresis">
          -58 15 648 -88 callgsubr
          endchar
        </CharString>
        <CharString name="divide">
          122 188 377 rmoveto
          76 72 -76 hlineto
          -132 -231 rmoveto
          -6 callsubr
          132 -231 rmoveto
          76 72 -76 hlineto
          endchar
        </CharString>
        <CharString name="dollar">
          28 152 -8 rmoveto
          63 80 hlineto
          71 12 31 45 101 vvcurveto
          118 -28 20 -53 10 vhcurveto
          -74 13 rlineto
          -32 5 -8 7 66 vvcurveto
          58 18 21 58 28 45 -5 -6 27 vhcurveto
          68 vlineto
          -18 6 -34 6 -31 1 rrcurveto
          78 -63 -79 vlineto
          -70 -10 -41 -38 -106 vvcurveto
          -95 18 -35 64 -13 vhcurveto
          74 -14 rlineto
          31 -6 10 -3 -73 vvcurveto
          -66 -24 -17 -57 -36 -46 4 6 -24 vhcurveto
          -67 vlineto
          24 -7 42 -6 35 -1 rrcurveto
          endchar
        </CharString>
        <CharString name="dollar.bold">
          28 317 230 rmoveto
          118 -28 20 -54 10 vhcurveto
          -20 4 rlineto
          165 vlineto
          26 -1 34 -4 23 -5 rrcurveto
          68 vlineto
          -16 6 -32 6 -35 2 rrcurveto
          77 -63 -78 vlineto
          -78 -11 -33 -48 -96 vvcurveto
          -95 18 -35 63 -13 vhcurveto
          30 -6 rlineto
          -173 vlineto
          -38 1 -41 3 -22 6 rrcurveto
          -67 vlineto
          30 -9 35 -4 36 -1 rrcurveto
          -78 63 79 vlineto
          69 11 33 48 100 vvcurveto
          -195 239 rmoveto
          41 10 21 20 9 vhcurveto
          -147 vlineto
          -24 5 -6 12 59 vvcurveto
          93 -314 rmoveto
          146 vlineto
          18 -6 5 -16 -55 vvcurveto
          -36 -8 -21 -15 -12 vhcurveto
          endchar
        </CharString>
        <CharString name="dotaccent">
          -234 11 -28 callgsubr
          endchar
        </CharString>
        <CharString name="dotbelowcomb">
          -140 -160 -80 callsubr
        </CharString>
        <CharString name="dotlessi">
          -154 48 hmoveto
          80 -36 callgsubr
          hlineto
          endchar
        </CharString>
        <CharString name="e">
          38 332 255 -105 callgsubr
          endchar
        </CharString>
        <CharString name="eacute">
          38 276 738 -67 callsubr
          109 -346 -105 callgsubr
          endchar
        </CharString>
        <CharString name="ebreve">
          38 183 607 rmoveto
          99 8 57 79 hvcurveto
          -56 hlineto
          -54 -1 -31 -50 -51 0 31 54 vhcurveto
          -56 hlineto
          -79 8 -57 99 vhcurveto
          149 -352 -105 callgsubr
          endchar
        </CharString>
        <CharString name="ecaron">
          38 227 611 rmoveto
          -24 callsubr
          -125 rlineto
          191 -356 -105 callgsubr
          endchar
        </CharString>
        <CharString name="ecircumflex">
          38 190 698 -69 callsubr
          195 -356 -105 callgsubr
          endchar
        </CharString>
        <CharString name="edieresis">
          38 144 730 -14 callgsubr
          21 -393 -105 callgsubr
          endchar
        </CharString>
        <CharString name="edotaccent">
          38 221 730 rmoveto
          -75 -82 75 hlineto
          111 -393 -105 callgsubr
          endchar
        </CharString>
        <CharString name="egrave">
          38 226 601 -64 callgsubr
          169 -346 -105 callgsubr
          endchar
        </CharString>
        <CharString name="eight">
          71 201 -8 rmoveto
          128 37 -60 callgsubr
          -17 18 104 108 14 10 callsubr
        </CharString>
        <CharString name="eight.dnom">
          -86 122 -4 -96 callgsubr
        </CharString>
        <CharString name="eight.numr">
          -86 122 304 -96 callgsubr
        </CharString>
        <CharString name="eight.tnum">
          71 201 -8 rmoveto
          129 36 -60 callgsubr
          -16 18 104 108 13 10 callsubr
        </CharString>
        <CharString name="ellipsis">
          239 50 hmoveto
          -12 callgsubr
          190 -97 -28 callsubr
          190 -97 rmoveto
          89 97 -89 hlineto
          endchar
        </CharString>
        <CharString name="emacron">
          38 269 743 20 callgsubr
          63 -413 -105 callgsubr
          endchar
        </CharString>
        <CharString name="emdash">
          467 51 269 rmoveto
          695 71 -695 hlineto
          endchar
        </CharString>
        <CharString name="endash">
          87 51 269 rmoveto
          316 71 -316 hlineto
          endchar
        </CharString>
        <CharString name="eng">
          60 236 518 rmoveto
          -22 callsubr
          hvcurveto
          -6 -27 callgsubr
          -510 80 259 hlineto
          127 0 59 71 57 9 -31 callgsubr
          -374 vlineto
          -41 -3 -14 -52 vhcurveto
          -62 vlineto
          102 33 11 142 hvcurveto
          371 vlineto
          135 -15 52 -94 vhcurveto
          endchar
        </CharString>
        <CharString name="eogonek">
          38 332 255 rmoveto
          198 -5 65 -136 -148 -7 -74 -190 -195 13 -67 145 18 18 1 3 20 vhcurveto
          -32 -32 -23 -41 -42 vvcurveto
          -40 22 -37 -13 callgsubr
          -4 hhcurveto
          -31 -10 19 21 43 38 47 25 20 hvcurveto
          -99 callgsubr
          endchar
        </CharString>
        <CharString name="equal">
          122 56 303 rmoveto
          -6 callsubr
          -242 vmoveto
          -6 callsubr
          endchar
        </CharString>
        <CharString name="estimated">
          95 124 323 rmoveto
          261 21 hlineto
          287 -10 65 -163 -162 -11 -65 -287 -287 11 -65 162 129 32 42 166 7 vhcurveto
          -36 hlineto
          -167 -8 -36 -7 -76 hhcurveto
          -87 -12 10 287 -1 hvcurveto
          88 339 rmoveto
          76 12 -10 -295 hvcurveto
          -176 hlineto
          295 12 10 76 vhcurveto
          endchar
        </CharString>
        <CharString name="eth">
          18 callsubr
          61 -3 53 -5 47 hvcurveto
          -9 76 -17 74 -25 60 50 8 rcurveline
          52 vlineto
          -73 -11 -11 21 -12 18 -12 17 rlinecurve
          -83 -4 hlineto
          14 -20 13 -21 13 -23 -64 -9 rcurveline
          -53 vlineto
          86 13 18 -40 12 -43 10 -46 rlinecurve
          -4 -2 rlineto
          -41 callsubr
        </CharString>
        <CharString name="exclam">
          -131 73 194 rmoveto
          -52 callgsubr
          -19 -194 -28 callsubr
          endchar
        </CharString>
        <CharString name="exclam.case">
          -131 73 194 rmoveto
          -52 callgsubr
          -19 -194 -28 callsubr
          endchar
        </CharString>
        <CharString name="exclam.ss02">
          464 397 -8 rmoveto
          194 158 158 194 194 -158 158 -194 -194 -158 -158 -194 -194 158 -158 194 hvcurveto
          45 vmoveto
          -169 -138 138 169 169 138 138 169 169 138 -138 -169 -169 -138 -138 -169 hvcurveto
          -20 231 rmoveto
          40 hlineto
          8 55 6 88 69 vvcurveto
          99 -68 -99 vlineto
          -69 6 -88 8 -55 vhcurveto
          -14 -159 rmoveto
          68 82 -68 hlineto
          endchar
        </CharString>
        <CharString name="exclamdbl">
          40 73 194 rmoveto
          -52 callgsubr
          172 hmoveto
          -52 callgsubr
          -191 -194 -28 callsubr
          172 -97 -28 callsubr
          endchar
        </CharString>
        <CharString name="exclamdown">
          -131 54 413 -30 callsubr
        </CharString>
        <CharString name="exclamdown.case">
          -131 54 591 -30 callsubr
        </CharString>
        <CharString name="f">
          -84 73 hmoveto
          -67 callgsubr
          endchar
        </CharString>
        <CharString name="f_f">
          162 73 hmoveto
          -67 callgsubr
          246 -441 rmoveto
          -67 callgsubr
          endchar
        </CharString>
        <CharString name="fi">
          92 73 hmoveto
          -67 callgsubr
          220 211 -21 callgsubr
          1 -13 callsubr
        </CharString>
        <CharString name="five">
          35 41 78 rmoveto
          -70 vlineto
          -9 38 55 -7 40 hhcurveto
          133 30 58 166 130 -20 70 -121 -28 -27 -3 -5 -16 hvcurveto
          203 186 77 -266 -360 vlineto
          7 37 39 3 24 hhcurveto
          94 14 -14 -118 -110 -15 -27 -86 -27 -44 4 5 -40 hvcurveto
          endchar
        </CharString>
        <CharString name="five.dnom">
          -102 32 49 -66 callgsubr
          endchar
        </CharString>
        <CharString name="five.numr">
          -102 32 357 -66 callgsubr
          endchar
        </CharString>
        <CharString name="five.tnum">
          71 55 78 rmoveto
          -70 vlineto
          -9 38 56 -7 40 hhcurveto
          132 31 58 166 130 -20 70 -122 -27 -28 -3 -5 -16 hvcurveto
          203 187 77 -267 -360 vlineto
          7 38 39 3 24 hhcurveto
          93 14 -14 -118 -110 -14 -27 -87 -26 -45 4 5 -40 hvcurveto
          endchar
        </CharString>
        <CharString name="fiveeighths">
          259 117 hmoveto
          -46 callgsubr
          -371 -331 -66 callgsubr
          435 -361 -96 callgsubr
        </CharString>
        <CharString name="fl">
          92 73 hmoveto
          -67 callgsubr
          221 -441 rmoveto
          -2 callsubr
          endchar
        </CharString>
        <CharString name="florin">
          -3 324 682 rmoveto
          13 61 rlineto
          -120 -38 -13 -209 -44 hvcurveto
          -2 -11 rlineto
          -57 hlineto
          -15 -69 rlineto
          57 hlineto
          -103 -488 rlineto
          -75 -16 -15 -10 -61 hhcurveto
          -14 -61 rlineto
          120 37 13 182 39 hvcurveto
          93 439 rlineto
          75 hlineto
          14 69 rlineto
          -74 hlineto
          3 17 rlineto
          145 31 15 10 62 hhcurveto
          endchar
        </CharString>
        <CharString name="four">
          58 226 hmoveto
          85 11 callsubr
          -124 hlineto
          130 456 -1 callgsubr
          -125 -465 rlineto
          -68 204 vlineto
          endchar
        </CharString>
        <CharString name="four.dnom">
          -96 135 hmoveto
          -26 callsubr
        </CharString>
        <CharString name="four.numr">
          -96 135 308 rmoveto
          -26 callsubr
        </CharString>
        <CharString name="four.ss01">
          60 226 hmoveto
          85 155 54 77 -54 456 -125 hlineto
          -164 -468 rlineto
          -65 204 vlineto
          -130 77 rmoveto
          129 357 rlineto
          2 -357 hlineto
          endchar
        </CharString>
        <CharString name="four.tnum">
          71 240 hmoveto
          84 11 callsubr
          -134 hlineto
          141 456 -1 callgsubr
          -137 -465 rlineto
          -68 216 vlineto
          endchar
        </CharString>
        <CharString name="fraction">
          -213 -111 hmoveto
          -46 callgsubr
          endchar
        </CharString>
        <CharString name="g">
          58 174 -200 -101 callgsubr
        </CharString>
        <CharString name="g_tilde.loclGUA">
          58 320 743 rmoveto
          -107 callsubr
          -146 -943 -101 callgsubr
        </CharString>
        <CharString name="gbreve">
          58 300 -70 callsubr
          -126 -943 -101 callgsubr
        </CharString>
        <CharString name="gcaron">
          58 151 611 -97 callgsubr
          90 -936 -101 callgsubr
        </CharString>
        <CharString name="gcircumflex">
          58 84 611 -106 callgsubr
          90 -818 -101 callgsubr
        </CharString>
        <CharString name="gcommaaccent">
          58 250 -4 callgsubr
          -76 -955 -101 callgsubr
        </CharString>
        <CharString name="gdotaccent">
          58 156 -28 callgsubr
          18 -930 -101 callgsubr
        </CharString>
        <CharString name="germandbls">
          67 213 hmoveto
          127 19 71 176 134 -27 51 -59 14 hvcurveto
          4 vlineto
          57 13 25 40 86 vvcurveto
          121 -49 40 -105 -111 -42 -51 -146 vhcurveto
          -553 79 557 vlineto
          99 19 25 55 54 20 -22 -79 -77 -16 -24 -49 vhcurveto
          -15 -69 15 hlineto
          55 14 -27 -135 -164 -8 -15 -68 hvcurveto
          -21 -69 hlineto
          endchar
        </CharString>
        <CharString name="grave">
          -214 53 601 -89 callsubr
          endchar
        </CharString>
        <CharString name="gravecomb">
          -63 601 -89 callsubr
          endchar
        </CharString>
        <CharString name="gravecomb.case">
          -63 746 -89 callsubr
          endchar
        </CharString>
        <CharString name="greater">
          123 56 75 rmoveto
          341 139 rlineto
          78 8 callgsubr
          endchar
        </CharString>
        <CharString name="greaterequal">
          128 60 193 rmoveto
          341 139 rlineto
          77 8 callgsubr
          -223 vmoveto
          342 71 -342 hlineto
          endchar
        </CharString>
        <CharString name="guillemotleft">
          4 105 114 -23 callgsubr
          201 -198 -23 callgsubr
          endchar
        </CharString>
        <CharString name="guillemotright">
          4 43 114 -7 callsubr
          61 -198 rlineto
          65 -198 -7 callsubr
          62 -198 rlineto
          endchar
        </CharString>
        <CharString name="guilsinglleft">
          -121 105 114 -23 callgsubr
          endchar
        </CharString>
        <CharString name="guilsinglright">
          -121 43 114 -7 callsubr
          61 -198 rlineto
          endchar
        </CharString>
        <CharString name="h">
          60 265 hmoveto
          -59 callsubr
          endchar
        </CharString>
        <CharString name="hbar">
          60 236 518 rmoveto
          -60 -30 -28 -39 -12 hvcurveto
          -6 168 99 69 -99 55 -80 -55 -45 -69 45 -619 80 259 hlineto
          127 0 59 71 57 9 -31 callgsubr
          -298 80 331 vlineto
          135 -15 52 -94 vhcurveto
          endchar
        </CharString>
        <CharString name="hcircumflex">
          60 -22 789 -106 callgsubr
          287 -796 rmoveto
          -59 callsubr
          endchar
        </CharString>
        <CharString name="hookabovecomb">
          -162 613 -105 callsubr
          endchar
        </CharString>
        <CharString name="hookabovecomb.case">
          -162 737 -96 callsubr
          endchar
        </CharString>
        <CharString name="house">
          114 23 hmoveto
          398 359 hlineto
          -161 340 rlineto
          -76 hlineto
          -161 -340 rlineto
          82 -290 rmoveto
          283 vlineto
          117 257 117 -257 rlineto
          -283 vlineto
          endchar
        </CharString>
        <CharString name="hungarumlaut">
          -92 12 611 -79 callgsubr
          endchar
        </CharString>
        <CharString name="hyphen">
          13 callgsubr
        </CharString>
        <CharString name="i">
          -1 callsubr
          endchar
        </CharString>
        <CharString name="i.loclTRK">
          -154 50 -28 callgsubr
          -2 -730 -50 callsubr
        </CharString>
        <CharString name="iacute">
          -154 48 -81 callsubr
          -606 vmoveto
          80 -36 callgsubr
          hlineto
          endchar
        </CharString>
        <CharString name="iacute_j.loclNLD">
          22 53 -81 callsubr
          176 -5 -100 callgsubr
          -181 -606 -52 callsubr
          121 -703 -72 callgsubr
        </CharString>
        <CharString name="ibreve">
          -154 194 -70 callsubr
          -146 -13 callsubr
        </CharString>
        <CharString name="icircumflex">
          -154 -22 611 -106 callgsubr
          70 -618 -50 callsubr
        </CharString>
        <CharString name="idieresis">
          -154 -33 648 -88 callgsubr
          -86 -730 -50 callsubr
        </CharString>
        <CharString name="igrave">
          -154 65 601 -89 callsubr
          36 -738 -50 callsubr
        </CharString>
        <CharString name="ij">
          22 14 callgsubr
          176 -91 -21 callgsubr
          -175 -743 -52 callsubr
          121 -703 -72 callgsubr
        </CharString>
        <CharString name="imacron">
          -154 3 668 -66 callsubr
          45 -13 callsubr
        </CharString>
        <CharString name="infinity">
          346 188 46 rmoveto
          87 38 54 70 25 hvcurveto
          -70 24 39 -54 86 hhcurveto
          108 35 76 134 134 -35 77 -108 -86 -39 -55 -68 -24 hvcurveto
          68 -25 -38 55 -87 hhcurveto
          -107 -35 -77 -134 -134 35 -76 107 hvcurveto
          6 64 rmoveto
          -61 -15 58 88 88 15 58 61 65 29 -64 -82 14 hvcurveto
          -80 -14 -29 -66 -65 hhcurveto
          287 hmoveto
          -64 -30 66 80 -14 hvcurveto
          82 14 30 64 64 hhcurveto
          62 14 -58 -88 -88 -14 -58 -62 hvcurveto
          endchar
        </CharString>
        <CharString name="integral">
          -36 41 -190 rmoveto
          108 52 4 119 5 0 6 -3 64 hvcurveto
          -26 532 rlineto
          18 -1 9 9 vvcurveto
          50 13 7 65 vhcurveto
          63 vlineto
          -110 -52 -5 -111 -7 0 -10 1 -19 hvcurveto
          27 -541 rlineto
          3 -67 0 -7 -6 vvcurveto
          -42 -16 -8 -61 vhcurveto
          endchar
        </CharString>
        <CharString name="iogonek">
          -154 125 730 rmoveto
          -74 -82 74 hlineto
          3 -648 rmoveto
          -36 callgsubr
          -510 19 vlineto
          -34 -33 -25 -43 -42 vvcurveto
          -42 23 -36 63 12 12 1 2 10 vhcurveto
          49 vlineto
          -1 -7 -3 0 -4 hhcurveto
          -31 -10 19 22 38 32 46 23 20 hvcurveto
          endchar
        </CharString>
        <CharString name="itilde">
          -154 214 743 rmoveto
          -107 callsubr
          -166 -13 callsubr
        </CharString>
        <CharString name="j">
          21 callgsubr
          -54 -936 -72 callgsubr
        </CharString>
        <CharString name="jcircumflex">
          -154 -22 611 -106 callgsubr
          15 -811 -72 callgsubr
        </CharString>
        <CharString name="k">
          -35 callsubr
          451 -80 -743 80 222 42 hlineto
          endchar
        </CharString>
        <CharString name="kcommaaccent">
          -35 callsubr
          451 -80 -743 80 222 42 hlineto
          -42 -437 -86 callsubr
        </CharString>
        <CharString name="kgreenlandic">
          -35 callsubr
          218 -80 -510 80 222 42 hlineto
          endchar
        </CharString>
        <CharString name="l">
          -154 4 callsubr
          endchar
        </CharString>
        <CharString name="lacute">
          -154 53 779 -100 callgsubr
          -5 -784 rmoveto
          -2 callsubr
          endchar
        </CharString>
        <CharString name="lcaron">
          -106 4 callsubr
          109 -303 -34 callsubr
          endchar
        </CharString>
        <CharString name="lcommaaccent">
          -154 4 callsubr
          -9 -958 -86 callsubr
        </CharString>
        <CharString name="ldot">
          -85 4 callsubr
          122 -493 rmoveto
          83 98 -83 hlineto
          endchar
        </CharString>
        <CharString name="leftOpenDialog">
          285 626 628 rmoveto
          60 -626 -688 626 60 -566 568 vlineto
          endchar
        </CharString>
        <CharString name="less">
          123 398 75 rmoveto
          75 9 callgsubr
          -78 vlineto
          endchar
        </CharString>
        <CharString name="lessequal">
          123 398 193 rmoveto
          74 9 callgsubr
          -77 vlineto
          -288 vmoveto
          -6 callsubr
          endchar
        </CharString>
        <CharString name="logicalnot">
          122 324 78 rmoveto
          73 208 -341 -73 268 hlineto
          endchar
        </CharString>
        <CharString name="longs">
          -96 73 hmoveto
          80 600 hlineto
          72 13 10 62 vhcurveto
          61 vlineto
          -121 -34 -13 -150 hvcurveto
          -70 -57 -69 57 vlineto
          endchar
        </CharString>
        <CharString name="lozenge">
          68 159 hmoveto
          79 hlineto
          128 344 -128 345 rlineto
          -79 hlineto
          -128 -345 rlineto
          168 -270 rmoveto
          -93 270 93 271 93 -271 rlineto
          endchar
        </CharString>
        <CharString name="lslash">
          -148 49 hmoveto
          80 333 hlineto
          45 16 rlineto
          74 vlineto
          -45 -16 rlineto
          336 -80 -364 vlineto
          -41 -15 rlineto
          -73 vlineto
          41 14 rlineto
          endchar
        </CharString>
        <CharString name="m">
          267 473 hmoveto
          80 335 hlineto
          132 -17 51 -91 -62 -29 -29 -47 -14 vhcurveto
          -6 hlineto
          53 -11 -26 23 -63 hhcurveto
          -62 -28 -30 -46 -12 hvcurveto
          -7 -27 callgsubr
          -510 80 259 hlineto
          127 0 59 71 54 7 -31 callgsubr
          -298 80 259 vlineto
          133 0 53 71 54 8 -31 callgsubr
          endchar
        </CharString>
        <CharString name="macron">
          -54 53 668 -66 callsubr
          endchar
        </CharString>
        <CharString name="minus">
          122 56 218 rmoveto
          -6 callsubr
          endchar
        </CharString>
        <CharString name="minute">
          -171 32 380 -7 callgsubr
          endchar
        </CharString>
        <CharString name="multiply">
          83 207 203 rmoveto
          100 -101 51 51 -101 100 101 100 -50 51 -101 -101 -101 101 -50 -50 100 -101 -100 -101 51 -50 rlineto
          endchar
        </CharString>
        <CharString name="n">
          60 265 hmoveto
          -85 callgsubr
        </CharString>
        <CharString name="nacute">
          60 160 -81 callsubr
          105 -606 rmoveto
          -85 callgsubr
        </CharString>
        <CharString name="nacute.loclPLK">
          60 160 601 rmoveto
          -71 callsubr
          105 -606 rmoveto
          -85 callgsubr
        </CharString>
        <CharString name="napostrophe">
          115 -8 callgsubr
          310 -578 rmoveto
          -85 callgsubr
        </CharString>
        <CharString name="ncaron">
          60 152 611 -97 callgsubr
          180 -736 rmoveto
          -85 callgsubr
        </CharString>
        <CharString name="ncommaaccent">
          60 265 hmoveto
          -84 callgsubr
          -119 -513 -86 callsubr
        </CharString>
        <CharString name="nine">
          60 168 -8 rmoveto
          90 47 28 79 26 hvcurveto
          17 48 2 84 118 vvcurveto
          114 -2 79 -10 46 vhcurveto
          87 -21 -43 21 -88 14 callsubr
          61 27 -25 callsubr
          -13 6 131 119 15 11 callgsubr
        </CharString>
        <CharString name="nine.dnom">
          -92 102 -4 -63 callgsubr
        </CharString>
        <CharString name="nine.numr">
          -92 102 304 -63 callgsubr
        </CharString>
        <CharString name="nine.ss01">
          63 98 hmoveto
          91 hlineto
          66 86 105 165 211 vvcurveto
          166 -29 68 -135 -135 -30 -71 -142 -144 22 -68 109 47 24 9 20 16 vhcurveto
          4 -3 -38 -139 -79 -104 -38 -48 rlinecurve
          98 341 rmoveto
          -58 -23 1 135 115 16 21 65 60 19 -13 -135 -111 -23 -13 -56 hvcurveto
          endchar
        </CharString>
        <CharString name="nine.tnum">
          71 175 -8 rmoveto
          89 47 28 69 24 hvcurveto
          19 55 4 86 119 vvcurveto
          138 -3 87 -18 44 vhcurveto
          63 -26 -42 15 -76 14 callsubr
          62 26 -25 callsubr
          -12 6 131 119 14 11 callgsubr
        </CharString>
        <CharString name="notequal">
          122 196 132 rmoveto
          201 71 -167 hlineto
          52 100 rlineto
          115 71 -81 hlineto
          52 103 rlineto
          -64 hlineto
          -53 -103 rlineto
          -195 -71 161 hlineto
          -51 -100 rlineto
          -110 -71 76 hlineto
          -50 -99 rlineto
          64 hlineto
          endchar
        </CharString>
        <CharString name="ntilde">
          60 325 743 rmoveto
          -107 callsubr
          -60 -743 rmoveto
          -85 callgsubr
        </CharString>
        <CharString name="numbersign">
          119 231 hmoveto
          62 hlineto
          22 192 rlineto
          77 62 -71 hlineto
          22 175 rlineto
          68 62 -61 18 callgsubr
          -99 18 callgsubr
          -71 -62 65 hlineto
          -22 -175 rlineto
          -61 -62 55 hlineto
          -23 -192 rlineto
          62 hlineto
          22 192 rlineto
          100 hlineto
          28 237 rmoveto
          -22 -175 rlineto
          -99 hlineto
          21 175 rlineto
          endchar
        </CharString>
        <CharString name="o">
          49 189 -8 -104 callgsubr
          endchar
        </CharString>
        <CharString name="oacute">
          49 149 -81 callsubr
          40 -614 -104 callgsubr
          endchar
        </CharString>
        <CharString name="oacute.loclPLK">
          49 154 601 rmoveto
          -71 callsubr
          35 -614 -104 callgsubr
          endchar
        </CharString>
        <CharString name="obreve">
          49 295 -70 callsubr
          -106 -751 -104 callgsubr
          endchar
        </CharString>
        <CharString name="ocircumflex">
          49 81 611 -106 callgsubr
          108 -626 -104 callgsubr
          endchar
        </CharString>
        <CharString name="odieresis">
          49 70 648 -88 callgsubr
          -48 -738 -104 callgsubr
          endchar
        </CharString>
        <CharString name="oe">
          265 559 255 rmoveto
          198 -4 65 -137 -59 -34 -15 -35 -20 vhcurveto
          38 -21 -34 12 -61 hhcurveto
          -140 -13 -50 -214 -213 13 -49 140 62 34 13 39 20 hvcurveto
          -38 22 35 -14 60 hhcurveto
          45 54 6 7 28 hvcurveto
          66 vlineto
          -5 -26 -54 -5 -31 hhcurveto
          -88 -7 27 142 hvcurveto
          216 hlineto
          -370 -169 rmoveto
          -98 callgsubr
          228 388 rmoveto
          54 13 -13 -135 hvcurveto
          -12 -141 vlineto
          142 8 18 66 vhcurveto
          endchar
        </CharString>
        <CharString name="ogonek">
          -210 120 -193 rmoveto
          -35 callgsubr
        </CharString>
        <CharString name="ograve">
          49 161 601 -89 callsubr
          81 -746 -104 callgsubr
          endchar
        </CharString>
        <CharString name="ohorn">
          49 330 604 -91 callsubr
        </CharString>
        <CharString name="ohungarumlaut">
          49 114 611 -79 callgsubr
          -39 -624 -104 callgsubr
          endchar
        </CharString>
        <CharString name="omacron">
          49 104 668 -66 callsubr
          85 -751 -104 callgsubr
          endchar
        </CharString>
        <CharString name="one">
          -87 103 hmoveto
          85 688 -65 hlineto
          -101 -61 rlineto
          -82 vlineto
          81 39 rlineto
          endchar
        </CharString>
        <CharString name="one.dnom">
          -177 59 hmoveto
          9 callsubr
        </CharString>
        <CharString name="one.numr">
          -177 59 308 rmoveto
          9 callsubr
        </CharString>
        <CharString name="one.tnum">
          71 65 hmoveto
          296 77 -103 611 -65 hlineto
          -126 -68 rlineto
          -81 vlineto
          107 49 rlineto
          -511 -109 vlineto
          endchar
        </CharString>
        <CharString name="oneeighth">
          220 -50 callgsubr
          54 -692 -96 callgsubr
        </CharString>
        <CharString name="onehalf">
          205 89 316 rmoveto
          57 372 -43 hlineto
          -59 -36 rlineto
          -55 vlineto
          45 21 rlineto
          260 70 rmoveto
          -286 -688 rlineto
          54 hlineto
          286 688 rlineto
          -29 -615 rmoveto
          34 -1 16 18 13 vhcurveto
          18 13 22 14 16 11 rrcurveto
          27 18 17 20 66 vvcurveto
          94 -39 8 -49 -23 -34 -4 -5 -25 vhcurveto
          -49 vlineto
          3 31 24 2 15 hhcurveto
          34 9 -9 -45 -30 -6 -14 -17 -12 hvcurveto
          -16 -11 -23 -15 -22 -16 rrcurveto
          -31 -21 -1 -23 -87 vvcurveto
          -44 173 52 -117 vlineto
          endchar
        </CharString>
        <CharString name="onequarter">
          175 -50 callgsubr
          29 1 callsubr
          70 20 callsubr
          115 vlineto
          endchar
        </CharString>
        <CharString name="ordfeminine">
          -39 110 309 rmoveto
          27 28 14 36 14 hvcurveto
          5 hlineto
          3 -44 rlineto
          59 236 hlineto
          113 -23 32 -88 -31 -36 -4 -6 -27 vhcurveto
          -52 vlineto
          4 29 29 3 18 hhcurveto
          57 8 -9 -78 hvcurveto
          -24 vlineto
          2 -20 -32 1 -18 hhcurveto
          -66 -20 -28 -83 -83 22 -30 62 hvcurveto
          19 59 rmoveto
          -35 -7 12 46 50 9 9 31 hvcurveto
          55 -22 hlineto
          -27 0 -25 -6 -13 vhcurveto
          -21 -10 -13 -9 -24 hhcurveto
          endchar
        </CharString>
        <CharString name="ordmasculine">
          -30 150 310 rmoveto
          105 9 37 155 157 -9 37 -105 -104 -10 -37 -157 -155 10 -37 104 hvcurveto
          56 vmoveto
          -47 -3 15 121 122 3 17 47 48 3 -17 -122 -121 -3 -15 -48 hvcurveto
          endchar
        </CharString>
        <CharString name="orn.001">
          7 289 341 rmoveto
          105 -6 17 -117 -112 -6 -17 -105 -102 6 -16 112 117 6 16 102 vhcurveto
          endchar
        </CharString>
        <CharString name="orn.002">
          219 210 -58 callgsubr
          63 101 -51 callgsubr
          121 87 -2 callgsubr
          -29 -21 22 28 29 21 21 29 28 22 -21 -29 -28 -22 -22 -28 hvcurveto
          endchar
        </CharString>
        <CharString name="orn.003">
          85 211 -58 callgsubr
          63 101 -51 callgsubr
          63 101 -26 callgsubr
          endchar
        </CharString>
        <CharString name="orn.007">
          7 168 222 rmoveto
          67 54 53 67 67 -54 54 -67 -67 -53 -54 -67 -67 53 -53 67 hvcurveto
          endchar
        </CharString>
        <CharString name="orn.010">
          464 397 hmoveto
          352 348 hlineto
          13 callsubr
          6 callgsubr
          vhcurveto
          endchar
        </CharString>
        <CharString name="orn.015">
          7 callgsubr
          187 60 -187 hlineto
          187 -272 rmoveto
          213 212 rlineto
          167 60 -192 hlineto
          -188 -187 rlineto
          endchar
        </CharString>
        <CharString name="orn.016">
          7 callgsubr
          567 60 -567 hlineto
          endchar
        </CharString>
        <CharString name="orn.017">
          -270 0 vmoveto
          60 688 -60 hlineto
          endchar
        </CharString>
        <CharString name="orn.018">
          462 211 -58 callgsubr
          370 hmoveto
          99 62 67 110 126 vvcurveto
          125 -67 111 -99 62 vhcurveto
          -32 -51 rlineto
          82 -51 56 -92 -104 vvcurveto
          -105 -55 -91 -83 -52 vhcurveto
          -275 51 -51 callgsubr
          244 hmoveto
          65 41 44 73 83 vvcurveto
          83 -44 73 -66 41 vhcurveto
          -32 -51 rlineto
          49 -31 33 -54 -61 vvcurveto
          -62 -33 -53 -48 -31 vhcurveto
          -149 50 -26 callgsubr
          118 hmoveto
          -22 callgsubr
        </CharString>
        <CharString name="orn.019">
          219 338 -53 callgsubr
          -89 36 -2 callgsubr
          -28 -22 22 28 29 22 21 28 29 21 -21 -29 -28 -21 -22 -29 hvcurveto
          endchar
        </CharString>
        <CharString name="orn.020">
          85 204 -53 callgsubr
          -31 50 rmoveto
          -22 callgsubr
        </CharString>
        <CharString name="orn.021">
          423 376 -116 rmoveto
          190 98 142 201 181 vvcurveto
          188 -149 144 -183 -183 -148 -144 -188 -180 142 -202 189 -98 vhcurveto
          endchar
        </CharString>
        <CharString name="orn.022">
          59 171 220 rmoveto
          98 80 83 40 40 -80 83 -98 -81 -42 -55 -68 -68 42 -55 81 hvcurveto
          endchar
        </CharString>
        <CharString name="oslash">
          49 36 -55 -61 callgsubr
        </CharString>
        <CharString name="oslash.bold">
          49 343 565 rmoveto
          -73 hlineto
          -20 -52 rlineto
          4 -17 -20 1 -24 hhcurveto
          -140 -13 -50 -214 -119 4 -68 28 -37 hvcurveto
          -32 -85 rlineto
          73 hlineto
          20 52 rlineto
          -4 16 20 -1 24 hhcurveto
          141 13 49 213 120 -4 68 -28 37 hvcurveto
          -195 -225 rmoveto
          171 4 24 69 15 11 -1 -3 10 vhcurveto
          -108 -285 rlineto
          -1 24 0 31 39 vvcurveto
          147 hmoveto
          -171 -4 -22 -70 -14 -12 1 2 -9 vhcurveto
          108 287 rlineto
          1 -26 0 -31 -40 vvcurveto
          endchar
        </CharString>
        <CharString name="oslashacute">
          49 154 -81 callsubr
          -118 -661 -61 callgsubr
        </CharString>
        <CharString name="otilde">
          49 317 743 rmoveto
          -107 callsubr
          -128 -751 -104 callgsubr
          endchar
        </CharString>
        <CharString name="p">
          58 48 -194 rmoveto
          80 254 1 callgsubr
          -41 -43 -12 -63 -14 24 callgsubr
          67 rlineto
          -73 hlineto
          152 -446 rmoveto
          -36 -21 15 51 -10 hvcurveto
          -4 23 -1 41 61 vvcurveto
          60 0 41 6 31 vhcurveto
          45 9 21 13 36 hhcurveto
          64 9 -17 23 callgsubr
        </CharString>
        <CharString name="paragraph">
          49 142 -144 rmoveto
          69 832 -69 hlineto
          -107 -9 -31 -203 -203 9 -29 107 hvcurveto
          113 -366 rmoveto
          69 832 -69 hlineto
          endchar
        </CharString>
        <CharString name="parenleft">
          -100 146 -150 rmoveto
          70 hlineto
          -56 109 -29 50 288 vvcurveto
          288 28 49 57 109 vhcurveto
          -70 hlineto
          -70 -126 -25 -58 -262 vvcurveto
          -263 24 -53 71 -131 vhcurveto
          endchar
        </CharString>
        <CharString name="parenleft.ss02">
          67 397 hmoveto
          696 vlineto
          6 callgsubr
          hvcurveto
          endchar
        </CharString>
        <CharString name="parenright">
          -100 15 -150 rmoveto
          70 hlineto
          70 131 25 53 263 vvcurveto
          262 -26 58 -69 126 vhcurveto
          -70 hlineto
          56 -109 28 -49 -288 vvcurveto
          -288 -28 -50 -56 -109 vhcurveto
          endchar
        </CharString>
        <CharString name="parenright.ss02">
          67 0 vmoveto
          207 145 144 204 13 callsubr
          hvcurveto
          endchar
        </CharString>
        <CharString name="partialdiff">
          18 callsubr
          58 -3 51 -7 69 hvcurveto
          -12 110 -40 119 -55 69 rrcurveto
          -83 -4 hlineto
          47 -64 35 -80 20 -98 -4 -2 rcurveline
          -41 callsubr
        </CharString>
        <CharString name="percent">
          261 148 311 rmoveto
          89 13 37 155 155 -13 38 -89 -90 -12 -38 -155 -155 12 -37 90 hvcurveto
          -28 -311 rmoveto
          53 hlineto
          299 688 rlineto
          -53 hlineto
          -271 -326 rmoveto
          -3 callgsubr
          297 -370 rmoveto
          89 12 37 155 154 -12 39 -89 -90 -13 -39 -154 -155 13 -37 90 hvcurveto
          51 vmoveto
          -3 callgsubr
          endchar
        </CharString>
        <CharString name="period">
          -140 50 hmoveto
          -12 callgsubr
          endchar
        </CharString>
        <CharString name="periodcentered">
          -140 50 250 -80 callsubr
        </CharString>
        <CharString name="perthousand">
          396 137 359 rmoveto
          79 13 33 135 135 -13 34 -79 -78 -13 -34 -135 -135 13 -33 78 hvcurveto
          -57 -359 rmoveto
          52 hlineto
          299 688 rlineto
          -52 hlineto
          -242 -282 rmoveto
          -31 -5 4 117 117 5 12 callgsubr
          239 -414 rmoveto
          79 13 33 135 136 -13 33 -79 -78 -13 -33 -136 -135 13 -33 78 hvcurveto
          213 hmoveto
          79 12 33 135 136 -12 33 -79 -79 -13 -33 -136 -135 13 -33 79 hvcurveto
          -213 47 rmoveto
          -31 -5 4 117 117 5 5 31 31 6 -5 -117 -117 -6 -4 -31 hvcurveto
          213 hmoveto
          -31 -6 4 117 117 6 12 callgsubr
          endchar
        </CharString>
        <CharString name="pi">
          58 260 hmoveto
          80 510 -292 -510 80 444 132 hlineto
          endchar
        </CharString>
        <CharString name="plus">
          122 191 82 rmoveto
          70 136 6 callsubr
          endchar
        </CharString>
        <CharString name="plusminus">
          122 191 200 rmoveto
          70 135 6 callsubr
          -135 -291 rmoveto
          -6 callsubr
          endchar
        </CharString>
        <CharString name="product">
          106 299 -189 rmoveto
          84 877 -331 -877 85 800 162 hlineto
          endchar
        </CharString>
        <CharString name="q">
          58 260 -194 rmoveto
          80 704 -73 hlineto
          -4 -67 rlineto
          -6 hlineto
          63 -14 -43 12 -41 hhcurveto
          -99 -24 -50 -213 -207 21 -56 101 53 31 21 47 12 hvcurveto
          6 hlineto
          -72 4 rmoveto
          -64 -8 18 5 callgsubr
          17 64 37 21 -13 -40 7 hvcurveto
          7 -36 0 -41 -60 vvcurveto
          -63 -1 -42 -5 -26 vhcurveto
          -45 -9 -21 -15 -36 hhcurveto
          endchar
        </CharString>
        <CharString name="question">
          -59 callgsubr
        </CharString>
        <CharString name="question.case">
          -59 callgsubr
        </CharString>
        <CharString name="questiondown">
          -43 152 413 -57 callgsubr
        </CharString>
        <CharString name="questiondown.case">
          -19 151 591 -57 callgsubr
        </CharString>
        <CharString name="quotedbl">
          -42 51 440 rmoveto
          57 hlineto
          11 178 rlineto
          70 -79 -70 vlineto
          140 -178 rmoveto
          58 hlineto
          10 178 rlineto
          70 -78 -70 vlineto
          endchar
        </CharString>
        <CharString name="quotedblbase">
          -5 -4 callsubr
          139 hmoveto
          -38 vlineto
          86 14 29 106 hvcurveto
          81 -88 -94 34 -15 vlineto
          -53 -5 -16 -41 vhcurveto
          endchar
        </CharString>
        <CharString name="quotedblleft">
          -20 -5 callsubr
          139 -81 rmoveto
          87 94 -34 15 hlineto
          52 5 16 41 vhcurveto
          39 vlineto
          -86 -13 -30 -105 hvcurveto
          endchar
        </CharString>
        <CharString name="quotedblright">
          -20 -9 callsubr
          139 hmoveto
          -5 callgsubr
          13 30 105 -6 callgsubr
          -52 -5 -16 -41 vhcurveto
          endchar
        </CharString>
        <CharString name="quoteleft">
          -158 -5 callsubr
          endchar
        </CharString>
        <CharString name="quoteright">
          -158 -9 callsubr
          endchar
        </CharString>
        <CharString name="quotesinglbase">
          -144 -4 callsubr
          endchar
        </CharString>
        <CharString name="quotesingle">
          -171 51 440 rmoveto
          57 hlineto
          11 178 rlineto
          70 -79 -70 vlineto
          endchar
        </CharString>
        <CharString name="r">
          -21 callsubr
          endchar
        </CharString>
        <CharString name="racute">
          -77 92 -81 callsubr
          -44 -606 rmoveto
          -73 callgsubr
          endchar
        </CharString>
        <CharString name="radical">
          118 169 -106 rmoveto
          120 hlineto
          132 876 rlineto
          -83 hlineto
          -113 -783 -88 343 -127 -54 18 -56 45 18 rlineto
          endchar
        </CharString>
        <CharString name="rcaron">
          -77 84 611 -97 callgsubr
          31 -736 rmoveto
          -73 callgsubr
          endchar
        </CharString>
        <CharString name="rcommaaccent">
          -21 callsubr
          -9 -725 -86 callsubr
        </CharString>
        <CharString name="registered">
          172 251 696 rmoveto
          16 callsubr
          17 callgsubr
          hvcurveto
          -668 -19 callgsubr
          88 387 rmoveto
          67 -6 46 -73 vhcurveto
          -92 -369 51 140 39 hlineto
          36 -140 rlineto
          52 hlineto
          -41 151 rlineto
          30 17 4 41 47 vvcurveto
          -87 -70 rmoveto
          -33 136 33 hlineto
          34 3 -18 -49 -51 -3 -18 -34 hvcurveto
          endchar
        </CharString>
        <CharString name="rightCloseDialog">
          270 624 688 rmoveto
          -625 -60 565 -568 -190 hlineto
          -188 -187 rlineto
          -85 vlineto
          213 212 rlineto
          225 hlineto
          -438 60 rmoveto
          -187 -60 187 hlineto
          endchar
        </CharString>
        <CharString name="rightOpenDialog">
          270 625 688 rmoveto
          -626 -60 566 -568 -566 -60 626 hlineto
          endchar
        </CharString>
        <CharString name="ring">
          -130 100 616 -89 callgsubr
          endchar
        </CharString>
        <CharString name="s">
          -63 callsubr
          endchar
        </CharString>
        <CharString name="sacute">
          -12 124 -81 callsubr
          31 -614 -97 callsubr
          endchar
        </CharString>
        <CharString name="sacute.loclPLK">
          -12 124 601 rmoveto
          -71 callsubr
          31 -614 -97 callsubr
          endchar
        </CharString>
        <CharString name="scaron">
          -12 119 611 -97 callgsubr
          103 -744 -97 callsubr
          endchar
        </CharString>
        <CharString name="scedilla">
          -12 293 146 rmoveto
          112 -28 20 -47 8 vhcurveto
          -74 13 rlineto
          -31 6 -7 6 62 vvcurveto
          62 24 14 46 33 41 -4 -7 24 vhcurveto
          66 vlineto
          8 -25 -45 6 -37 hhcurveto
          -88 -53 -33 -117 -91 18 -35 49 -9 hvcurveto
          80 -14 rlineto
          33 -6 9 -3 -70 vvcurveto
          -51 -15 -28 -60 -35 -46 4 6 -23 vhcurveto
          -65 vlineto
          21 -6 37 -5 34 -2 -54 -177 rcurveline
          19 callsubr
          74 8 35 43 102 vvcurveto
          endchar
        </CharString>
        <CharString name="scircumflex">
          -12 49 611 -106 callgsubr
          106 -626 -97 callsubr
          endchar
        </CharString>
        <CharString name="scommaaccent">
          -63 callsubr
          -45 -207 -86 callsubr
        </CharString>
        <CharString name="second">
          -48 32 380 -7 callgsubr
          108 -308 -7 callgsubr
          endchar
        </CharString>
        <CharString name="section">
          94 194 -170 rmoveto
          96 58 36 128 60 -11 32 -27 22 hvcurveto
          52 16 24 44 90 vvcurveto
          123 -49 19 -59 25 vhcurveto
          -81 33 rlineto
          -27 11 -11 10 57 vvcurveto
          68 27 15 50 37 47 -5 -6 25 vhcurveto
          72 vlineto
          9 -22 -47 7 -46 hhcurveto
          -96 -58 -36 -129 -60 11 -31 27 -23 hvcurveto
          -52 -16 -24 -43 -90 vvcurveto
          -122 47 -19 56 -24 vhcurveto
          85 -35 rlineto
          28 -12 11 -8 -58 vvcurveto
          -68 -27 -15 -50 -36 -47 4 6 -26 vhcurveto
          -72 vlineto
          -9 26 47 -6 42 hhcurveto
          65 316 rmoveto
          -3 -4 1 4 -10 hvcurveto
          -88 38 rlineto
          -21 9 -12 15 68 vvcurveto
          68 23 30 21 3 4 -1 -6 13 vhcurveto
          91 -38 rlineto
          15 -7 12 -15 -69 vvcurveto
          -67 -23 -30 -21 vhcurveto
          endchar
        </CharString>
        <CharString name="semicolon">
          21 callsubr
          -14 -597 -8 callsubr
        </CharString>
        <CharString name="seven">
          7 61 hmoveto
          88 hlineto
          171 621 rlineto
          67 -302 -77 215 vlineto
          endchar
        </CharString>
        <CharString name="seven.dnom">
          -129 36 hmoveto
          -14 callsubr
          endchar
        </CharString>
        <CharString name="seven.numr">
          -129 36 308 rmoveto
          -14 callsubr
          endchar
        </CharString>
        <CharString name="seven.tnum">
          71 90 hmoveto
          88 hlineto
          182 621 rlineto
          67 -314 -77 226 vlineto
          endchar
        </CharString>
        <CharString name="seveneighths">
          205 63 hmoveto
          -46 callgsubr
          -313 -380 rmoveto
          -14 callsubr
          279 -642 -96 callgsubr
        </CharString>
        <CharString name="six">
          60 204 -8 rmoveto
          128 27 55 175 176 -38 20 -93 -65 -24 -26 -24 -10 hvcurveto
          -7 hlineto
          214 11 37 104 28 43 -5 -6 31 vhcurveto
          71 vlineto
          10 -35 -48 7 -34 hhcurveto
          -94 -46 -31 -88 -26 hvcurveto
          -14 -45 -3 -82 -111 vvcurveto
          -116 2 -79 9 -36 vhcurveto
          -97 25 42 -19 87 hhcurveto
          -3 77 rmoveto
          -61 -17 17 139 93 8 22 70 64 12 -6 -131 -119 -14 -15 -62 hvcurveto
          endchar
        </CharString>
        <CharString name="six.dnom">
          -92 125 -4 -62 callgsubr
        </CharString>
        <CharString name="six.numr">
          -92 125 304 -62 callgsubr
        </CharString>
        <CharString name="six.ss01">
          63 196 -8 rmoveto
          136 30 71 142 144 -22 68 -110 -47 -24 -9 -20 -15 hvcurveto
          -4 3 25 94 57 107 73 90 rlinecurve
          6 -92 vlineto
          -108 -135 -62 -165 -162 vvcurveto
          -166 28 -68 135 vhcurveto
          1 77 rmoveto
          -61 -18 13 135 111 23 13 56 58 22 -1 -135 -115 -16 -21 -64 hvcurveto
          endchar
        </CharString>
        <CharString name="six.tnum">
          71 209 -8 rmoveto
          128 26 55 175 176 -38 20 -92 -54 -33 -18 -32 -13 hvcurveto
          -7 hlineto
          214 11 37 104 30 43 -5 -6 30 vhcurveto
          71 vlineto
          10 -34 -48 7 -35 hhcurveto
          -84 -47 -25 -70 -29 hvcurveto
          -20 -46 -3 -89 -127 vvcurveto
          -118 2 -79 11 -42 vhcurveto
          -89 22 43 -19 87 hhcurveto
          -4 77 rmoveto
          -61 -16 17 139 93 7 22 70 64 13 -6 -131 -119 -14 -15 -63 hvcurveto
          endchar
        </CharString>
        <CharString name="slash">
          -62 25 -55 rmoveto
          73 hlineto
          145 798 rlineto
          -74 hlineto
          endchar
        </CharString>
        <CharString name="space">
          -172 endchar
        </CharString>
        <CharString name="sterling">
          38 165 77 rmoveto
          241 121 77 -121 65 vlineto
          77 7 43 24 22 vhcurveto
          12 13 18 5 26 hhcurveto
          22 30 -4 -4 19 hvcurveto
          73 vlineto
          7 -21 -37 5 -29 hhcurveto
          -125 -31 -71 -171 hvcurveto
          -59 -48 -77 48 -241 -48 -77 297 77 vlineto
          endchar
        </CharString>
        <CharString name="summation">
          105 53 -189 rmoveto
          329 77 -236 hlineto
          171 361 -171 362 rlineto
          236 77 -329 -73 hlineto
          172 -366 -172 -365 rlineto
          endchar
        </CharString>
        <CharString name="t">
          -90 73 hmoveto
          -38 callsubr
          endchar
        </CharString>
        <CharString name="tbar">
          -90 224 441 rmoveto
          69 -71 148 -80 -148 -57 -69 57 -146 -50 -69 50 -226 80 226 68 69 -68 146 vlineto
          endchar
        </CharString>
        <CharString name="tcaron">
          -33 252 440 -34 callsubr
          -193 -618 rmoveto
          -38 callsubr
          endchar
        </CharString>
        <CharString name="thorn">
          58 48 -190 rmoveto
          80 250 1 callgsubr
          -47 -36 -18 -52 -12 hvcurveto
          -6 295 -80 hlineto
          152 -679 rmoveto
          -37 -20 15 57 -11 hvcurveto
          -3 22 -1 40 57 vvcurveto
          56 0 41 5 29 vhcurveto
          51 9 21 14 37 hhcurveto
          64 9 -18 23 callgsubr
        </CharString>
        <CharString name="three">
          20 151 -8 rmoveto
          127 37 60 130 114 -31 40 -51 14 hvcurveto
          4 vlineto
          50 15 26 12 callsubr
          -38 vhcurveto
          -71 vlineto
          5 34 45 4 29 hhcurveto
          74 24 -15 -101 -98 -28 -17 callgsubr
          56 -7 40 hhcurveto
          endchar
        </CharString>
        <CharString name="three.dnom">
          -116 92 -4 -74 callsubr
          endchar
        </CharString>
        <CharString name="three.numr">
          -116 92 304 -74 callsubr
          endchar
        </CharString>
        <CharString name="three.tnum">
          71 183 -8 rmoveto
          126 37 60 130 114 -30 40 -52 14 hvcurveto
          4 vlineto
          50 15 27 12 callsubr
          -39 vhcurveto
          -71 vlineto
          5 35 45 4 29 hhcurveto
          73 24 -15 -101 -98 -27 -17 callgsubr
          55 -7 41 hhcurveto
          endchar
        </CharString>
        <CharString name="threeeighths">
          245 92 304 -74 callsubr
          11 -304 rmoveto
          -46 callgsubr
          64 -692 -96 callgsubr
        </CharString>
        <CharString name="threequarters">
          223 45 367 rmoveto
          -50 vlineto
          -5 28 30 -4 20 hhcurveto
          -54 callsubr
          67 -367 rmoveto
          -46 callgsubr
          27 1 callsubr
          71 20 callsubr
          114 vlineto
          endchar
        </CharString>
        <CharString name="tilde">
          -77 253 743 rmoveto
          -44 callsubr
        </CharString>
        <CharString name="tildecomb">
          743 -45 callsubr
        </CharString>
        <CharString name="tildecomb.case">
          888 -45 callsubr
        </CharString>
        <CharString name="trademark">
          139 82 385 rmoveto
          40 265 51 38 -143 -38 52 hlineto
          126 -265 rmoveto
          38 239 4 hlineto
          41 -239 rlineto
          45 hlineto
          40 239 rlineto
          4 -239 39 303 -63 hlineto
          -40 -239 rlineto
          -4 hlineto
          -40 239 rlineto
          -64 hlineto
          endchar
        </CharString>
        <CharString name="two">
          35 118 116 rmoveto
          61 0 31 7 18 vhcurveto
          5 14 8 8 12 8 109 75 rcurveline
          46 22 callgsubr
          -83 -47 -60 -6 -8 -33 vhcurveto
          -72 vlineto
          5 41 49 4 29 hhcurveto
          71 17 -16 -95 -69 -11 -22 -36 -25 hvcurveto
          -103 -71 rlineto
          -64 -44 0 -37 -163 vvcurveto
          -77 297 77 -213 vlineto
          endchar
        </CharString>
        <CharString name="two.dnom">
          -107 79 66 -60 callsubr
        </CharString>
        <CharString name="two.numr">
          -107 79 374 -60 callsubr
        </CharString>
        <CharString name="two.tnum">
          71 139 116 rmoveto
          54 0 30 6 20 vhcurveto
          4 17 8 9 13 10 39 26 37 25 34 24 rrcurveto
          47 22 callgsubr
          -84 -47 -59 -6 -8 -33 vhcurveto
          -72 vlineto
          5 40 50 4 29 hhcurveto
          71 16 -16 -95 -69 -10 -22 -37 -25 hvcurveto
          -34 -24 -35 -24 -34 -23 rrcurveto
          -64 -44 0 -37 -163 vvcurveto
          -77 298 77 -214 vlineto
          endchar
        </CharString>
        <CharString name="u">
          60 268 hmoveto
          74 -36 callgsubr
          -102 callgsubr
          endchar
        </CharString>
        <CharString name="uacute">
          60 160 -81 callsubr
          108 -606 rmoveto
          74 -36 callgsubr
          -102 callgsubr
          endchar
        </CharString>
        <CharString name="ubreve">
          60 301 -70 callsubr
          -33 -743 rmoveto
          74 -36 callgsubr
          -102 callgsubr
          endchar
        </CharString>
        <CharString name="ucircumflex">
          60 84 611 -106 callgsubr
          184 -618 rmoveto
          74 -36 callgsubr
          -102 callgsubr
          endchar
        </CharString>
        <CharString name="udieresis">
          60 72 648 -88 callgsubr
          29 -730 rmoveto
          74 -36 callgsubr
          -102 callgsubr
          endchar
        </CharString>
        <CharString name="ugrave">
          60 170 601 -89 callsubr
          151 -738 rmoveto
          74 -36 callgsubr
          -102 callgsubr
          endchar
        </CharString>
        <CharString name="uhorn">
          60 355 604 rmoveto
          -38 vlineto
          -40 -5 -16 -42 vhcurveto
          -46 -102 callgsubr
          4 -68 rlineto
          74 469 hlineto
          -55 callgsubr
          endchar
        </CharString>
        <CharString name="uhungarumlaut">
          60 120 611 -79 callgsubr
          34 -616 rmoveto
          74 -36 callgsubr
          -102 callgsubr
          endchar
        </CharString>
        <CharString name="umacron">
          60 110 668 -66 callsubr
          158 -743 rmoveto
          74 -36 callgsubr
          -102 callgsubr
          endchar
        </CharString>
        <CharString name="underscore">
          -14 -174 vmoveto
          316 70 -316 hlineto
          endchar
        </CharString>
        <CharString name="underscoredbl">
          -14 -162 vmoveto
          316 64 -316 hlineto
          -170 vmoveto
          316 64 -316 hlineto
          endchar
        </CharString>
        <CharString name="uni00AD">
          13 callgsubr
        </CharString>
        <CharString name="uni00B2">
          -68 101 389 rmoveto
          -51 callsubr
          53 -117 vlineto
          endchar
        </CharString>
        <CharString name="uni00B3">
          -68 123 308 rmoveto
          -54 callsubr
          -50 vlineto
          -5 28 30 -4 20 hhcurveto
          endchar
        </CharString>
        <CharString name="uni00B5">
          -47 callgsubr
        </CharString>
        <CharString name="uni00B9">
          -131 89 316 rmoveto
          57 372 -43 hlineto
          -58 -36 rlineto
          -55 vlineto
          44 21 rlineto
          endchar
        </CharString>
        <CharString name="uni0162">
          11 11 688 rmoveto
          -79 117 -609 15 15 callgsubr
          16 609 118 79 hlineto
          endchar
        </CharString>
        <CharString name="uni0163">
          -90 153 510 rmoveto
          148 -80 -148 -57 -69 57 -441 12 15 callgsubr
          14 441 71 69 hlineto
          endchar
        </CharString>
        <CharString name="uni018F">
          95 200 696 rmoveto
          -46 -44 -7 -8 -27 hvcurveto
          -71 vlineto
          4 24 39 5 30 hhcurveto
          109 14 -24 -209 1 hvcurveto
          -261 -42 hlineto
          -287 11 -65 162 163 10 65 287 285 -24 67 -161 vhcurveto
          12 -627 rmoveto
          -77 -14 10 230 -1 hvcurveto
          184 hlineto
          -230 -1 -13 -10 -78 hhcurveto
          endchar
        </CharString>
        <CharString name="uni019D">
          107 304 688 rmoveto
          -460 -5 vlineto
          -163 460 rlineto
          -84 -764 hlineto
          -41 -3 -14 -52 vhcurveto
          -62 vlineto
          103 33 11 142 hvcurveto
          515 4 vlineto
          168 -475 rlineto
          79 688 hlineto
          endchar
        </CharString>
        <CharString name="uni01C4">
          431 549 756 -97 callgsubr
          -430 -881 rmoveto
          -57 callsubr
        </CharString>
        <CharString name="uni01C5">
          401 533 611 -97 callgsubr
          -414 -736 rmoveto
          -76 callsubr
          239 -77 rmoveto
          -82 callgsubr
          endchar
        </CharString>
        <CharString name="uni01C6">
          377 -77 callgsubr
          339 619 -97 callgsubr
          -17 -736 rmoveto
          -82 callgsubr
          -226 2 -72 callsubr
          endchar
        </CharString>
        <CharString name="uni01C7">
          193 52 hmoveto
          -40 callgsubr
          263 -614 -70 callgsubr
        </CharString>
        <CharString name="uni01C8">
          153 354 -20 callgsubr
          -302 -743 rmoveto
          -40 callgsubr
          248 -881 -72 callgsubr
        </CharString>
        <CharString name="uni01C9">
          22 4 callsubr
          175 -91 -21 callgsubr
          -54 -936 -72 callgsubr
        </CharString>
        <CharString name="uni01CA">
          323 305 hmoveto
          -78 callsubr
          308 -401 -70 callgsubr
        </CharString>
        <CharString name="uni01CB">
          283 484 -20 callgsubr
          -179 -743 rmoveto
          -78 callsubr
          293 -668 -72 callgsubr
        </CharString>
        <CharString name="uni01CC">
          236 437 -20 callgsubr
          -172 -743 rmoveto
          -84 callgsubr
          118 -491 -72 callgsubr
        </CharString>
        <CharString name="uni01CD">
          83 164 756 -97 callgsubr
          217 -881 rmoveto
          -103 callgsubr
          endchar
        </CharString>
        <CharString name="uni01CD.ss01">
          95 170 756 -97 callgsubr
          190 -881 -102 callsubr
        </CharString>
        <CharString name="uni01CE">
          35 140 611 -97 callgsubr
          65 -744 -107 callgsubr
          endchar
        </CharString>
        <CharString name="uni01CF">
          -134 55 756 -97 callgsubr
          67 -881 -43 callgsubr
        </CharString>
        <CharString name="uni01D0">
          -154 45 611 -97 callgsubr
          70 -736 -50 callsubr
        </CharString>
        <CharString name="uni01D1">
          95 169 756 -97 callgsubr
          110 -889 -104 callsubr
          endchar
        </CharString>
        <CharString name="uni01D2">
          49 146 611 -97 callgsubr
          110 -744 -104 callgsubr
          endchar
        </CharString>
        <CharString name="uni01D3">
          95 170 756 -97 callgsubr
          190 -193 rmoveto
          -428 vlineto
          -101 callsubr
          389 vlineto
          endchar
        </CharString>
        <CharString name="uni01D4">
          60 152 611 -97 callgsubr
          183 -736 rmoveto
          74 -36 callgsubr
          -102 callgsubr
          endchar
        </CharString>
        <CharString name="uni01D5">
          95 130 930 rmoveto
          170 69 -170 hlineto
          -38 -206 -34 callgsubr
          -187 rmoveto
          -428 vlineto
          -101 callsubr
          389 vlineto
          endchar
        </CharString>
        <CharString name="uni01D6">
          60 112 828 -66 callsubr
          -38 -255 -88 callgsubr
          27 -730 rmoveto
          74 -36 callgsubr
          -102 callgsubr
          endchar
        </CharString>
        <CharString name="uni01D7">
          95 184 873 -100 callgsubr
          -92 -85 -34 callgsubr
          -187 rmoveto
          -428 vlineto
          -101 callsubr
          389 vlineto
          endchar
        </CharString>
        <CharString name="uni01D8">
          60 162 761 -100 callgsubr
          -88 -118 -88 callgsubr
          27 -730 rmoveto
          74 -36 callgsubr
          -102 callgsubr
          endchar
        </CharString>
        <CharString name="uni01D9">
          95 172 883 -97 callgsubr
          -13 -215 -34 callgsubr
          -187 rmoveto
          -428 vlineto
          -101 callsubr
          389 vlineto
          endchar
        </CharString>
        <CharString name="uni01DA">
          60 154 771 -97 callgsubr
          -13 -248 -88 callgsubr
          27 -730 rmoveto
          74 -36 callgsubr
          -102 callgsubr
          endchar
        </CharString>
        <CharString name="uni01DB">
          95 185 873 -89 callsubr
          -40 -217 -34 callgsubr
          -187 rmoveto
          -428 vlineto
          -101 callsubr
          389 vlineto
          endchar
        </CharString>
        <CharString name="uni01DC">
          60 164 761 -89 callsubr
          -37 -250 -88 callgsubr
          27 -730 rmoveto
          74 -36 callgsubr
          -102 callgsubr
          endchar
        </CharString>
        <CharString name="uni01EA">
          95 284 0 callgsubr
          18 23 46 38 56 30 23 hvcurveto
          49 41 5 92 190 vvcurveto
          287 -10 65 -163 -162 -11 -65 -287 -287 11 -65 162 12 11 1 1 9 vhcurveto
          -27 -34 -19 -41 -37 vvcurveto
          -41 23 -37 63 vhcurveto
          -72 265 -55 callsubr
        </CharString>
        <CharString name="uni01EB">
          49 189 518 rmoveto
          -140 -13 -50 -214 -213 13 -49 140 hvcurveto
          27 hlineto
          -26 -33 -18 -40 -36 vvcurveto
          -43 22 -36 64 12 4 callgsubr
          41 25 52 34 26 hvcurveto
          41 31 6 69 138 vvcurveto
          214 -13 50 -141 vhcurveto
          -457 vmoveto
          -40 callsubr
        </CharString>
        <CharString name="uni01F1">
          431 52 hmoveto
          -57 callsubr
        </CharString>
        <CharString name="uni01F2">
          401 52 hmoveto
          -76 callsubr
          239 -77 rmoveto
          -82 callgsubr
          endchar
        </CharString>
        <CharString name="uni01F3">
          377 -77 callgsubr
          255 8 rmoveto
          -82 callgsubr
          -226 2 -72 callsubr
          endchar
        </CharString>
        <CharString name="uni01F4">
          71 169 746 -100 callgsubr
          114 -452 -95 callsubr
          endchar
        </CharString>
        <CharString name="uni01F4.ss01">
          82 175 746 -100 callgsubr
          42 -759 -94 callgsubr
          endchar
        </CharString>
        <CharString name="uni01F5">
          58 159 -81 callsubr
          15 -806 -101 callgsubr
        </CharString>
        <CharString name="uni0200">
          83 177 756 -95 callgsubr
          77 -756 rmoveto
          -103 callgsubr
          endchar
        </CharString>
        <CharString name="uni0200.ss01">
          95 183 756 -95 callgsubr
          50 -756 -102 callsubr
        </CharString>
        <CharString name="uni0201">
          35 153 611 -95 callgsubr
          -75 -619 -107 callgsubr
          endchar
        </CharString>
        <CharString name="uni0202">
          83 99 758 -88 callsubr
          215 -758 rmoveto
          -103 callgsubr
          endchar
        </CharString>
        <CharString name="uni0202.ss01">
          95 105 758 -88 callsubr
          188 -758 -102 callsubr
        </CharString>
        <CharString name="uni0203">
          35 75 613 -88 callsubr
          63 -621 -107 callgsubr
          endchar
        </CharString>
        <CharString name="uni0204">
          17 156 756 -95 callgsubr
          -164 -756 rmoveto
          -93 callsubr
          endchar
        </CharString>
        <CharString name="uni0205">
          38 154 611 -95 callgsubr
          118 -356 -105 callgsubr
          endchar
        </CharString>
        <CharString name="uni0206">
          17 78 758 -88 callsubr
          -26 -758 rmoveto
          -93 callsubr
          endchar
        </CharString>
        <CharString name="uni0207">
          38 183 698 -42 callsubr
          149 -443 -105 callgsubr
          endchar
        </CharString>
        <CharString name="uni0208">
          -134 68 756 -95 callgsubr
          -73 -756 -43 callgsubr
        </CharString>
        <CharString name="uni0209">
          -154 58 611 -95 callgsubr
          -70 -611 -50 callsubr
        </CharString>
        <CharString name="uni020A">
          -134 -10 758 -88 callsubr
          65 -758 -43 callgsubr
        </CharString>
        <CharString name="uni020B">
          -154 -20 613 -88 callsubr
          68 -613 -50 callsubr
        </CharString>
        <CharString name="uni020C">
          95 182 756 -95 callgsubr
          -30 -764 -104 callsubr
          endchar
        </CharString>
        <CharString name="uni020D">
          49 159 611 -95 callgsubr
          -30 -619 -104 callgsubr
          endchar
        </CharString>
        <CharString name="uni020E">
          95 104 758 -88 callsubr
          108 -766 -104 callsubr
          endchar
        </CharString>
        <CharString name="uni020F">
          49 81 613 -88 callsubr
          108 -621 -104 callgsubr
          endchar
        </CharString>
        <CharString name="uni0210">
          83 177 756 -95 callgsubr
          150 -756 rmoveto
          -83 callsubr
        </CharString>
        <CharString name="uni0210.ss01">
          84 177 756 -95 callgsubr
          131 -583 -94 callsubr
          endchar
        </CharString>
        <CharString name="uni0211">
          -77 97 611 -95 callgsubr
          -109 -611 rmoveto
          -73 callgsubr
          endchar
        </CharString>
        <CharString name="uni0212">
          83 206 843 -42 callsubr
          181 -843 rmoveto
          -83 callsubr
        </CharString>
        <CharString name="uni0212.ss01">
          84 206 843 -42 callsubr
          162 -670 -94 callsubr
          endchar
        </CharString>
        <CharString name="uni0213">
          -77 19 613 -88 callsubr
          29 -613 rmoveto
          -73 callgsubr
          endchar
        </CharString>
        <CharString name="uni0214">
          95 183 756 -95 callgsubr
          50 -68 rmoveto
          -428 vlineto
          -101 callsubr
          389 vlineto
          endchar
        </CharString>
        <CharString name="uni0215">
          60 165 611 -95 callgsubr
          43 -611 rmoveto
          74 -36 callgsubr
          -102 callgsubr
          endchar
        </CharString>
        <CharString name="uni0216">
          95 105 758 -88 callsubr
          188 -70 rmoveto
          -428 vlineto
          -101 callsubr
          389 vlineto
          endchar
        </CharString>
        <CharString name="uni0217">
          60 87 613 -88 callsubr
          181 -613 rmoveto
          74 -36 callgsubr
          -102 callgsubr
          endchar
        </CharString>
        <CharString name="uni021A">
          11 128 hmoveto
          -29 callgsubr
          -6 -824 -86 callsubr
        </CharString>
        <CharString name="uni021B">
          -90 73 hmoveto
          -38 callsubr
          -9 -656 -86 callsubr
        </CharString>
        <CharString name="uni0232">
          35 98 813 -66 callsubr
          42 -888 -74 callgsubr
        </CharString>
        <CharString name="uni0232.loclGUA">
          36 268 888 20 callgsubr
          -5 -125 -93 callgsubr
          endchar
        </CharString>
        <CharString name="uni0233">
          60 110 668 -66 callsubr
          67 -943 -98 callsubr
          endchar
        </CharString>
        <CharString name="uni0233.loclGUA">
          22 260 743 20 callgsubr
          79 -158 -86 callgsubr
          endchar
        </CharString>
        <CharString name="uni0237">
          -154 -7 -193 -72 callgsubr
        </CharString>
        <CharString name="uni0259">
          38 174 518 rmoveto
          -46 -53 -6 -7 -29 hvcurveto
          -66 vlineto
          5 32 50 5 29 hhcurveto
          88 7 -27 -142 hvcurveto
          -216 -25 hlineto
          -198 5 -65 136 148 7 74 190 195 -13 67 -145 vhcurveto
          5 -457 rmoveto
          -55 -13 13 135 hvcurveto
          12 141 vlineto
          -142 -8 -18 -65 vhcurveto
          endchar
        </CharString>
        <CharString name="uni0272">
          60 -7 -193 rmoveto
          102 33 11 142 hvcurveto
          301 vlineto
          125 0 59 71 57 9 -31 callgsubr
          -298 80 331 vlineto
          -41 callgsubr
          -32 -27 -49 -13 vhcurveto
          -6 -27 callgsubr
          -586 hlineto
          -41 -3 -14 -52 vhcurveto
          endchar
        </CharString>
        <CharString name="uni02BC">
          -208 -8 callgsubr
          endchar
        </CharString>
        <CharString name="uni02C9">
          -54 53 668 -66 callsubr
          endchar
        </CharString>
        <CharString name="uni0302">
          -220 611 -106 callgsubr
          endchar
        </CharString>
        <CharString name="uni0302.case">
          -220 756 -106 callgsubr
          endchar
        </CharString>
        <CharString name="uni03020300">
          -57 754 -89 callsubr
          -110 -280 -106 callgsubr
          endchar
        </CharString>
        <CharString name="uni03020300.case">
          -57 877 -89 callsubr
          -110 -280 -106 callgsubr
          endchar
        </CharString>
        <CharString name="uni03020301">
          -66 754 -81 callgsubr
          endchar
        </CharString>
        <CharString name="uni03020301.case">
          -66 877 -81 callgsubr
          endchar
        </CharString>
        <CharString name="uni03020303">
          18 916 rmoveto
          -107 callsubr
          -238 -305 -106 callgsubr
          endchar
        </CharString>
        <CharString name="uni03020303.case">
          18 1040 rmoveto
          -107 callsubr
          -238 -305 -106 callgsubr
          endchar
        </CharString>
        <CharString name="uni03020309">
          -65 752 -105 callsubr
          -155 -157 -106 callgsubr
          endchar
        </CharString>
        <CharString name="uni03020309.case">
          -65 876 -105 callsubr
          -155 -158 -106 callgsubr
          endchar
        </CharString>
        <CharString name="uni0304">
          -223 668 -66 callsubr
          endchar
        </CharString>
        <CharString name="uni0304.case">
          -223 813 -66 callsubr
          endchar
        </CharString>
        <CharString name="uni0306">
          743 -17 callsubr
        </CharString>
        <CharString name="uni0306.case">
          888 -17 callsubr
        </CharString>
        <CharString name="uni03060300">
          -137 774 -37 callsubr
        </CharString>
        <CharString name="uni03060300.case">
          -137 919 -37 callsubr
        </CharString>
        <CharString name="uni03060301">
          -140 774 -39 callgsubr
        </CharString>
        <CharString name="uni03060301.case">
          -140 919 -39 callgsubr
        </CharString>
        <CharString name="uni03060303">
          22 916 rmoveto
          -107 callsubr
          -22 -173 rmoveto
          -103 callsubr
          endchar
        </CharString>
        <CharString name="uni03060303.case">
          22 1061 rmoveto
          -107 callsubr
          -22 -173 rmoveto
          -103 callsubr
          endchar
        </CharString>
        <CharString name="uni03060309">
          -144 746 -105 callsubr
          144 -19 rmoveto
          -103 callsubr
          endchar
        </CharString>
        <CharString name="uni03060309.case">
          -144 891 -105 callsubr
          144 -19 rmoveto
          -103 callsubr
          endchar
        </CharString>
        <CharString name="uni0307">
          -85 -28 callgsubr
          endchar
        </CharString>
        <CharString name="uni0307.case">
          -85 -33 callgsubr
          endchar
        </CharString>
        <CharString name="uni0308">
          -257 648 -88 callgsubr
          endchar
        </CharString>
        <CharString name="uni0308.case">
          -257 793 -88 callgsubr
          endchar
        </CharString>
        <CharString name="uni030A">
          -100 616 -89 callgsubr
          endchar
        </CharString>
        <CharString name="uni030A.case">
          -100 731 -89 callgsubr
          endchar
        </CharString>
        <CharString name="uni030B">
          -226 611 -79 callgsubr
          endchar
        </CharString>
        <CharString name="uni030B.case">
          -226 756 -79 callgsubr
          endchar
        </CharString>
        <CharString name="uni030C">
          -153 611 -97 callgsubr
          endchar
        </CharString>
        <CharString name="uni030C.case">
          -153 756 -97 callgsubr
          endchar
        </CharString>
        <CharString name="uni030F">
          -126 611 -95 callgsubr
          endchar
        </CharString>
        <CharString name="uni030F.case">
          -126 756 -95 callgsubr
          endchar
        </CharString>
        <CharString name="uni0311">
          -214 613 -88 callsubr
          endchar
        </CharString>
        <CharString name="uni0311.case">
          -214 758 -88 callsubr
          endchar
        </CharString>
        <CharString name="uni0312">
          -297 -4 callgsubr
          endchar
        </CharString>
        <CharString name="uni031B">
          -152 510 rmoveto
          -46 -43 46 hlineto
          89 14 24 86 hvcurveto
          27 -56 -38 vlineto
          -40 -5 -16 -42 vhcurveto
          endchar
        </CharString>
        <CharString name="uni0326">
          -140 -215 -86 callsubr
        </CharString>
        <CharString name="uni0327">
          -123 2 callgsubr
        </CharString>
        <CharString name="uni0328">
          -193 vmoveto
          -35 callgsubr
        </CharString>
        <CharString name="uni0335">
          -218 309 rmoveto
          212 79 -212 hlineto
          endchar
        </CharString>
        <CharString name="uni0336">
          -53 485 rmoveto
          79 -330 -79 vlineto
          endchar
        </CharString>
        <CharString name="uni0394">
          -24 callgsubr
        </CharString>
        <CharString name="uni03A9">
          -64 callsubr
        </CharString>
        <CharString name="uni03BC">
          -47 callgsubr
        </CharString>
        <CharString name="uni1E0C">
          82 52 hmoveto
          -76 callsubr
          -38 -237 -80 callsubr
        </CharString>
        <CharString name="uni1E0D">
          58 -77 callgsubr
          29 73 -72 callsubr
          -39 -225 -80 callsubr
        </CharString>
        <CharString name="uni1E24">
          105 298 hmoveto
          -33 callsubr
          -126 -467 -80 callsubr
        </CharString>
        <CharString name="uni1E25">
          60 265 hmoveto
          -59 callsubr
          -115 -458 -80 callsubr
        </CharString>
        <CharString name="uni1E44">
          107 181 -33 callgsubr
          124 -875 rmoveto
          -78 callsubr
          endchar
        </CharString>
        <CharString name="uni1E45">
          60 157 -28 callgsubr
          108 -730 rmoveto
          -85 callgsubr
        </CharString>
        <CharString name="uni1E5A">
          -49 callsubr
          -52 -501 -80 callsubr
        </CharString>
        <CharString name="uni1E5A.ss01">
          -58 callsubr
          -53 -505 -80 callsubr
        </CharString>
        <CharString name="uni1E5B">
          -21 callsubr
          -5 -670 -80 callsubr
        </CharString>
        <CharString name="uni1E62">
          -68 callsubr
          -41 -152 -80 callsubr
        </CharString>
        <CharString name="uni1E63">
          -63 callsubr
          -41 -152 -80 callsubr
        </CharString>
        <CharString name="uni1E6C">
          11 128 hmoveto
          -29 callgsubr
          -2 -769 -80 callsubr
        </CharString>
        <CharString name="uni1E6D">
          -90 73 hmoveto
          -38 callsubr
          -5 -601 -80 callsubr
        </CharString>
        <CharString name="uni1E92">
          19 22 hmoveto
          -77 callsubr
          108 -232 -80 callsubr
        </CharString>
        <CharString name="uni1E93">
          -11 26 hmoveto
          -82 callgsubr
          89 -223 -80 callsubr
        </CharString>
        <CharString name="uni1E9E">
          155 314 376 rmoveto
          111 227 rlineto
          63 vlineto
          16 -44 -78 14 -73 hhcurveto
          -159 -23 -66 -257 hvcurveto
          -373 85 373 vlineto
          220 9 26 94 38 35 -5 -9 30 vhcurveto
          -113 -232 rlineto
          -63 59 vlineto
          61 21 -28 -96 -102 -29 -15 -69 -19 -32 4 5 -28 hvcurveto
          -70 vlineto
          -9 28 43 -7 31 hhcurveto
          124 35 60 130 138 -46 52 -91 4 hvcurveto
          endchar
        </CharString>
        <CharString name="uni1EA0">
          83 314 hmoveto
          -103 callgsubr
          -41 -747 -80 callsubr
        </CharString>
        <CharString name="uni1EA0.ss01">
          95 293 hmoveto
          -106 callsubr
          -125 -588 -80 callsubr
        </CharString>
        <CharString name="uni1EA1">
          35 138 -8 -107 callgsubr
          -25 -224 -80 callsubr
        </CharString>
        <CharString name="uni1EA2">
          83 156 737 -96 callsubr
          158 -754 rmoveto
          -103 callgsubr
          endchar
        </CharString>
        <CharString name="uni1EA2.ss01">
          95 162 737 -96 callsubr
          131 -754 -102 callsubr
        </CharString>
        <CharString name="uni1EA3">
          35 132 613 -105 callsubr
          6 -637 -107 callgsubr
          endchar
        </CharString>
        <CharString name="uni1EA4">
          83 251 877 -81 callgsubr
          217 -741 rmoveto
          -103 callgsubr
          endchar
        </CharString>
        <CharString name="uni1EA4.ss01">
          95 257 877 -81 callgsubr
          190 -741 -102 callsubr
        </CharString>
        <CharString name="uni1EA5">
          35 227 754 -81 callgsubr
          65 -626 -107 callgsubr
          endchar
        </CharString>
        <CharString name="uni1EA6">
          83 255 877 -89 callsubr
          -110 -280 -106 callgsubr
          222 -741 rmoveto
          -103 callgsubr
          endchar
        </CharString>
        <CharString name="uni1EA6.ss01">
          95 261 877 -89 callsubr
          -110 -280 -106 callgsubr
          195 -741 -102 callsubr
        </CharString>
        <CharString name="uni1EA7">
          35 231 754 -89 callsubr
          -110 -280 -106 callgsubr
          70 -626 -107 callgsubr
          endchar
        </CharString>
        <CharString name="uni1EA8">
          83 252 876 -105 callsubr
          -155 -158 -12 callsubr
          -741 rmoveto
          -103 callgsubr
          endchar
        </CharString>
        <CharString name="uni1EA8.ss01">
          95 258 876 -105 callsubr
          -155 -158 -11 callgsubr
          -741 -102 callsubr
        </CharString>
        <CharString name="uni1EA9">
          35 228 752 -105 callsubr
          -155 -157 -106 callgsubr
          65 -626 -107 callgsubr
          endchar
        </CharString>
        <CharString name="uni1EAA">
          83 333 1040 rmoveto
          -107 callsubr
          -238 -305 -106 callgsubr
          219 -742 rmoveto
          -103 callgsubr
          endchar
        </CharString>
        <CharString name="uni1EAA.ss01">
          95 339 1040 rmoveto
          -107 callsubr
          -238 -305 -106 callgsubr
          192 -742 -102 callsubr
        </CharString>
        <CharString name="uni1EAB">
          35 309 916 rmoveto
          -107 callsubr
          -238 -305 -106 callgsubr
          67 -626 -107 callgsubr
          endchar
        </CharString>
        <CharString name="uni1EAC">
          83 97 756 -12 callsubr
          -763 rmoveto
          -103 callgsubr
          -41 -747 -80 callsubr
        </CharString>
        <CharString name="uni1EAC.ss01">
          95 103 756 -11 callgsubr
          -763 rmoveto
          -106 callsubr
          -125 -588 -80 callsubr
        </CharString>
        <CharString name="uni1EAD">
          35 73 611 -106 callgsubr
          65 -626 -107 callgsubr
          -25 -224 -80 callsubr
        </CharString>
        <CharString name="uni1EAE">
          83 173 919 -37 callgsubr
          1 -888 rmoveto
          -103 callgsubr
          endchar
        </CharString>
        <CharString name="uni1EAE.ss01">
          95 179 919 rmoveto
          63 hlineto
          53 137 rlineto
          5 -81 vlineto
          -35 -137 rlineto
          140 -36 -85 callsubr
        </CharString>
        <CharString name="uni1EAF">
          35 149 774 -37 callgsubr
          -151 -751 -107 callgsubr
          endchar
        </CharString>
        <CharString name="uni1EB0">
          83 176 919 -36 callsubr
          1 -888 rmoveto
          -103 callgsubr
          endchar
        </CharString>
        <CharString name="uni1EB0.ss01">
          95 182 919 rmoveto
          63 5 hlineto
          -35 137 rlineto
          -81 -5 hlineto
          190 -168 -85 callsubr
        </CharString>
        <CharString name="uni1EB1">
          35 152 774 -36 callsubr
          -151 -751 -107 callgsubr
          endchar
        </CharString>
        <CharString name="uni1EB2">
          83 165 891 -105 callsubr
          144 -19 rmoveto
          -103 callsubr
          5 -888 rmoveto
          -103 callgsubr
          endchar
        </CharString>
        <CharString name="uni1EB2.ss01">
          95 164 877 -96 callsubr
          155 -6 -85 callsubr
        </CharString>
        <CharString name="uni1EB3">
          35 141 746 -105 callsubr
          144 -19 rmoveto
          -103 callsubr
          -147 -751 -107 callgsubr
          endchar
        </CharString>
        <CharString name="uni1EB4">
          83 333 1061 rmoveto
          -107 callsubr
          -22 -173 rmoveto
          -103 callsubr
          3 -888 rmoveto
          -103 callgsubr
          endchar
        </CharString>
        <CharString name="uni1EB4.ss01">
          95 339 1061 rmoveto
          -107 callsubr
          -22 -173 rmoveto
          -103 callsubr
          -24 -47 callsubr
        </CharString>
        <CharString name="uni1EB5">
          35 309 916 rmoveto
          -107 callsubr
          -22 -173 rmoveto
          -103 callsubr
          -149 -751 -107 callgsubr
          endchar
        </CharString>
        <CharString name="uni1EB6">
          83 313 -73 callsubr
          1 -888 rmoveto
          -103 callgsubr
          -41 -747 -80 callsubr
        </CharString>
        <CharString name="uni1EB6.ss01">
          95 319 888 -84 callsubr
          -125 -588 -80 callsubr
        </CharString>
        <CharString name="uni1EB7">
          35 289 -70 callsubr
          -151 -751 -107 callgsubr
          -25 -224 -80 callsubr
        </CharString>
        <CharString name="uni1EB8">
          17 52 hmoveto
          -93 callsubr
          89 -848 -80 callsubr
        </CharString>
        <CharString name="uni1EB9">
          38 332 255 -105 callgsubr
          -50 -609 -80 callsubr
        </CharString>
        <CharString name="uni1EBA">
          17 135 737 -96 callsubr
          -83 -754 rmoveto
          -93 callsubr
          endchar
        </CharString>
        <CharString name="uni1EBB">
          38 221 -78 callgsubr
          111 -461 -105 callgsubr
          endchar
        </CharString>
        <CharString name="uni1EBC">
          17 312 888 rmoveto
          -107 callsubr
          -260 -888 rmoveto
          -93 callsubr
          endchar
        </CharString>
        <CharString name="uni1EBD">
          38 126 670 -92 callgsubr
          206 -415 -105 callgsubr
          endchar
        </CharString>
        <CharString name="uni1EBE">
          17 230 877 -81 callgsubr
          -24 -741 rmoveto
          -93 callsubr
          endchar
        </CharString>
        <CharString name="uni1EBF">
          38 263 896 rmoveto
          -71 callgsubr
          -5 63 vlineto
          53 -19 callsubr
          vlineto
          -160 -198 -65 callgsubr
        </CharString>
        <CharString name="uni1EC0">
          17 234 877 -89 callsubr
          -110 -280 -106 callgsubr
          -19 -741 rmoveto
          -93 callsubr
          endchar
        </CharString>
        <CharString name="uni1EC1">
          38 295 754 -64 callgsubr
          -53 -56 -69 callsubr
          206 -356 -105 callgsubr
          endchar
        </CharString>
        <CharString name="uni1EC2">
          17 231 876 -105 callsubr
          -155 -158 -106 callgsubr
          -24 -741 rmoveto
          -93 callsubr
          endchar
        </CharString>
        <CharString name="uni1EC3">
          38 276 937 rmoveto
          -27 -36 -5 -5 -31 hvcurveto
          -48 vlineto
          1 32 29 2 23 hhcurveto
          45 6 -5 -22 -24 -13 -5 -31 -10 hvcurveto
          -76 callgsubr
          -16 54 vlineto
          20 2 2 40 15 vhcurveto
          10 4 rlineto
          41 16 1 20 38 vvcurveto
          54 -31 16 -70 vhcurveto
          -92 -239 -65 callgsubr
        </CharString>
        <CharString name="uni1EC4">
          17 312 1040 rmoveto
          -107 callsubr
          -238 -305 -106 callgsubr
          -22 -742 rmoveto
          -93 callsubr
          endchar
        </CharString>
        <CharString name="uni1EC5">
          38 126 843 -92 callgsubr
          13 -100 rmoveto
          -67 -125 rlineto
          -7 57 vlineto
          53 87 53 -87 rlineto
          57 7 hlineto
          -67 125 rlineto
          107 -488 -105 callgsubr
          endchar
        </CharString>
        <CharString name="uni1EC6">
          17 76 756 -106 callgsubr
          -24 -763 rmoveto
          -93 callsubr
          89 -848 -80 callsubr
        </CharString>
        <CharString name="uni1EC7">
          38 184 698 -69 callsubr
          201 -356 -105 callgsubr
          -50 -609 -80 callsubr
        </CharString>
        <CharString name="uni1EC8">
          -134 47 737 -96 callsubr
          8 -754 -43 callgsubr
        </CharString>
        <CharString name="uni1EC9">
          -154 37 613 -105 callsubr
          11 -629 -50 callsubr
        </CharString>
        <CharString name="uni1ECA">
          -134 55 hmoveto
          85 688 -85 hlineto
          -2 -848 -80 callsubr
        </CharString>
        <CharString name="uni1ECB">
          -1 callsubr
          2 -670 -80 callsubr
        </CharString>
        <CharString name="uni1ECC">
          95 212 -8 -104 callsubr
          -45 -229 -80 callsubr
        </CharString>
        <CharString name="uni1ECD">
          49 189 -8 -104 callgsubr
          -45 -221 -80 callsubr
        </CharString>
        <CharString name="uni1ECE">
          95 161 737 -96 callsubr
          51 -762 -104 callsubr
          endchar
        </CharString>
        <CharString name="uni1ECF">
          49 138 613 -105 callsubr
          51 -637 -104 callgsubr
          endchar
        </CharString>
        <CharString name="uni1ED0">
          95 256 877 -81 callgsubr
          110 -749 -104 callsubr
          endchar
        </CharString>
        <CharString name="uni1ED1">
          49 233 754 -81 callgsubr
          110 -626 -104 callgsubr
          endchar
        </CharString>
        <CharString name="uni1ED2">
          95 260 877 -89 callsubr
          -110 -280 -106 callgsubr
          115 -749 -104 callsubr
          endchar
        </CharString>
        <CharString name="uni1ED3">
          49 237 754 -89 callsubr
          -110 -280 -106 callgsubr
          115 -626 -104 callgsubr
          endchar
        </CharString>
        <CharString name="uni1ED4">
          95 257 876 -105 callsubr
          -155 -158 -106 callgsubr
          110 -749 -104 callsubr
          endchar
        </CharString>
        <CharString name="uni1ED5">
          49 234 752 -105 callsubr
          -155 -157 -106 callgsubr
          110 -626 -104 callgsubr
          endchar
        </CharString>
        <CharString name="uni1ED6">
          95 338 1040 rmoveto
          -107 callsubr
          -238 -305 -106 callgsubr
          112 -750 -104 callsubr
          endchar
        </CharString>
        <CharString name="uni1ED7">
          49 315 916 rmoveto
          -107 callsubr
          -238 -305 -106 callgsubr
          112 -626 -104 callgsubr
          endchar
        </CharString>
        <CharString name="uni1ED8">
          95 102 756 -106 callgsubr
          110 -771 -104 callsubr
          -45 -229 -80 callsubr
        </CharString>
        <CharString name="uni1ED9">
          49 79 611 -106 callgsubr
          110 -626 -104 callgsubr
          -45 -221 -80 callsubr
        </CharString>
        <CharString name="uni1EDA">
          95 297 883 -67 callsubr
          118 36 -91 callgsubr
        </CharString>
        <CharString name="uni1EDB">
          49 270 738 -67 callsubr
          113 3 -91 callsubr
        </CharString>
        <CharString name="uni1EDC">
          95 245 746 -64 callgsubr
          180 36 -91 callgsubr
        </CharString>
        <CharString name="uni1EDD">
          49 219 601 -64 callgsubr
          174 3 -91 callsubr
        </CharString>
        <CharString name="uni1EDE">
          95 249 -69 callgsubr
          113 -58 -91 callgsubr
        </CharString>
        <CharString name="uni1EDF">
          49 226 -78 callgsubr
          104 -112 -91 callsubr
        </CharString>
        <CharString name="uni1EE0">
          95 154 815 -92 callgsubr
          208 -33 -91 callgsubr
        </CharString>
        <CharString name="uni1EE1">
          49 131 670 -92 callgsubr
          199 -66 -91 callsubr
        </CharString>
        <CharString name="uni1EE2">
          95 362 782 -90 callsubr
          -45 -229 -80 callsubr
        </CharString>
        <CharString name="uni1EE3">
          49 330 604 -90 callgsubr
          -45 -221 -80 callsubr
        </CharString>
        <CharString name="uni1EE4">
          95 293 688 rmoveto
          -428 vlineto
          -101 callsubr
          389 vlineto
          -209 -848 -80 callsubr
        </CharString>
        <CharString name="uni1EE5">
          60 268 hmoveto
          74 -36 callgsubr
          -102 callgsubr
          -120 -228 -80 callsubr
        </CharString>
        <CharString name="uni1EE6">
          95 162 737 -96 callsubr
          131 -66 rmoveto
          -428 vlineto
          -101 callsubr
          389 vlineto
          endchar
        </CharString>
        <CharString name="uni1EE7">
          60 144 613 -105 callsubr
          124 -629 rmoveto
          74 -36 callgsubr
          -102 callgsubr
          endchar
        </CharString>
        <CharString name="uni1EE8">
          95 298 883 -67 callsubr
          145 36 rmoveto
          -38 vlineto
          -40 -5 -16 -42 vhcurveto
          -50 -428 hlineto
          -101 callsubr
          348 vlineto
          -55 callgsubr
          endchar
        </CharString>
        <CharString name="uni1EE9">
          60 276 738 -67 callsubr
          132 3 rmoveto
          -38 vlineto
          -40 -5 -16 -42 vhcurveto
          -46 -102 callgsubr
          4 -68 rlineto
          74 469 hlineto
          -55 callgsubr
          endchar
        </CharString>
        <CharString name="uni1EEA">
          95 246 746 -64 callgsubr
          207 36 rmoveto
          -38 vlineto
          -40 -5 -16 -42 vhcurveto
          -50 -428 hlineto
          -101 callsubr
          348 vlineto
          -55 callgsubr
          endchar
        </CharString>
        <CharString name="uni1EEB">
          60 225 601 -64 callgsubr
          193 3 rmoveto
          -38 vlineto
          -40 -5 -16 -42 vhcurveto
          -46 -102 callgsubr
          4 -68 rlineto
          74 469 hlineto
          -55 callgsubr
          endchar
        </CharString>
        <CharString name="uni1EEC">
          95 250 -69 callgsubr
          140 -58 rmoveto
          -38 vlineto
          -40 -5 -16 -42 vhcurveto
          -50 -428 hlineto
          -101 callsubr
          348 vlineto
          -55 callgsubr
          endchar
        </CharString>
        <CharString name="uni1EED">
          60 232 -78 callgsubr
          123 -112 rmoveto
          -38 vlineto
          -40 -5 -16 -42 vhcurveto
          -46 -102 callgsubr
          4 -68 rlineto
          74 469 hlineto
          -55 callgsubr
          endchar
        </CharString>
        <CharString name="uni1EEE">
          95 155 815 -92 callgsubr
          235 -33 rmoveto
          -38 vlineto
          -40 -5 -16 -42 vhcurveto
          -50 -428 hlineto
          -101 callsubr
          348 vlineto
          -55 callgsubr
          endchar
        </CharString>
        <CharString name="uni1EEF">
          60 137 670 -92 callgsubr
          218 -66 rmoveto
          -38 vlineto
          -40 -5 -16 -42 vhcurveto
          -46 -102 callgsubr
          4 -68 rlineto
          74 469 hlineto
          -55 callgsubr
          endchar
        </CharString>
        <CharString name="uni1EF0">
          95 390 782 rmoveto
          -38 vlineto
          -40 -5 -16 -42 vhcurveto
          -50 -428 hlineto
          -101 callsubr
          348 vlineto
          -55 callgsubr
          -278 -942 -80 callsubr
        </CharString>
        <CharString name="uni1EF1">
          60 355 604 rmoveto
          -38 vlineto
          -40 -5 -16 -42 vhcurveto
          -46 -102 callgsubr
          4 -68 rlineto
          74 469 hlineto
          -55 callgsubr
          -267 -764 -80 callsubr
        </CharString>
        <CharString name="uni1EF4">
          35 140 hmoveto
          -83 callgsubr
          -2 -421 -80 callsubr
        </CharString>
        <CharString name="uni1EF4.loclGUA">
          36 263 688 -93 callgsubr
          -210 -848 -80 callsubr
        </CharString>
        <CharString name="uni1EF5">
          60 177 -200 -98 callsubr
          -45 -160 -80 callsubr
        </CharString>
        <CharString name="uni1EF5.loclGUA">
          22 339 510 -86 callgsubr
          -92 -352 -80 callsubr
        </CharString>
        <CharString name="uni1EF6">
          35 132 737 -96 callsubr
          8 -754 -74 callgsubr
        </CharString>
        <CharString name="uni1EF6.loclGUA">
          36 220 -69 callgsubr
          43 -152 -93 callgsubr
          endchar
        </CharString>
        <CharString name="uni1EF7">
          60 144 613 -105 callsubr
          33 -829 -98 callsubr
          endchar
        </CharString>
        <CharString name="uni1EF7.loclGUA">
          22 212 -78 callgsubr
          127 -206 -86 callgsubr
          endchar
        </CharString>
        <CharString name="uni1EF8">
          35 309 888 rmoveto
          -107 callsubr
          -169 -888 -74 callgsubr
        </CharString>
        <CharString name="uni1EF8.loclGUA">
          36 125 815 -92 callgsubr
          138 -127 -93 callgsubr
          endchar
        </CharString>
        <CharString name="uni1EF9">
          60 321 743 rmoveto
          -107 callsubr
          -144 -943 -98 callsubr
          endchar
        </CharString>
        <CharString name="uni1EF9.loclGUA">
          22 117 670 -92 callgsubr
          222 -160 -86 callgsubr
          endchar
        </CharString>
        <CharString name="uni2002">
          -30 endchar
        </CharString>
        <CharString name="uni20B2">
          82 217 372 rmoveto
          -67 75 -20 vlineto
          -121 -3 -15 -75 -80 -10 18 177 185 15 10 112 25 48 -6 -7 37 vhcurveto
          -32 callgsubr
          6 10 47 168 vvcurveto
          78 vlineto
          endchar
        </CharString>
        <CharString name="uni20B2.bold">
          82 249 372 rmoveto
          167 2 vlineto
          25 48 -6 -7 37 hvcurveto
          -32 callgsubr
          8 10 56 157 vvcurveto
          78 vlineto
          -250 -28 rmoveto
          140 9 40 52 11 vhcurveto
          -385 vlineto
          -54 7 -7 34 153 vvcurveto
          168 -59 rmoveto
          -98 -2 -29 -41 -7 vhcurveto
          154 43 vlineto
          endchar
        </CharString>
        <CharString name="uni2113">
          -1 137 236 rmoveto
          98 68 58 121 122 vvcurveto
          86 -28 62 -79 -97 -34 -98 -271 vhcurveto
          -54 vlineto
          -15 -9 -16 -7 -18 -5 rrcurveto
          -75 vlineto
          18 4 18 6 17 9 rrcurveto
          -148 10 33 -54 84 hhcurveto
          32 30 8 19 34 hvcurveto
          84 vlineto
          -24 -39 -25 -9 -21 hhcurveto
          -41 -15 34 131 -4 hvcurveto
          49 382 rmoveto
          22 8 -25 -40 -85 -26 -82 -54 -57 hvcurveto
          231 15 58 35 vhcurveto
          endchar
        </CharString>
        <CharString name="uni2116">
          351 538 -16 callsubr
          -233 -397 rmoveto
          -78 callsubr
          401 -29 rmoveto
          3 callsubr
          -94 -228 rmoveto
          192 71 -192 hlineto
          endchar
        </CharString>
        <CharString name="uni2126">
          -64 callsubr
        </CharString>
        <CharString name="uni2153">
          205 -50 callgsubr
          -30 -638 rmoveto
          -49 vlineto
          -6 28 29 -3 21 hhcurveto
          73 20 33 74 53 -16 25 -29 11 hvcurveto
          -48 callsubr
          endchar
        </CharString>
        <CharString name="uni2154">
          249 219 369 rmoveto
          -117 20 hlineto
          -51 callsubr
          vlineto
          180 372 rmoveto
          -286 -688 rlineto
          54 hlineto
          286 688 rlineto
          36 -500 rmoveto
          -48 callsubr
          -49 vlineto
          -6 28 29 -3 21 hhcurveto
          73 -10 callgsubr
          endchar
        </CharString>
        <CharString name="uni2206">
          -24 callgsubr
        </CharString>
        <CharString name="uniA78B">
          15 callsubr
          172 -79 vlineto
          endchar
        </CharString>
        <CharString name="uniA78C">
          15 callsubr
          227 -79 vlineto
          endchar
        </CharString>
        <CharString name="uniF8FF">
          511 72 hmoveto
          697 698 -697 hlineto
          546 -316 rmoveto
          -66 vlineto
          -100 -72 -81 -124 -125 -73 81 100 vhcurveto
          66 vlineto
          100 73 81 125 124 72 -81 -100 vhcurveto
          -135 -92 rmoveto
          118 vlineto
          33 -27 27 -34 -35 -27 -27 -33 vhcurveto
          -118 vlineto
          -33 27 -27 35 34 27 27 33 vhcurveto
          endchar
        </CharString>
        <CharString name="uogonek">
          60 342 hmoveto
          -36 callgsubr
          3 callgsubr
          -331 vlineto
          -136 14 -51 95 59 33 27 49 12 vhcurveto
          6 hlineto
          5 -68 rlineto
          12 hlineto
          -35 -32 -27 -43 -43 vvcurveto
          -42 22 -36 -13 callgsubr
          -3 hhcurveto
          -32 -10 19 22 39 35 46 24 19 hvcurveto
          endchar
        </CharString>
        <CharString name="uring">
          60 194 616 -89 callgsubr
          74 -663 rmoveto
          74 -36 callgsubr
          -102 callgsubr
          endchar
        </CharString>
        <CharString name="utilde">
          60 321 743 rmoveto
          -107 callsubr
          -53 -743 rmoveto
          74 -36 callgsubr
          -102 callgsubr
          endchar
        </CharString>
        <CharString name="v">
          22 125 hmoveto
          102 hlineto
          112 510 rlineto
          -80 hlineto
          -79 -405 rlineto
          -6 hlineto
          -81 405 rlineto
          -81 hlineto
          endchar
        </CharString>
        <CharString name="w">
          203 331 hmoveto
          -79 callsubr
        </CharString>
        <CharString name="wacute">
          203 233 -81 callsubr
          98 -606 rmoveto
          -79 callsubr
        </CharString>
        <CharString name="wcircumflex">
          203 158 611 -106 callgsubr
          173 -618 rmoveto
          -79 callsubr
        </CharString>
        <CharString name="wdieresis">
          203 147 648 -88 callgsubr
          17 -730 rmoveto
          -79 callsubr
        </CharString>
        <CharString name="wgrave">
          203 235 601 -89 callsubr
          149 -738 rmoveto
          -79 callsubr
        </CharString>
        <CharString name="x">
          25 259 hmoveto
          84 hlineto
          -112 261 109 249 rlineto
          -82 hlineto
          -76 -184 rlineto
          -6 hlineto
          -76 184 5 callsubr
          108 -253 -112 -257 rlineto
          81 hlineto
          80 195 rlineto
          6 hlineto
          endchar
        </CharString>
        <CharString name="y">
          60 177 -200 -98 callsubr
          endchar
        </CharString>
        <CharString name="y.loclGUA">
          22 339 510 -86 callgsubr
          endchar
        </CharString>
        <CharString name="yacute">
          60 161 -81 callsubr
          16 -806 -98 callsubr
          endchar
        </CharString>
        <CharString name="yacute.loclGUA">
          22 256 738 -67 callsubr
          136 -91 -86 callgsubr
          endchar
        </CharString>
        <CharString name="ycircumflex">
          60 85 611 -106 callgsubr
          92 -818 -98 callsubr
          endchar
        </CharString>
        <CharString name="ycircumflex.loclGUA">
          22 175 698 -69 callsubr
          217 -101 -86 callgsubr
          endchar
        </CharString>
        <CharString name="ydieresis">
          60 73 648 -88 callgsubr
          -63 -930 -98 callsubr
          endchar
        </CharString>
        <CharString name="ydieresis.loclGUA">
          22 129 730 -14 callgsubr
          43 -138 -86 callgsubr
          endchar
        </CharString>
        <CharString name="yen">
          95 170 hmoveto
          85 248 125 52 -113 hlineto
          35 101 rlineto
          78 52 -61 hlineto
          77 235 rlineto
          -83 hlineto
          -94 -326 rlineto
          -8 hlineto
          -95 326 -1 callgsubr
          77 -235 rlineto
          -63 -52 79 hlineto
          34 -101 rlineto
          -113 -52 126 hlineto
          endchar
        </CharString>
        <CharString name="yen.bold">
          95 396 688 rmoveto
          -83 hlineto
          -71 -250 rlineto
          -55 hlineto
          -71 250 -1 callgsubr
          83 -250 rlineto
          -69 -52 86 hlineto
          33 -101 rlineto
          -119 -52 126 -233 85 233 125 52 -119 hlineto
          34 101 rlineto
          85 52 -68 hlineto
          -93 -83 rmoveto
          -8 hlineto
          -9 31 rlineto
          26 hlineto
          endchar
        </CharString>
        <CharString name="ygrave">
          60 162 601 -89 callsubr
          68 -938 -98 callsubr
          endchar
        </CharString>
        <CharString name="ygrave.loclGUA">
          22 205 601 -64 callgsubr
          197 -91 -86 callgsubr
          endchar
        </CharString>
        <CharString name="z">
          -11 26 hmoveto
          -82 callgsubr
          endchar
        </CharString>
        <CharString name="zacute">
          -11 125 -81 callsubr
          -99 -606 rmoveto
          -82 callgsubr
          endchar
        </CharString>
        <CharString name="zacute.loclPLK">
          -11 125 601 rmoveto
          -71 callsubr
          -99 -606 rmoveto
          -82 callgsubr
          endchar
        </CharString>
        <CharString name="zcaron">
          -11 121 611 -97 callgsubr
          -28 -736 rmoveto
          -82 callgsubr
          endchar
        </CharString>
        <CharString name="zdotaccent">
          -11 122 -28 callgsubr
          -96 -730 rmoveto
          -82 callgsubr
          endchar
        </CharString>
        <CharString name="zero">
          69 199 -8 rmoveto
          152 8 65 287 287 -3 65 -157 -151 -9 -65 -287 -287 9 -65 151 -10 callsubr
          -70 -7 11 264 264 7 11 70 70 7 -11 -264 -264 -7 -11 -70 hvcurveto
          endchar
        </CharString>
        <CharString name="zero.dnom">
          -86 123 -4 -43 callsubr
        </CharString>
        <CharString name="zero.numr">
          -86 123 304 -43 callsubr
        </CharString>
        <CharString name="zero.tnum">
          -25 callgsubr
          77 vmoveto
          -70 -7 11 264 264 7 11 70 70 7 -11 -264 -264 -7 -11 -70 hvcurveto
          endchar
        </CharString>
        <CharString name="zero.zero">
          -25 callgsubr
          -78 390 rmoveto
          224 9 13 69 67 10 -13 -224 1 vhcurveto
          -78 -313 rmoveto
          -69 -9 13 227 hvcurveto
          156 hlineto
          -227 -1 -9 -13 -68 hhcurveto
          endchar
        </CharString>
      <CharString index="0">
        rmoveto
        40 45 13 63 14 hvcurveto
        6 hlineto
        4 -68 rlineto
        73 322 hlineto
        153 -31 43 -118 -52 -46 -7 -5 -28 vhcurveto
        -66 vlineto
        4 24 41 5 38 hhcurveto
        81 11 -13 -111 hvcurveto
        -36 vlineto
        2 -28 -47 2 -25 hhcurveto
        -89 -27 -37 -113 -113 30 -38 84 hvcurveto
        25 72 rmoveto
        -52 -10 19 65 74 13 13 46 hvcurveto
        80 -35 hlineto
        -41 -2 -27 -7 -27 vhcurveto
        -37 -11 -28 -4 -29 hhcurveto
        return
      </CharString>
      <CharString index="1">
        rmoveto
        57 hlineto
        53 87 53 -87 rlineto
        57 7 hlineto
        -67 125 -1 callgsubr
        -67 -125 rlineto
        return
      </CharString>
      <CharString index="2">
        rmoveto
        198 -5 65 -136 2 callsubr
        vhcurveto
        -99 callgsubr
        return
      </CharString>
      <CharString index="3">
        rmoveto
        141 13 49 213 214 -13 50 -141 -140 -13 -50 -214 -213 13 -49 140 hvcurveto
        69 -9 callgsubr
        return
      </CharString>
      <CharString index="4">
        86 -20 callsubr
        688 rlineto
        -121 -20 callsubr
        -688 rlineto
        85 hlineto
        34 179 rlineto
        147 hlineto
        -71 408 rmoveto
        61 -333 rlineto
        -127 hlineto
        61 333 rlineto
        return
      </CharString>
      <CharString index="5">
        -259 hlineto
        -127 0 -59 -72 -56 -9 14 133 vhcurveto
        298 -80 -331 vlineto
        -136 14 -51 95 59 33 27 49 12 vhcurveto
        6 hlineto
        return
      </CharString>
      <CharString index="6">
        rmoveto
        152 14 77 194 hvcurveto
        439 -73 vlineto
        -4 -67 rlineto
        -6 hlineto
        63 -14 -43 12 -41 hhcurveto
        -99 -24 -50 -210 -205 21 -55 101 53 31 20 48 12 hvcurveto
        6 -24 hlineto
        -143 -9 -30 -94 -35 -40 1 1 -29 vhcurveto
        -65 vlineto
        -4 36 46 -2 39 hhcurveto
        14 270 23 callsubr
        171 170 8 17 64 37 21 -14 -50 9 hvcurveto
        5 -28 0 -40 -55 vvcurveto
        -59 -1 -41 -6 -31 vhcurveto
        -42 -8 -20 -15 -37 hhcurveto
        endchar
      </CharString>
      <CharString index="7">
        rmoveto
        -99 callsubr
        return
      </CharString>
      <CharString index="8">
        66 vlineto
        -5 -32 -50 -5 -29 hhcurveto
        -88 -7 27 142 hvcurveto
        216 hlineto
        -143 219 rmoveto
        55 13 -13 -135 hvcurveto
        -12 -141 vlineto
        142 8 18 65 vhcurveto
        return
      </CharString>
      <CharString index="9">
        -69 -4 22 171 171 4 24 69 70 4 -24 -171 -171 -4 -22 -70 hvcurveto
        return
      </CharString>
      <CharString index="10">
        -30 callgsubr
        67 125 rlineto
        7 -57 vlineto
        -53 -87 -53 87 rlineto
        -57 -7 hlineto
        return
      </CharString>
      <CharString index="11">
        rmoveto
        79 23 30 75 64 -17 18 -32 9 hvcurveto
        2 vlineto
        31 9 16 26 56 vvcurveto
        74 -29 24 -71 -72 -28 -24 -74 -56 15 -26 31 -9 vhcurveto
        -2 vlineto
        -32 -9 -17 -18 -64 vvcurveto
        -75 23 -30 80 vhcurveto
        217 vmoveto
        -38 -7 10 52 52 7 11 38 38 6 -11 -52 -52 -7 -10 -37 hvcurveto
        -171 vmoveto
        -37 -10 9 54 56 8 9 39 38 9 -9 -56 -54 -11 -9 -36 hvcurveto
        endchar
      </CharString>
      <CharString index="12">
        rmoveto
        5 vlineto
        -30 113 rlineto
        -70 -4 hlineto
        46 -114 rlineto
        168 hmoveto
        5 vlineto
        -30 113 rlineto
        -70 -4 hlineto
        46 -114 rlineto
        return
      </CharString>
      <CharString index="13">
        rmoveto
        153 4 66 223 hvcurveto
        99 -158 -75 77 -32 vlineto
        -189 -4 -15 -74 -81 -10 24 251 261 15 14 113 25 47 -6 -7 38 vhcurveto
        71 vlineto
        11 -35 -55 8 -41 hhcurveto
        -158 -34 -54 -298 -294 25 -58 153 hvcurveto
        return
      </CharString>
      <CharString index="14">
        rmoveto
        -223 vlineto
        -162 -4 -28 -76 -76 -4 28 162 vhcurveto
        223 -85 -183 vlineto
        -215 6 -77 116 -13 vhcurveto
        -200 84 200 vlineto
        117 13 7 76 216 vvcurveto
        183 vlineto
        return
      </CharString>
      <CharString index="15">
        rmoveto
        16 18 -9 -9 19 hvcurveto
        -11 24 24 -10 25 hhcurveto
        53 5 36 76 hvcurveto
        -51 hlineto
        -36 -1 -14 -16 -15 -17 8 9 -19 vhcurveto
        10 -23 -26 12 -26 hhcurveto
        -53 -6 -36 -76 hvcurveto
        51 hlineto
        36 2 14 16 vhcurveto
        return
      </CharString>
      <CharString index="16">
        -90 callsubr
        endchar
      </CharString>
      <CharString index="17">
        rmoveto
        -38 vlineto
        -40 -5 -16 -42 vhcurveto
        -20 hlineto
        6 -19 -25 2 -30 hhcurveto
        -140 -13 -50 -214 -213 13 -49 140 141 13 49 213 109 -3 67 -22 39 hvcurveto
        58 6 10 29 73 vvcurveto
        27 vlineto
        -197 -543 rmoveto
        -98 callgsubr
        return
      </CharString>
      <CharString index="18">
        rmoveto
        94 6 28 68 68 -6 28 -94 -94 -6 -28 -68 -68 6 -28 94 hvcurveto
        47 vmoveto
        -40 -2 10 39 39 2 11 40 40 3 -11 -39 -39 -3 -10 -40 hvcurveto
        return
      </CharString>
      <CharString index="19">
        rmoveto
        75 82 -75 hlineto
        167 -82 rmoveto
        75 82 -75 hlineto
        return
      </CharString>
      <CharString index="20">
        rmoveto
        65 vlineto
        -5 -20 -29 -4 -23 hhcurveto
        -74 -11 23 172 165 11 28 72 22 28 -4 -4 21 hvcurveto
        66 vlineto
        6 -23 -36 5 -32 hhcurveto
        -117 -26 -62 -202 -185 15 -77 129 31 35 5 8 27 hvcurveto
        endchar
      </CharString>
      <CharString index="21">
        rmoveto
        -80 hlineto
        -79 -405 rlineto
        -6 hlineto
        -81 405 rlineto
        -81 hlineto
        113 -510 rlineto
        22 hlineto
        -42 -193 rlineto
        79 hlineto
        43 193 rlineto
        return
      </CharString>
      <CharString index="22">
        -84 callgsubr
        endchar
      </CharString>
      <CharString index="23">
        80 331 hlineto
        -41 callgsubr
        -32 -27 -49 -13 vhcurveto
        -6 -27 callgsubr
        -510 80 259 hlineto
        127 0 59 71 57 9 -31 callgsubr
        return
      </CharString>
      <CharString index="24">
        84 261 hlineto
        142 427 5 callsubr
        -93 -327 rlineto
        -8 hlineto
        -96 327 -1 callgsubr
        141 -427 rlineto
        return
      </CharString>
      <CharString index="25">
        267 69 -177 hlineto
        176 378 rlineto
        63 -260 -69 170 vlineto
        -176 -378 rlineto
        return
      </CharString>
      <CharString index="26">
        -100 callgsubr
        -154 -148 -106 callgsubr
        return
      </CharString>
      <CharString index="27">
        114 hlineto
        93 688 5 callsubr
        -63 -579 rlineto
        -7 hlineto
        -82 579 rlineto
        -103 hlineto
        -81 -579 rlineto
        -6 hlineto
        -65 579 -1 callgsubr
        92 -688 rlineto
        115 hlineto
        78 547 rlineto
        6 hlineto
        endchar
      </CharString>
      <CharString index="28">
        -38 callgsubr
        46 114 rlineto
        4 -70 vlineto
        -30 -113 rlineto
        114 -5 -38 callgsubr
        46 114 rlineto
        4 -70 vlineto
        -30 -113 rlineto
        return
      </CharString>
      <CharString index="29">
        716 rmoveto
        -24 -13 -5 -31 -10 vhcurveto
        -76 callgsubr
        -16 54 vlineto
        20 2 2 40 15 vhcurveto
        10 4 rlineto
        41 16 1 20 38 vvcurveto
        54 -31 16 -70 -27 -36 -5 -56 callgsubr
        2 23 hhcurveto
        45 6 -5 -22 hvcurveto
        return
      </CharString>
      <CharString index="30">
        159 -8 rmoveto
        41 43 12 63 14 hvcurveto
        6 hlineto
        4 -67 rlineto
        73 743 -80 -293 -6 hlineto
        47 -12 -31 21 -53 hhcurveto
        -101 -21 -56 -207 -213 24 -50 99 hvcurveto
        return
      </CharString>
      <CharString index="31">
        -10 -3 rlineto
        -24 -7 -10 -10 -28 vvcurveto
        return
      </CharString>
      <CharString index="32">
        rmoveto
        196 -5 65 -137 -58 -35 -15 -35 -20 vhcurveto
        37 -21 -34 13 -56 hhcurveto
        -52 -46 -7 -5 -28 hvcurveto
        -66 vlineto
        4 30 41 5 32 hhcurveto
        81 11 -13 -111 hvcurveto
        -36 vlineto
        1 -31 -37 1 -32 hhcurveto
        -89 -27 -37 -111 -113 33 -38 93 47 51 9 57 27 hvcurveto
        -50 21 37 -16 66 hhcurveto
        45 -39 callsubr
        hvcurveto
        66 vlineto
        -5 -29 -52 -5 -30 hhcurveto
        -88 -7 27 144 hvcurveto
        217 hlineto
        -143 217 rmoveto
        54 13 -13 -135 hvcurveto
        -10 -141 vlineto
        140 8 18 66 vhcurveto
        -154 -251 rmoveto
        -38 -2 -27 -6 -26 vhcurveto
        -42 -12 -27 -4 -30 hhcurveto
        -52 -10 19 68 72 13 12 46 hvcurveto
        80 hlineto
        endchar
      </CharString>
      <CharString index="33">
        rmoveto
        -83 callgsubr
        endchar
      </CharString>
      <CharString index="34">
        80 253 hlineto
        127 29 53 84 vhcurveto
        85 vlineto
        -55 -38 -19 -80 -17 24 callgsubr
        91 rlineto
        -73 hlineto
        return
      </CharString>
      <CharString index="35">
        rmoveto
        102 33 11 142 hvcurveto
        550 -80 -586 vlineto
        -41 -3 -14 -52 vhcurveto
        endchar
      </CharString>
      <CharString index="36">
        -35 -137 rlineto
        return
      </CharString>
      <CharString index="37">
        rmoveto
        -74 vlineto
        152 2 8 13 252 vvcurveto
        421 -84 -456 vlineto
        -151 -3 -5 -73 -2 vhcurveto
        endchar
      </CharString>
      <CharString index="38">
        840 rmoveto
        -23 10 callgsubr
        -8 -10 -10 -27 vvcurveto
        -17 54 vlineto
        21 2 2 40 14 vhcurveto
        10 4 rlineto
        41 17 1 20 38 vvcurveto
        54 -31 15 -70 -27 -36 -4 -56 callgsubr
        1 23 hhcurveto
        45 6 -5 -22 hvcurveto
        return
      </CharString>
      <CharString index="39">
        137 rlineto
        return
      </CharString>
      <CharString index="40">
        80 441 75 69 -75 90 hlineto
        72 13 10 62 vhcurveto
        61 vlineto
        -121 -34 -13 -150 hvcurveto
        -70 -57 -69 57 vlineto
        return
      </CharString>
      <CharString index="41">
        rmoveto
        -44 vlineto
        -6 23 33 -3 24 hhcurveto
        78 18 31 93 73 -11 38 -70 -17 -14 -2 -2 -9 hvcurveto
        103 106 49 -158 -202 vlineto
        5 23 23 1 14 hhcurveto
        52 5 -7 -62 -58 -7 -12 -47 -16 -26 2 3 -24 hvcurveto
        return
      </CharString>
      <CharString index="42">
        -69 callsubr
        60 -93 rmoveto
        2 callsubr
        hvcurveto
        66 vlineto
        -5 -32 -50 -5 -29 hhcurveto
        -88 -7 27 142 hvcurveto
        216 25 hlineto
        198 -5 65 -136 vhcurveto
        -2 -69 0 callsubr
      </CharString>
      <CharString index="43">
        rmoveto
        5 vlineto
        -35 -68 callgsubr
        -81 -5 hlineto
        53 -137 rlineto
        return
      </CharString>
      <CharString index="44">
        rmoveto
        57 29 15 42 16 hvcurveto
        9 27 2 46 65 vvcurveto
        63 -2 43 -7 26 vhcurveto
        49 -11 -26 11 -56 hhcurveto
        -79 -17 -31 -97 -97 25 -11 54 39 15 12 15 7 hvcurveto
        4 hlineto
        -112 -6 -18 -62 -18 -27 2 4 -19 vhcurveto
        -45 vlineto
        -5 21 30 -4 22 hhcurveto
        13 198 rmoveto
        -37 -7 4 67 63 8 8 36 35 10 -9 -72 -49 -4 -12 -41 hvcurveto
        endchar
      </CharString>
      <CharString index="45">
        rmoveto
        79 17 31 96 98 -25 11 -54 -40 -14 -15 -13 -6 hvcurveto
        -4 hlineto
        112 5 19 62 18 27 -3 -3 19 vhcurveto
        45 vlineto
        5 -21 -31 4 -22 hhcurveto
        -59 -29 -17 -47 -14 hvcurveto
        -8 -24 -2 -46 -62 vvcurveto
        -66 0 -45 5 -19 vhcurveto
        -51 14 26 -10 57 hhcurveto
        -3 47 rmoveto
        -34 -10 9 72 48 4 12 40 38 7 -3 -68 -62 -8 -8 -37 hvcurveto
        endchar
      </CharString>
      <CharString index="46">
        rmoveto
        73 hlineto
        21 55 rlineto
        -6 15 19 -2 25 hhcurveto
        141 13 49 213 119 -4 68 -28 38 hvcurveto
        32 86 rlineto
        -73 hlineto
        -22 -56 rlineto
        7 -15 -19 2 -25 hhcurveto
        -140 -13 -50 -214 -119 4 -67 27 -37 hvcurveto
        122 30 -15 callsubr
      </CharString>
      <CharString index="47">
        55 135 118 -27 33 -53 16 hvcurveto
        4 vlineto
        51 15 24 48 101 vvcurveto
        135 -44 44 -116 -117 -44 -44 -135 -101 24 -48 51 -15 vhcurveto
        -4 vlineto
        -52 -16 -28 -33 -118 vvcurveto
        -135 37 -55 129 vhcurveto
        392 vmoveto
        -65 -13 20 98 98 11 22 67 66 11 -22 -98 -98 -13 -20 -64 hvcurveto
        -318 vmoveto
        -64 return
      </CharString>
      <CharString index="48">
        -18 78 194 rmoveto
        76 67 hlineto
        48 2 11 48 34 vhcurveto
        13 10 rlineto
        52 37 5 53 86 vvcurveto
        109 -41 47 -95 -32 -47 -6 -9 -39 vhcurveto
        -71 vlineto
        5 37 33 4 19 hhcurveto
        69 11 -26 -74 -83 -14 -11 -38 -27 hvcurveto
        -13 -10 rlineto
        -31 -20 -15 -15 -69 vvcurveto
        -7 -284 -28 callsubr
        endchar
      </CharString>
      <CharString index="49">
        46 rmoveto
        32 50 rlineto
        -83 52 -55 91 105 vvcurveto
        104 56 92 82 51 vhcurveto
        -32 51 rlineto
        -99 -62 -67 -111 -125 vvcurveto
        -126 67 -110 99 -62 vhcurveto
        return
      </CharString>
      <CharString index="50">
        rmoveto
        89 97 -89 hlineto
        23 -696 rmoveto
        34 48 6 9 36 -18 callsubr
        -5 -34 -35 -4 -20 hhcurveto
        -70 -11 25 75 83 14 11 40 28 hvcurveto
        12 8 rlineto
        30 21 15 15 69 vvcurveto
        90 -75 -67 vlineto
        -47 -3 -12 -31 -22 vhcurveto
        -30 -22 rlineto
        -51 -36 -6 -53 -87 vvcurveto
        -113 44 -43 93 vhcurveto
        endchar
      </CharString>
      <CharString index="51">
        -5 -31 vhcurveto
        -48 vlineto
        1 32 29 return
      </CharString>
      <CharString index="52">
        59 6 10 28 74 vvcurveto
        27 vlineto
        return
      </CharString>
      <CharString index="53" raw="1">
        737e866c 810b  
      </CharString>
      <CharString index="54">
        46 rmoveto
        99 62 67 110 126 vvcurveto
        125 -67 111 -99 62 vhcurveto
        -32 -51 rlineto
        82 -51 56 -92 -104 vvcurveto
        -105 -55 -91 -83 -52 vhcurveto
        -31 51 rmoveto
        65 41 44 73 83 vvcurveto
        83 -44 73 -66 41 vhcurveto
        -32 -51 rlineto
        49 -31 33 -54 -61 vvcurveto
        -62 -33 -53 -48 -31 vhcurveto
        return
      </CharString>
      <CharString index="55">
        53 hlineto
        12 167 9 162 62 vvcurveto
        103 -96 -103 vlineto
        -62 10 -162 12 -167 vhcurveto
        return
      </CharString>
      <CharString index="56">
        rmoveto
        32 51 rlineto
        -48 31 -33 53 62 vvcurveto
        61 33 54 49 31 vhcurveto
        -32 51 rlineto
        -66 -41 -44 -73 -83 vvcurveto
        -83 44 -73 65 -41 vhcurveto
        return
      </CharString>
      <CharString index="57">
        89 316 rmoveto
        57 372 -43 hlineto
        -59 -36 rlineto
        -55 vlineto
        45 21 rlineto
        -26 -618 rmoveto
        -46 callgsubr
        return
      </CharString>
      <CharString index="58">
        226 77 -148 hlineto
        -32 232 rlineto
        158 77 -166 hlineto
        -31 225 rlineto
        219 77 -353 hlineto
        -175 -688 rlineto
        84 hlineto
        46 179 rlineto
        149 hlineto
        -47 408 rmoveto
        40 -333 rlineto
        -129 hlineto
        83 333 rlineto
        endchar
      </CharString>
      <CharString index="59">
        83 52 hmoveto
        147 hlineto
        163 10 64 280 281 -10 63 -163 hvcurveto
        -147 -300 -46 -79 46 hlineto
        147 -232 rmoveto
        -63 232 82 79 -82 223 63 hlineto
        78 -45 callgsubr
        -78 hvcurveto
        endchar
      </CharString>
      <CharString index="60">
        63 265 510 rmoveto
        3 callgsubr
        -700 80 191 vlineto
        -4 13 14 -2 15 hhcurveto
        58 22 30 43 12 hvcurveto
        6 hlineto
        4 -68 rlineto
        73 510 hlineto
        endchar
      </CharString>
      <CharString index="61">
        54 hlineto
        286 688 rlineto
        -54 hlineto
        return
      </CharString>
      <CharString index="62">
        11 -10 -257 -257 -11 -10 return
      </CharString>
      <CharString index="63">
        -90 hlineto
        endchar
      </CharString>
      <CharString index="64">
        rmoveto
        -46 callsubr
      </CharString>
      <CharString index="65">
        rmoveto
        -103 callsubr
        -26 return
      </CharString>
      <CharString index="66">
        135 -15 52 -94 -60 return
      </CharString>
      <CharString index="67">
        248 79 -162 609 -86 hlineto
        return
      </CharString>
      <CharString index="68">
        -37 callgsubr
        endchar
      </CharString>
      <CharString index="69">
        rmoveto
        54 hlineto
        return
      </CharString>
      <CharString index="70">
        -100 callgsubr
        140 -36 rmoveto
        -103 callsubr
        return
      </CharString>
      <CharString index="71">
        510 -80 return
      </CharString>
      <CharString index="72">
        -29 callsubr
        38 32 48 22 21 hvcurveto
        -62 hlineto
        -33 -34 -24 -47 -39 vvcurveto
        -44 22 -36 63 13 11 1 2 11 vhcurveto
        endchar
      </CharString>
      <CharString index="73">
        -88 callgsubr
        34 return
      </CharString>
      <CharString index="74">
        793 rmoveto
        75 82 -75 hlineto
        return
      </CharString>
      <CharString index="75">
        71 vlineto
        -30 9 -44 8 -38 1 rrcurveto
        81 -64 -82 vlineto
        -119 -9 -27 -55 -206 vvcurveto
        -209 28 -55 118 -7 vhcurveto
        -81 64 81 vlineto
        115 return
      </CharString>
      <CharString index="76">
        -14 -133 vhcurveto
        return
      </CharString>
      <CharString index="77">
        rmoveto
        86 hlineto
        return
      </CharString>
      <CharString index="78">
        85 609 118 79 -320 -79 117 hlineto
        return
      </CharString>
      <CharString index="79">
        648 rmoveto
        75 82 -75 hlineto
        return
      </CharString>
      <CharString index="80">
        hlineto
        -4 68 rlineto
        -73 return
      </CharString>
      <CharString index="81">
        rmoveto
        32 51 rlineto
        -14 9 -10 16 20 vvcurveto
        20 10 16 15 9 vhcurveto
        -32 51 rlineto
        -32 -20 -21 -35 -41 vvcurveto
        -42 21 -34 31 -20 vhcurveto
        return
      </CharString>
      <CharString index="82">
        71 201 -8 rmoveto
        151 9 65 287 287 -3 65 -157 -152 -8 -65 -287 -287 8 -65 152 hvcurveto
        return
      </CharString>
      <CharString index="83">
        83 13 hmoveto
        387 -20 callsubr
        688 rlineto
        -121 hlineto
        63 -102 rmoveto
        94 -512 rlineto
        -195 hlineto
        95 512 rlineto
        endchar
      </CharString>
      <CharString index="84">
        rmoveto
        60 hlineto
        -61 198 61 198 rlineto
        -60 hlineto
        -75 -198 rlineto
        return
      </CharString>
      <CharString index="85">
        31 20 21 34 42 vvcurveto
        41 -21 35 -32 20 vhcurveto
        -32 -51 rlineto
        15 -9 10 -16 -20 vvcurveto
        -20 -10 -16 -14 -9 vhcurveto
        endchar
      </CharString>
      <CharString index="86">
        rmoveto
        82 91 -82 hlineto
        return
      </CharString>
</ttFont>
